<svg width="50" height="50" viewBox="0 0 50 50" fill="none" xmlns="http://www.w3.org/2000/svg">
<path d="M21.73 46.74C32.367 46.74 40.99 38.117 40.99 27.48C40.99 16.843 32.367 8.21997 21.73 8.21997C11.093 8.21997 2.46997 16.843 2.46997 27.48C2.46997 38.117 11.093 46.74 21.73 46.74Z" fill="white"/>
<path d="M39.6899 18.66C44.0032 18.66 47.4999 15.1634 47.4999 10.85C47.4999 6.5367 44.0032 3.04004 39.6899 3.04004C35.3765 3.04004 31.8799 6.5367 31.8799 10.85C31.8799 15.1634 35.3765 18.66 39.6899 18.66Z" fill="white"/>
<path d="M40.84 26.6701C40.6899 23.4579 39.7454 20.3331 38.0909 17.5756C36.4364 14.8181 34.1237 12.5142 31.36 10.8701C29.1245 9.51378 26.5349 8.85581 23.9231 8.98052C21.3113 9.10524 18.7962 10.0069 16.7 11.5701C8.70003 17.2901 5.45003 29.7101 10.25 38.7801C11.2644 40.8166 12.7383 42.5895 14.5553 43.9588C16.3724 45.3281 18.4828 46.2563 20.72 46.6701C21.17 46.7401 21.62 46.7801 22.07 46.8101H22.74C32.74 46.8101 40.86 38.2401 40.86 27.6801C40.86 27.3601 40.85 27.0001 40.84 26.6701Z" fill="#F0DAD6"/>
<path d="M38.0101 18.0001C41.2851 18.0001 43.9401 14.8303 43.9401 10.9201C43.9401 7.00991 41.2851 3.84009 38.0101 3.84009C34.735 3.84009 32.0801 7.00991 32.0801 10.9201C32.0801 14.8303 34.735 18.0001 38.0101 18.0001Z" fill="#2BAAAC"/>
<path d="M16.0999 29.38C15.9923 29.6729 15.8177 29.9366 15.5899 30.15C15.2617 30.4009 14.8708 30.5566 14.4599 30.6C14.387 30.6102 14.3129 30.6102 14.2399 30.6C14.0976 30.5773 13.9634 30.5188 13.8499 30.43C13.6828 30.3527 13.5361 30.2374 13.4215 30.0933C13.3069 29.9492 13.2276 29.7802 13.1899 29.6C13.2012 29.427 13.1774 29.2535 13.1199 29.09C13.0749 28.8858 13.0749 28.6742 13.1199 28.47C13.1423 28.4049 13.1691 28.3414 13.1999 28.28C13.3393 27.9417 13.5509 27.6379 13.8199 27.39L13.9999 27.22C14.1969 27.0696 14.43 26.9738 14.6758 26.9422C14.9216 26.9106 15.1714 26.9443 15.3999 27.04C15.5283 27.0857 15.646 27.1572 15.7457 27.2501C15.8455 27.3429 15.9252 27.4552 15.9799 27.58C15.9756 27.6232 15.9756 27.6667 15.9799 27.71C16.0145 27.7611 16.0547 27.808 16.0999 27.85C16.1816 27.9779 16.2202 28.1286 16.2099 28.28C16.2395 28.6503 16.2022 29.0229 16.0999 29.38Z" fill="black"/>
<path d="M32.1001 28.05C32.0649 28.3412 31.9541 28.6182 31.7786 28.8532C31.6032 29.0883 31.3692 29.2734 31.1001 29.39C30.7751 29.5642 30.3958 29.6072 30.0401 29.51C29.9123 29.4991 29.7889 29.458 29.6801 29.39C29.6199 29.3432 29.569 29.2856 29.5301 29.22C29.3386 29.0063 29.1954 28.7539 29.1101 28.48C29.0837 28.3819 29.067 28.2814 29.0601 28.18V27.96C29.0069 27.5674 29.0994 27.169 29.3201 26.84C29.4014 26.7753 29.4783 26.7051 29.5501 26.63C29.6201 26.54 29.6501 26.44 29.7201 26.35C29.7901 26.26 30.0601 26.17 30.1901 26.02C30.5901 25.59 31.5701 25.94 31.7801 26.41C31.8018 26.4676 31.8322 26.5215 31.8701 26.57C31.906 26.6006 31.9395 26.634 31.9701 26.67C32.033 26.7363 32.0748 26.8199 32.0901 26.91C32.2059 27.1918 32.2338 27.5021 32.1701 27.8L32.1001 28.05Z" fill="black"/>
<path d="M20.7801 32.55C20.7801 32.55 20.7201 32.48 20.7201 32.44C20.724 32.3803 20.7086 32.3208 20.6762 32.2704C20.6438 32.22 20.5961 32.1813 20.5401 32.16C20.4445 32.1716 20.3481 32.1466 20.2701 32.09L20.1701 32.03L20.0001 32C19.9606 31.9914 19.9196 31.9914 19.8801 32H19.7001C19.6404 32.0088 19.5798 32.0088 19.5201 32C19.3892 31.9784 19.2548 32.0032 19.1401 32.07L19.0401 32.12H18.9101C18.8665 32.127 18.826 32.147 18.7939 32.1773C18.7618 32.2076 18.7396 32.2469 18.7301 32.29C18.7385 32.3126 18.7385 32.3375 18.7301 32.36C18.6723 32.452 18.6317 32.5536 18.6101 32.66V32.91C18.6597 33.0401 18.7559 33.1471 18.8801 33.21C18.9695 33.2704 19.0672 33.3176 19.1701 33.35C19.2978 33.3849 19.4324 33.3849 19.5601 33.35H19.9501C20.1654 33.3316 20.3689 33.2438 20.5301 33.1C20.595 33.0372 20.6521 32.9666 20.7001 32.89C20.7557 32.8317 20.7938 32.759 20.8101 32.68C20.7955 32.6379 20.7855 32.5943 20.7801 32.55Z" fill="black"/>
<path d="M48.0701 9.9301C47.9615 9.78003 47.8834 9.61017 47.8401 9.4301C47.8568 9.01534 47.76 8.60388 47.5601 8.2401C47.5689 7.85209 47.4647 7.46989 47.2601 7.1401C47.0101 6.6901 46.9201 6.1401 46.4401 5.8801C45.8537 5.02214 45.1107 4.28253 44.2501 3.7001C42.8785 2.84555 41.2854 2.41424 39.6701 2.4601C39.3401 2.6101 38.9901 2.3801 38.6701 2.5601C38.519 2.66695 38.3495 2.74493 38.1701 2.7901C37.7535 2.7757 37.3403 2.86868 36.9701 3.0601C36.586 3.05755 36.2087 3.16138 35.8801 3.3601C35.4301 3.6101 34.8801 3.7101 34.6201 4.1801C33.7618 4.77015 33.0223 5.51648 32.4401 6.3801C31.5627 7.7582 31.117 9.36697 31.1601 11.0001C31.3201 11.3301 31.0801 11.6801 31.2601 12.0001C31.3659 12.1531 31.4468 12.3219 31.5001 12.5001C31.4847 12.9135 31.5778 13.3238 31.7701 13.6901C31.7612 14.0781 31.8655 14.4603 32.0701 14.7901C32.3201 15.2401 32.4201 15.7901 32.8901 16.0501C33.4773 16.9107 34.2241 17.6507 35.0901 18.2301C36.4605 19.0874 38.0544 19.5189 39.6701 19.4701C40.0001 19.3201 40.3401 19.5501 40.6701 19.3701C40.8237 19.2613 40.9968 19.1832 41.1801 19.1401C41.5935 19.1555 42.0038 19.0624 42.3701 18.8701C42.7571 18.8714 43.1373 18.7677 43.4701 18.5701C43.9101 18.3201 44.4701 18.2201 44.7201 17.7501C45.5837 17.1631 46.327 16.4163 46.9101 15.5501C47.7627 14.1878 48.2005 12.6069 48.1701 11.0001C48.0001 10.6301 48.2501 10.2801 48.0701 9.9301ZM46.8901 10.9301C46.8201 11.0501 46.8901 11.2001 46.8901 11.2901C46.8175 11.4532 46.7898 11.6327 46.8101 11.8101C46.8101 11.9501 46.6401 12.0401 46.5801 12.1601C46.4723 12.5339 46.4185 12.9211 46.4201 13.3101C46.3401 13.9201 45.8401 14.4001 45.6301 14.9701C45.6301 15.1201 45.6301 15.2801 45.4701 15.3101C45.3101 15.3401 44.9601 15.8501 44.6301 16.0301C44.4041 16.1242 44.1999 16.2638 44.0301 16.4401C43.7425 16.755 43.3657 16.9747 42.9501 17.0701C42.7501 17.1401 42.6201 17.3501 42.4201 17.4301C42.2201 17.5101 42.0401 17.4301 41.8901 17.5301C41.6201 17.8401 41.4901 17.7401 41.1901 17.9401C41.0601 17.9401 40.9501 17.7601 40.7801 17.8401C40.4379 17.9904 40.0786 18.0979 39.7101 18.1601C39.5907 18.1424 39.4694 18.1424 39.3501 18.1601C39.1819 18.0931 39.0005 18.0658 38.8201 18.0801C38.6901 18.0801 38.6001 17.9101 38.4801 17.8601C38.105 17.7427 37.7129 17.6887 37.3201 17.7001C36.7101 17.6201 36.2301 17.1201 35.6701 16.9001C35.5201 16.9001 35.3501 16.9501 35.3301 16.7401C35.3101 16.5301 34.7901 16.2301 34.6101 15.9001C34.5132 15.6732 34.3701 15.4688 34.1901 15.3001C33.8738 15.0137 33.6537 14.6364 33.5601 14.2201C33.5001 14.0201 33.2801 13.8901 33.2101 13.6901C33.1401 13.4901 33.2101 13.3101 33.1101 13.1601C32.8001 12.8901 32.9001 12.7601 32.7001 12.4701C32.7001 12.3301 32.8801 12.2201 32.7901 12.0501C32.6339 11.7145 32.5165 11.3623 32.4401 11.0001C32.4638 10.8813 32.4638 10.7589 32.4401 10.6401C32.5093 10.4759 32.5401 10.298 32.5301 10.1201C32.5301 9.9901 32.6901 9.8901 32.7501 9.7701C32.9026 9.39118 32.9872 8.98836 33.0001 8.5801C33.0801 7.9701 33.5801 7.4901 33.7901 6.9201C33.7901 6.7701 33.7901 6.6101 33.9501 6.5801C34.1101 6.5501 34.4701 6.0401 34.8001 5.8601C35.0247 5.76353 35.2285 5.62429 35.4001 5.4501C35.6877 5.13522 36.0644 4.91546 36.4801 4.8201C36.6801 4.7501 36.8001 4.5401 37.0101 4.4601C37.2201 4.3801 37.3801 4.4601 37.5301 4.3601C37.8001 4.0501 37.9301 4.1601 38.2301 3.9501C38.3601 3.9501 38.4801 4.1301 38.6401 4.0501C38.9852 3.89842 39.3481 3.7909 39.7201 3.7301C39.8401 3.8001 39.9801 3.7301 40.0801 3.7301C40.2432 3.8027 40.4227 3.83032 40.6001 3.8101C40.7301 3.8101 40.8201 3.9801 40.9401 4.0301C41.3152 4.14746 41.7072 4.20153 42.1001 4.1901C42.7101 4.2701 43.1901 4.7701 43.7501 4.9901C43.9101 4.9901 44.0701 4.9901 44.0901 5.1501C44.2701 5.4701 44.6301 5.6601 44.8201 5.9901C44.9167 6.21473 45.0559 6.4185 45.2301 6.5901C45.5464 6.87654 45.7664 7.25376 45.8601 7.6701C45.9301 7.8701 46.1401 8.0001 46.2201 8.2001C46.3001 8.4001 46.2201 8.5801 46.3201 8.7301C46.6201 9.0001 46.5201 9.1301 46.7301 9.4201C46.7301 9.5601 46.5501 9.6701 46.6301 9.8401C46.7691 10.2132 46.8565 10.6034 46.8901 11.0001V10.9301Z" fill="black"/>
<path d="M45.42 11C45.29 10.69 45.03 10.66 44.78 10.54C44.6671 10.5549 44.5528 10.5549 44.44 10.54C44.3968 10.5457 44.3531 10.5457 44.31 10.54C44.21 10.48 44.09 10.54 44.02 10.54C43.8784 10.4853 43.7215 10.4853 43.58 10.54C43.09 10.28 43.24 10.37 42.52 10.39C42 10.74 41.34 10.39 40.77 10.55C40.67 10.65 40.59 10.78 40.47 10.62V9.85003C40.57 9.30003 40.35 8.85003 40.47 8.28003C40.495 7.88042 40.495 7.47964 40.47 7.08003C40.5074 6.99142 40.5267 6.89622 40.5267 6.80003C40.5267 6.70385 40.5074 6.60865 40.47 6.52003C40.3843 6.32941 40.327 6.12726 40.3 5.92003C40.24 5.86003 40.3 5.78003 40.3 5.71003C40.2832 5.65202 40.2551 5.59788 40.2173 5.55072C40.1796 5.50356 40.1329 5.46429 40.08 5.43517C40.0271 5.40604 39.9689 5.38763 39.9089 5.38097C39.8488 5.37432 39.7881 5.37956 39.73 5.39638C39.7165 5.40032 39.7031 5.40487 39.69 5.41003C39.38 5.54003 39.35 5.80003 39.23 6.06003C39.2449 6.16953 39.2449 6.28054 39.23 6.39003C39.2373 6.43306 39.2373 6.47701 39.23 6.52003C39.17 6.62003 39.23 6.74003 39.23 6.82003C39.1796 6.95893 39.1796 7.11114 39.23 7.25003C38.97 7.74003 39.07 7.59003 39.08 8.32003C39.43 8.83003 39.08 9.49003 39.24 10.06C39.34 10.16 39.47 10.24 39.32 10.36H39.14C38.77 10.29 38.43 10.45 38.08 10.3C37.9 10.3 37.73 10.41 37.55 10.39C37.37 10.37 37.25 10.26 37.1 10.3C36.71 10.55 36.8 10.37 36.44 10.52C36.34 10.46 36.28 10.3 36.12 10.35C35.8298 10.4715 35.5231 10.549 35.21 10.58C35.1719 10.6099 35.1274 10.6305 35.08 10.64H34.75C34.49 10.77 34.23 10.8 34.1 11.1C34.0571 11.2171 34.0625 11.3463 34.1149 11.4594C34.1673 11.5725 34.2625 11.6601 34.3795 11.703L34.4 11.71H34.61C34.8113 11.7013 35.0129 11.7181 35.21 11.76C35.4381 11.855 35.691 11.8725 35.93 11.81C36.05 11.76 36.17 11.64 36.31 11.66C36.4577 11.6947 36.6084 11.7148 36.76 11.72C36.9 11.81 37.03 11.72 37.17 11.72C37.4172 11.8443 37.6945 11.8963 37.97 11.87C38.3396 11.8451 38.7104 11.8451 39.08 11.87C39.01 12.24 39.17 12.58 39.02 12.93C39.02 13.11 39.13 13.29 39.11 13.46C39.09 13.63 38.98 13.76 39.02 13.91C39.27 14.3 39.09 14.22 39.24 14.57C39.18 14.67 39.02 14.74 39.08 14.89C39.08 15.2 39.31 15.5 39.3 15.8C39.3276 15.8394 39.348 15.8834 39.36 15.93V16.27C39.36 16.27 39.52 16.78 39.82 16.91C39.9358 16.9561 40.0652 16.9542 40.1797 16.9048C40.2941 16.8554 40.3843 16.7626 40.4303 16.6467L40.44 16.62V16.4C40.4148 16.2008 40.4148 15.9992 40.44 15.8C40.5349 15.572 40.5525 15.319 40.49 15.08C40.44 14.96 40.32 14.84 40.34 14.71C40.3753 14.5591 40.3954 14.405 40.4 14.25C40.49 14.11 40.4 13.98 40.4 13.84C40.5235 13.5961 40.5755 13.3222 40.55 13.05V11.93H41.17C41.72 12.03 42.17 11.81 42.75 11.93C43.1463 11.955 43.5437 11.955 43.94 11.93C44.1301 11.9396 44.3202 11.9125 44.5 11.85C44.6921 11.7789 44.8951 11.7417 45.1 11.74C45.17 11.67 45.24 11.74 45.32 11.74C45.3844 11.7057 45.4397 11.6566 45.4813 11.5967C45.523 11.5369 45.5498 11.4679 45.5596 11.3957C45.5693 11.3234 45.5618 11.2498 45.5375 11.181C45.5132 11.1122 45.4729 11.0502 45.42 11Z" fill="black"/>
<path d="M41.6199 26.36C41.4988 24.7621 41.1625 23.1879 40.6199 21.68C40.4019 21.3634 40.2112 21.0289 40.0499 20.68C39.8599 20.41 39.5799 20.26 39.3299 20.52C39.0799 20.78 39.2199 21.16 39.2099 21.52C39.2873 21.7153 39.3508 21.9158 39.3999 22.12C39.456 22.3604 39.4961 22.6043 39.5199 22.85C39.5741 22.9534 39.6024 23.0683 39.6024 23.185C39.6024 23.3017 39.5741 23.4167 39.5199 23.52C39.4499 23.75 39.6599 24.17 39.7399 24.52C39.9049 24.7132 40 24.9562 40.0099 25.21C40.0099 25.62 40.0999 26.21 40.1099 26.61C40.1099 26.8 40.2899 26.9 40.3199 27.05C40.1918 27.3675 40.1306 27.7079 40.1399 28.05C40.0799 28.38 40.1399 28.54 39.9999 28.78C39.8599 29.02 39.9999 29.06 39.9499 29.21C39.9443 29.6824 39.8667 30.1511 39.7199 30.6C39.6899 30.8358 39.6899 31.0743 39.7199 31.31C39.7199 31.54 39.5099 31.67 39.4999 31.87C39.6099 32.33 39.4999 32.36 39.4999 32.77C39.3999 32.89 39.2399 32.94 39.2399 33.14C39.1984 33.5504 39.1316 33.9579 39.0399 34.36C38.9399 34.46 38.9399 34.63 38.8899 34.72C38.7632 34.8717 38.671 35.0491 38.6199 35.24C38.2572 35.5656 37.9966 35.9894 37.8699 36.46C37.7899 37.25 37.0899 37.81 36.7499 38.46C36.7499 38.63 36.7499 38.8 36.5699 38.83C36.3899 38.86 36.1899 39.27 35.9699 39.46C35.8048 39.6475 35.6127 39.8093 35.3999 39.94C35.1599 40.05 35.2199 40.15 35.0899 40.23C34.7872 40.5927 34.4525 40.9274 34.0899 41.23C33.8412 41.6001 33.4951 41.8942 33.0899 42.08C32.8799 42.5 32.7599 42.44 32.5099 42.77C32.4331 42.7589 32.3547 42.7648 32.2804 42.7872C32.2061 42.8097 32.1377 42.8482 32.0799 42.9C31.7999 43.12 31.5699 43.43 31.2799 43.64L30.8099 43.91C30.6192 43.9547 30.4392 44.0362 30.2799 44.15C29.7923 44.1812 29.3239 44.3512 28.9299 44.64C28.3899 45.21 27.4699 45.21 26.7899 45.54C26.6899 45.68 26.5999 45.82 26.4099 45.72C26.2199 45.62 25.8399 45.82 25.5499 45.84C25.3034 45.8551 25.0563 45.8551 24.8099 45.84C24.7665 45.8181 24.7185 45.8066 24.6699 45.8066C24.6212 45.8066 24.5733 45.8181 24.5299 45.84C24.0206 45.9472 23.4987 45.9809 22.9799 45.94C22.5569 46.0582 22.1131 46.0821 21.6799 46.01C21.2499 46.2 21.1999 46.07 20.7999 46.18C20.6599 46.11 20.5699 45.95 20.3799 45.99C20.0511 46.0604 19.7161 46.0973 19.3799 46.1C19.1629 46.0971 18.9474 46.0635 18.7399 46C18.5671 45.9009 18.3686 45.8556 18.1699 45.87C18.0199 45.87 17.9299 45.69 17.7899 45.62C17.379 45.4629 16.9386 45.398 16.4999 45.43C16.0999 45.43 15.7999 45.16 15.4199 45.08C15.1464 44.9567 14.8618 44.8596 14.5699 44.79C14.4699 44.79 14.3699 44.87 14.2799 44.79C14.0899 44.47 13.7399 44.37 13.4299 44.18C13.1199 43.99 12.9799 43.98 12.8299 43.76C12.3999 43.33 11.7099 43.21 11.3199 42.71C10.9305 42.5484 10.5795 42.3065 10.2899 42C9.83988 41.92 9.86988 41.76 9.48988 41.59C9.42988 41.45 9.48988 41.27 9.27988 41.18C8.95988 40.93 8.51988 40.81 8.27988 40.48C8.12391 40.2894 7.98028 40.089 7.84988 39.88C7.61988 39.75 7.57988 39.53 7.51988 39.29C7.45988 39.05 7.11988 38.75 6.90988 38.5C6.69988 38.25 6.42988 38.26 6.34988 38C6.13797 37.5847 5.90432 37.1808 5.64988 36.79C5.58988 36.6 5.34988 36.61 5.26988 36.48C5.2632 36.1269 5.16314 35.7819 4.97988 35.48C4.97988 35.22 4.74988 35.04 4.76988 34.77C4.70988 34.17 4.24988 33.64 4.23988 33.01C4.04436 32.6208 3.93198 32.1951 3.90988 31.76C3.56988 31.36 3.73988 31.35 3.53988 30.94C3.53988 30.79 3.70988 30.67 3.62988 30.49C3.55988 30.09 3.24988 29.72 3.25988 29.31C3.26357 29.0627 3.28026 28.8157 3.30988 28.57C3.27649 28.4579 3.26814 28.3397 3.28541 28.2239C3.30269 28.1082 3.34518 27.9976 3.40988 27.9C3.46022 27.5686 3.46022 27.2315 3.40988 26.9C3.29128 26.6763 3.24914 26.4199 3.28988 26.17C3.38867 25.6442 3.45877 25.1135 3.49988 24.58C3.41988 24.43 3.31988 24.28 3.49988 24.16C3.66655 23.7813 3.81342 23.3941 3.93988 23C4.14155 22.5376 4.3152 22.0634 4.45988 21.58C4.52626 21.3507 4.63109 21.1343 4.76988 20.94C4.83782 20.5034 5.02075 20.0926 5.29988 19.75C5.29988 19.25 5.40988 19.31 5.48988 18.87C5.61988 18.78 5.79988 18.77 5.85988 18.58C5.9829 18.1848 6.12984 17.7974 6.29988 17.42C6.45719 17.2285 6.6276 17.048 6.80988 16.88C6.87988 16.62 7.11988 16.55 7.31988 16.43C7.51988 16.31 7.48988 16.2 7.57988 16.09C8.17988 16.4 8.34988 16.69 8.66988 16.73C8.83354 16.7255 8.99654 16.7527 9.14988 16.81C9.43613 17.05 9.78144 17.2088 10.1499 17.27C10.3906 17.5044 10.6919 17.6672 11.0199 17.74C11.3999 17.79 11.6799 18.13 12.0899 18.04C12.7099 18.09 13.2799 18.33 13.8899 18.37C15.5996 18.6264 17.3449 18.5 18.9999 18C19.2399 17.81 19.5799 17.94 19.8499 17.72C20.1199 17.5 20.0799 17.47 20.2399 17.43C20.5974 17.386 20.9398 17.2593 21.2399 17.06C21.5744 17.046 21.8991 16.9424 22.1799 16.76C22.5499 16.52 23.0099 16.47 23.2699 16.06C24.0298 15.6039 24.755 15.0926 25.4399 14.53C25.9899 14.16 26.2799 13.59 26.7899 13.18C27.3285 12.6879 27.7993 12.1263 28.1899 11.51C28.3343 11.2427 28.5016 10.9885 28.6899 10.75C28.7183 10.6589 28.7183 10.5612 28.6899 10.47L28.9099 10.59C29.2599 10.59 29.5999 10.74 29.9099 10.53C30.2199 10.32 30.0599 10.01 29.7999 9.80004C29.5399 9.59004 29.0899 9.47004 28.7999 9.28004C28.5045 9.06836 28.1606 8.93426 27.7999 8.89004C27.6149 8.9252 27.4249 8.9252 27.2399 8.89004C26.8719 8.69175 26.4666 8.57254 26.0499 8.54004C25.7378 8.31942 25.378 8.17552 24.9999 8.12004C23.2141 7.84287 21.404 7.75572 19.5999 7.86004C18.7599 8.14004 17.8599 8.12004 17.0199 8.41004C16.5999 8.62004 16.0799 8.51004 15.7199 8.80004C15.3599 9.09004 15.0499 8.94004 14.7199 9.19004C14.5935 9.32477 14.4446 9.43644 14.2799 9.52004C13.8654 9.5859 13.4718 9.74676 13.1299 9.99004C12.7467 10.0236 12.3784 10.1544 12.0599 10.37C10.4872 11.2673 9.01252 12.3264 7.65988 13.53C7.17988 14.26 6.47988 14.82 5.98988 15.53C5.79988 15.96 5.32988 16.2 5.21988 16.65C5.10988 17.1 4.78988 17.17 4.70988 17.55C4.69204 17.7375 4.64126 17.9203 4.55988 18.09C4.28847 18.4108 4.09661 18.7911 3.99988 19.2C3.71436 19.4757 3.50433 19.82 3.38988 20.2C2.72209 21.8808 2.23274 23.627 1.92988 25.41C1.97988 26.28 1.81988 27.16 1.92988 28.04C2.04988 28.5 1.85988 28.98 2.03988 29.4C2.21988 29.82 2.03988 30.08 2.18988 30.4C2.29588 30.5565 2.37685 30.7286 2.42988 30.91C2.38583 31.3296 2.45129 31.7534 2.61988 32.14C2.58309 32.5217 2.62739 32.9067 2.74988 33.27C2.81718 33.7726 2.99475 34.2541 3.26988 34.68C3.39751 35.1699 3.5821 35.6431 3.81988 36.09C4.62364 38.0732 5.84459 39.8603 7.39988 41.33C7.70988 41.49 7.77988 41.9 8.14988 42.04C8.33016 42.0928 8.49951 42.1775 8.64988 42.29C8.92988 42.6 9.15988 42.98 9.55988 43.13C9.77247 43.4492 10.0481 43.7214 10.3699 43.93C10.7363 44.283 11.1771 44.5495 11.6599 44.71C12.0616 45.014 12.498 45.2691 12.9599 45.47C14.8173 46.5142 16.8768 47.1485 18.9999 47.33C19.3499 47.24 19.6499 47.54 19.9999 47.42C20.1741 47.3459 20.3606 47.3052 20.5499 47.3C20.9504 47.4077 21.3672 47.4416 21.7799 47.4C22.1459 47.5097 22.5311 47.5403 22.9099 47.49C23.4399 47.44 23.9099 47.61 24.4099 47.32C25.0428 47.2542 25.6708 47.1473 26.2899 47C28.2584 46.6097 30.1328 45.8423 31.8099 44.74C32.0299 44.45 32.4299 44.47 32.6699 44.17C32.7999 44.04 32.8699 43.83 33.0299 43.73C33.4018 43.5573 33.7403 43.3203 34.0299 43.03C34.4105 42.9067 34.7543 42.6901 35.0299 42.4C35.3799 42.04 35.8899 41.86 36.0899 41.34C36.8136 40.6142 37.4821 39.8354 38.0899 39.01C38.9951 37.6861 39.7182 36.2466 40.2399 34.73C40.2399 34.38 40.5599 34.14 40.5599 33.73C40.5399 33.5439 40.5399 33.3562 40.5599 33.17C40.7568 32.8065 40.8856 32.41 40.9399 32C41.1409 31.7017 41.2646 31.3581 41.2999 31C41.2999 30.5 41.6299 30 41.4599 29.51C41.5902 28.4654 41.6436 27.4125 41.6199 26.36ZM11.4699 12.49C11.9199 12.3 12.2299 11.93 12.7099 11.81C13.0326 11.5108 13.4298 11.3036 13.8599 11.21C14.1599 10.82 14.2299 10.94 14.5599 10.64C14.7099 10.64 14.8599 10.76 15.0199 10.64C15.3646 10.4074 15.7218 10.1937 16.0899 10C16.3303 9.94606 16.5742 9.9093 16.8199 9.89004C17.0399 9.74004 17.2699 9.83004 17.4999 9.89004C17.7299 9.95004 18.1499 9.73004 18.4999 9.67004C18.7013 9.51268 18.945 9.4187 19.1999 9.40004C19.6099 9.40004 20.1999 9.29004 20.5899 9.30004C20.7899 9.30004 20.8799 9.12004 21.0399 9.09004C21.5699 9.37004 22.0399 9.09004 22.9499 9.42004C23.2545 9.41012 23.5593 9.43022 23.8599 9.48004C23.3904 9.71207 22.9534 10.0046 22.5599 10.35C22.4499 10.49 22.3799 10.68 22.2199 10.77C21.8413 10.9196 21.4873 11.1252 21.1699 11.38C20.7228 11.4632 20.2975 11.6367 19.9199 11.89C19.4802 11.9928 19.0632 12.1759 18.6899 12.43C18.1499 12.59 17.6399 12.75 17.1099 12.86C16.1999 13.02 15.4599 12.97 14.5899 13.11C13.582 13.0238 12.5801 12.8768 11.5899 12.67H11.3499C11.3782 12.603 11.419 12.542 11.4699 12.49ZM8.30988 15C8.61988 14.73 9.00988 14.32 9.30988 14C9.48988 13.91 9.41988 13.68 9.52988 13.56C9.73748 13.5079 9.93172 13.4125 10.0999 13.28L10.5199 13.58C10.7406 13.6409 10.9576 13.7144 11.1699 13.8C11.4877 13.9524 11.8238 14.0633 12.1699 14.13C12.6371 14.419 13.1813 14.5585 13.7299 14.53C14.5899 14.26 15.5299 14.62 16.3899 14.33C16.5199 14.2 16.6399 14.07 16.8299 14.18C17.3158 14.1845 17.8001 14.124 18.2699 14C18.5712 13.9468 18.8685 13.8733 19.1599 13.78C19.6899 13.65 20.1099 13.3 20.6499 13.21C21.0461 12.9192 21.4801 12.6837 21.9399 12.51C22.2199 12.1 22.3799 12.14 22.6599 11.81C22.834 11.8328 23.01 11.7861 23.1499 11.68C23.4799 11.42 24.1499 10.76 24.1499 10.76C24.2727 10.562 24.4243 10.3833 24.5999 10.23C24.7516 10.0465 24.8855 9.84893 24.9999 9.64004C25.3097 9.67122 25.6131 9.74875 25.8999 9.87004C26.1978 9.81999 26.502 9.81999 26.7999 9.87004C26.9199 9.96004 26.9699 10.14 27.1599 10.14C27.3605 10.1831 27.5648 10.2065 27.7699 10.21L27.6299 10.29C27.4999 10.47 27.4699 10.58 27.2799 10.61C27.1364 10.7989 26.9643 10.9642 26.7699 11.1C26.6899 11.32 26.4699 11.35 26.2699 11.43C26.0699 11.51 25.8699 11.84 25.6899 12.07C25.5099 12.3 25.5599 12.51 25.3499 12.62C25.1399 12.73 24.7299 13.19 24.4499 13.41C24.1699 13.63 24.3599 13.71 24.2799 13.81C23.9499 13.81 23.7499 14.06 23.4899 14.22C23.2854 14.3809 23.0454 14.4907 22.7899 14.54C22.7472 14.6078 22.6842 14.6602 22.6099 14.69C22.2299 14.86 21.9899 15.2 21.6099 15.26C21.4299 15.34 21.3199 15.54 21.1299 15.61C20.9399 15.68 20.7799 15.61 20.6499 15.75C20.3999 16.1 20.3199 15.97 20.0499 16.22C19.9299 16.22 19.7999 16.09 19.6599 16.22C19.3585 16.4142 19.0406 16.5816 18.7099 16.72C18.5186 16.7555 18.3244 16.7722 18.1299 16.77C17.9299 16.9 17.7499 16.77 17.5499 16.77C17.274 16.7904 17 16.8305 16.7299 16.89C16.649 16.9629 16.554 17.0183 16.4508 17.0527C16.3475 17.0871 16.2383 17.0998 16.1299 17.09H14.9499C14.7799 17.09 14.6899 17.26 14.5599 17.26C14.0799 16.88 13.9799 17.26 12.9999 16.73C12.9287 16.7552 12.8511 16.7552 12.7799 16.73C12.3899 16.58 11.9799 16.64 11.6499 16.38C11.4699 16.3 11.2399 16.38 11.0599 16.28C10.8799 16.18 10.7999 16.04 10.6299 16.03C10.1999 16.1 10.2499 15.95 9.86988 15.93C9.78988 15.83 9.78988 15.66 9.61988 15.63C9.15883 15.4521 8.71103 15.2416 8.27988 15H8.30988Z" fill="black"/>
<path d="M28.7601 36.5299C28.7082 36.4136 28.6122 36.3228 28.4933 36.2773C28.3744 36.2318 28.2423 36.2354 28.1261 36.2873L28.1001 36.2999C28.0401 36.3599 28.0101 36.4399 27.9201 36.4299C27.7253 36.5579 27.5214 36.6715 27.3101 36.7699C27.1801 36.9299 26.9201 36.9199 26.7801 37.1299C26.6401 37.3399 26.6501 37.4099 26.5201 37.4599C26.2204 37.5109 25.9344 37.6233 25.6801 37.7899C25.3981 37.7708 25.1152 37.8117 24.8501 37.9099C24.5101 38.0399 24.1301 37.9099 23.8501 38.1699C23.1092 38.2553 22.361 38.2553 21.6201 38.1699C21.0755 38.1146 20.5346 38.0277 20.0001 37.9099C19.6201 37.7399 19.2001 37.6999 18.8201 37.5399C18.6395 37.4574 18.4472 37.4034 18.2501 37.3799C18.0364 37.3564 17.8293 37.2919 17.6401 37.1899C17.5501 37.1899 17.5001 37.1899 17.4401 37.0899C17.377 37.0704 17.3105 37.0645 17.245 37.0724C17.1795 37.0804 17.1164 37.102 17.0597 37.136C17.0031 37.1699 16.9543 37.2154 16.9165 37.2695C16.8786 37.3236 16.8526 37.3851 16.8401 37.4499C16.8816 37.7469 17.0268 38.0196 17.2501 38.2199C17.3601 38.2899 17.5101 38.2899 17.6101 38.3799C17.7471 38.4796 17.8907 38.5699 18.0401 38.6499C18.1677 38.768 18.328 38.8447 18.5001 38.8699C18.9201 39.3099 18.8801 39.1999 19.6601 39.3999C20.3501 39.2099 21.0301 39.6999 21.7301 39.5699C21.8501 39.4799 21.9601 39.3599 22.0901 39.5699C22.2201 39.7799 22.6001 39.5699 22.8501 39.6699C23.1001 39.7699 23.2901 39.6699 23.5101 39.7199C23.5488 39.7449 23.594 39.7581 23.6401 39.7581C23.6862 39.7581 23.7313 39.7449 23.7701 39.7199C24.2601 39.7199 24.6901 39.4999 25.1701 39.5199C25.5253 39.3283 25.911 39.1997 26.3101 39.1399C26.6601 38.7299 26.6301 38.9199 26.9401 38.6199C27.0801 38.6199 27.2301 38.7099 27.3601 38.6199C27.6501 38.4099 27.8501 38.0999 28.1101 37.8899C28.2401 37.8899 28.4701 37.5499 28.5701 37.4599C28.6501 37.0999 28.8701 36.8399 28.7601 36.5299Z" fill="black"/>
<path d="M33.68 20.3701L33.09 19.9301C32.9744 19.8236 32.8383 19.7419 32.69 19.6901C32.5199 19.5351 32.3076 19.4341 32.08 19.4001C31.92 19.3401 31.82 19.1801 31.66 19.1101C31.1915 18.9295 30.6801 18.8913 30.19 19.0001C29.38 19.1101 28.37 18.7501 27.71 19.3101C27.07 19.1301 26.4 19.5301 25.76 19.6501C25.3374 19.7716 24.9477 19.9869 24.62 20.2801C24.1461 20.5219 23.73 20.8629 23.4 21.2801C22.77 21.6301 22.84 21.9901 22.52 22.5701C22.52 22.9301 22.11 23.0401 22.18 23.4501C22.2636 23.9241 22.3908 24.3895 22.56 24.8401C22.5782 24.9898 22.6117 25.1372 22.66 25.2801C22.6511 25.4994 22.7105 25.716 22.83 25.9001C22.787 26.2529 22.8761 26.609 23.08 26.9001C23.1673 27.1891 23.3463 27.4419 23.59 27.6201C23.9076 28.1585 24.198 28.7125 24.46 29.2801C24.53 29.5301 24.94 29.4801 24.83 29.7801C24.72 30.0801 25.09 30.5001 25.08 30.8901C25.0498 31.1024 25.0498 31.3178 25.08 31.5301C25.13 31.9701 25.08 32.1801 24.69 32.3601C24.57 32.4801 24.53 32.6901 24.35 32.8101C24.17 32.9301 23.99 32.9101 23.87 33.0401C23.7722 33.2302 23.6033 33.374 23.4 33.4401C23.26 33.7101 23.07 33.4401 22.86 33.5201C22.65 33.6001 21.72 33.9101 21.67 33.9101C21.5308 33.9145 21.392 33.8942 21.26 33.8501C20.93 33.9201 20.59 33.8501 20.33 34.0901C19.81 34.8301 21.79 35.0901 21.79 35.0901H21.86C22.21 35.0101 22.57 35.1701 22.93 34.9701C23.3079 34.75 23.7153 34.585 24.14 34.4801C24.5 34.4801 24.67 34.0601 25.04 34.0301C25.74 33.7101 26.68 32.6301 26.53 31.7801C26.76 29.0601 24.53 27.0101 23.82 24.5501C23.63 24.3101 23.82 23.9901 23.67 23.7001C23.67 23.5701 23.49 23.4801 23.53 23.3401C23.7137 23.0859 23.884 22.8222 24.04 22.5501C24.3405 22.3993 24.6142 22.1999 24.85 21.9601C25.16 21.6501 25.62 21.5501 25.85 21.1701C26.6445 20.7562 27.5161 20.5111 28.41 20.4501C29.0752 20.3894 29.7447 20.3894 30.41 20.4501C31.1033 20.5235 31.7793 20.7128 32.41 21.0101C32.41 21.0101 33.1 21.2401 33.24 21.4501C33.2864 21.5009 33.3439 21.5404 33.408 21.5656C33.4721 21.5907 33.5411 21.6007 33.6097 21.5949C33.6783 21.5891 33.7447 21.5676 33.8037 21.5321C33.8627 21.4966 33.9127 21.448 33.95 21.3901C34.12 21.1301 33.88 20.6801 33.68 20.3701Z" fill="black"/>
<path d="M18.5299 21.5899C18.4599 21.5899 18.3899 21.5899 18.3699 21.4999C18.2112 21.4504 18.0598 21.3798 17.9199 21.2899C17.9199 21.2899 17.5999 21.0199 17.3599 21.0899C17.1199 21.1599 17.1299 21.2099 17.0199 21.1799C16.9089 21.1251 16.7913 21.0848 16.6699 21.0599C16.5599 20.9499 16.4499 21.0599 16.3299 21.0599C16.143 20.9215 15.9114 20.8574 15.6799 20.8799C15.3299 20.9299 15.2099 20.6999 14.8199 20.9599C14.2143 20.9747 13.613 21.0655 13.0299 21.2299C12.5499 21.2899 12.2799 21.6499 11.8399 21.7999C11.5353 21.937 11.2549 22.1227 11.0099 22.3499C10.8768 22.4392 10.767 22.5592 10.6899 22.6999C10.613 22.8546 10.5079 22.9937 10.3799 23.1099C10.3799 23.1899 10.3199 23.2099 10.2699 23.2499C10.2359 23.3655 10.2457 23.4895 10.2973 23.5983C10.349 23.7072 10.4389 23.7932 10.5499 23.8399C10.8199 23.9699 10.9699 23.8399 11.1999 23.8399C11.2599 23.7899 11.2799 23.6999 11.3599 23.6699C11.3931 23.6648 11.4268 23.6648 11.4599 23.6699C11.5499 23.6699 11.5799 23.5799 11.6299 23.5599C11.7292 23.5338 11.8214 23.4859 11.8999 23.4199C11.9899 23.3299 12.0799 23.4199 12.1699 23.4199C12.2599 23.4199 12.2999 23.3199 12.3699 23.2799C12.4399 23.2399 12.5399 23.2199 12.5899 23.1499C12.7099 22.6899 13.3199 22.7999 13.5899 22.5399C13.5899 22.4299 13.5899 22.2799 13.7699 22.4099C13.9499 22.5399 14.0999 22.3599 14.4199 22.4099C14.4675 22.3921 14.5191 22.3883 14.5687 22.3989C14.6183 22.4095 14.6639 22.4342 14.6999 22.4699C14.7799 22.5299 14.7799 22.4099 14.8399 22.4699C15.0999 22.4699 15.3099 22.3499 15.5599 22.4699C15.8099 22.5899 15.7899 22.3699 15.9199 22.3899C16.0499 22.4099 16.1099 22.5299 16.2099 22.4999C16.3099 22.4699 16.3599 22.3699 16.4399 22.3699H16.6799C16.7899 22.3699 16.7499 22.5899 16.8699 22.5599C17.0818 22.4866 17.3083 22.4661 17.5299 22.4999H17.6299C17.6299 22.4999 17.7799 22.5599 17.8499 22.5899C17.9647 22.6075 18.0822 22.5936 18.1896 22.5496C18.2971 22.5055 18.3906 22.433 18.4599 22.3399C18.5192 22.2992 18.5688 22.246 18.6053 22.1841C18.6417 22.1221 18.664 22.0529 18.6707 21.9813C18.6774 21.9097 18.6683 21.8376 18.6439 21.7699C18.6196 21.7023 18.5807 21.6408 18.5299 21.5899Z" fill="black"/>
</svg>
