<svg width="50" height="50" viewBox="0 0 50 50" fill="none" xmlns="http://www.w3.org/2000/svg">
<g clip-path="url(#clip0)">
<path d="M12.9251 39.37C12.9251 39.37 19.4001 34 10.9851 33C12.0451 35.83 12.9251 39.37 12.9251 39.37Z" fill="white"/>
<path d="M23.285 22.3399C23.285 22.3399 30.775 16.5499 21.165 15.9399C22.325 19.4099 23.285 22.3399 23.285 22.3399Z" fill="white"/>
<path d="M33.365 21.05C33.365 21.05 42.285 21.05 36.155 27.32C34.7687 25.4644 33.8154 23.3221 33.365 21.05Z" fill="white"/>
<path d="M9.03522 37.2C9.31522 38.14 10.2852 39.43 11.4152 39.33C11.812 39.263 12.1903 39.1131 12.5252 38.89C12.7033 38.7962 12.8653 38.6747 13.0052 38.53C13.6352 37.79 13.4652 36.37 13.2252 35.53C12.7452 33.88 10.7552 32.69 9.49522 34.28C9.19736 34.6977 9.00075 35.179 8.92091 35.6858C8.84108 36.1926 8.88021 36.711 9.03522 37.2Z" fill="#2BAAAC"/>
<path d="M19.6451 20.07C19.9251 21.01 20.8851 22.31 22.0151 22.2C22.4136 22.1391 22.7931 21.9886 23.1251 21.76C23.3049 21.6689 23.4674 21.547 23.6051 21.4C24.2451 20.67 24.0751 19.25 23.8251 18.4C23.3451 16.75 21.3551 15.55 20.1051 17.15C19.8029 17.5656 19.6037 18.047 19.5237 18.5546C19.4437 19.0622 19.4854 19.5816 19.6451 20.07Z" fill="#82CFD0"/>
<path d="M31.9852 25.22C32.2652 26.16 33.2252 27.45 34.3652 27.35C34.762 27.283 35.1402 27.1331 35.4752 26.91C35.6482 26.813 35.8064 26.6918 35.9452 26.55C36.5852 25.81 36.4152 24.39 36.1652 23.55C35.6952 21.9 33.7052 20.7 32.4452 22.3C32.1473 22.7177 31.9507 23.199 31.8709 23.7057C31.791 24.2125 31.8302 24.7309 31.9852 25.22Z" fill="#2BAAAC"/>
<path d="M46.725 13.89C46.6578 13.6857 46.6142 13.4743 46.595 13.26C46.6097 12.9946 46.5471 12.7307 46.415 12.5C46.325 12.39 46.175 12.3 46.145 12.16C46.0932 11.9404 46.0664 11.7157 46.065 11.49C46.0023 11.4226 45.9568 11.341 45.9324 11.2522C45.908 11.1634 45.9055 11.07 45.925 10.98C45.9287 10.705 45.8633 10.4334 45.735 10.19C45.7534 9.87222 45.6536 9.55883 45.455 9.31005C45.3849 8.85224 45.1952 8.42104 44.905 8.06005C44.455 7.74005 43.775 8.06005 43.305 8.13005C42.7715 8.22437 42.2555 8.39973 41.775 8.65005C40.9853 8.83801 40.21 9.08196 39.455 9.38005C39.2821 9.52253 39.0903 9.64032 38.885 9.73005C38.885 9.82005 38.745 9.80005 38.665 9.82005C38.6129 9.85052 38.5673 9.89098 38.5308 9.93911C38.4943 9.98723 38.4677 10.0421 38.4525 10.1005C38.4372 10.1589 38.4337 10.2198 38.442 10.2796C38.4503 10.3394 38.4704 10.397 38.501 10.449C38.5108 10.467 38.5222 10.4841 38.535 10.5C38.765 10.75 39.045 10.7 39.335 10.74C39.4939 10.679 39.6578 10.6322 39.825 10.6C40.485 10.46 40.205 10.6 40.595 10.43C40.8433 10.5084 41.1123 10.4869 41.345 10.37C41.4596 10.3585 41.5708 10.3242 41.6721 10.2693C41.7734 10.2144 41.8628 10.1398 41.935 10.05C42.335 9.82005 42.935 9.81005 43.345 9.61005C43.2663 9.73195 43.1759 9.84583 43.075 9.95005C42.8338 10.1538 42.6481 10.4153 42.535 10.71C42.5259 10.8794 42.4852 11.0456 42.415 11.2C42.1412 11.4578 41.9263 11.7716 41.785 12.12C41.5055 12.3219 41.2763 12.5854 41.115 12.89C40.895 13.29 40.505 13.56 40.425 14.05C39.905 14.82 39.365 15.55 38.845 16.33C38.395 16.86 38.235 17.53 37.845 18.06C37.4094 18.684 37.0088 19.3317 36.645 20C36.618 20.1749 36.571 20.346 36.505 20.51C36.2131 20.308 35.8576 20.2191 35.505 20.26C34.5389 20.0879 33.5434 20.2841 32.715 20.81C32.242 21.1091 31.8477 21.5172 31.565 22C31.455 22 31.435 21.83 31.245 21.87C31.055 21.91 31.055 21.97 30.995 21.93C30.935 21.89 30.855 21.83 30.775 21.77C30.7107 21.7245 30.6338 21.7001 30.555 21.7C30.475 21.69 30.375 21.38 30.195 21.39C30.1538 21.3906 30.1134 21.3784 30.0794 21.3551C30.0454 21.3319 30.0194 21.2987 30.005 21.26C29.915 21.13 29.755 21.18 29.625 21.18C29.255 21 28.925 20.79 28.535 20.6C28.145 20.41 27.985 20.52 27.695 20.29C27.492 20.1849 27.2771 20.1043 27.055 20.05C26.955 19.96 26.635 19.99 26.595 19.99C26.6799 19.664 26.707 19.3255 26.675 18.99C26.535 18.7 26.735 18.36 26.525 18.05C26.435 17.9 26.275 17.79 26.235 17.63C26.185 17.248 26.0049 16.8948 25.725 16.63C25.6179 16.2857 25.3908 15.9912 25.085 15.8C24.695 15.54 24.355 15.16 23.825 15.21C23.2359 14.9986 22.6035 14.9367 21.9845 15.03C21.3656 15.1232 20.7795 15.3688 20.2789 15.7445C19.7783 16.1202 19.3788 16.6143 19.1163 17.1826C18.8538 17.7508 18.7365 18.3753 18.775 19C18.915 19.3 18.715 19.64 18.925 20C19.015 20.15 19.175 20.26 19.215 20.42C19.2648 20.8022 19.4449 21.1554 19.725 21.42C19.8178 21.6727 19.9607 21.9039 20.145 22.1C20.0552 22.2521 19.9478 22.3931 19.825 22.52C19.5893 22.7186 19.4071 22.973 19.295 23.26C19.292 23.4271 19.2509 23.5912 19.175 23.74C18.9122 23.9973 18.7017 24.3029 18.555 24.64C18.2839 24.8441 18.059 25.1031 17.895 25.4C17.685 25.8 17.295 26.05 17.225 26.54C16.705 27.3 16.225 28.01 15.675 28.78C15.225 29.3 15.075 29.95 14.675 30.47C14.2606 31.0821 13.8801 31.7164 13.535 32.37C13.4484 32.4242 13.3539 32.4647 13.255 32.49C12.3225 32.1784 11.308 32.2212 10.405 32.61C9.73216 32.9478 9.16829 33.4686 8.77823 34.1125C8.38817 34.7564 8.18774 35.4973 8.19999 36.25C8.33999 36.55 8.13999 36.89 8.34999 37.25C8.43999 37.39 8.59999 37.51 8.64999 37.67C8.69021 38.0551 8.87195 38.4114 9.15999 38.67C9.25981 39.0153 9.48434 39.3111 9.78999 39.5C10.19 39.76 10.52 40.1301 11.05 40.09C11.9796 40.4037 12.993 40.3573 13.89 39.96C14.5638 39.623 15.1287 39.1025 15.5196 38.4586C15.9106 37.8146 16.1118 37.0733 16.1 36.32C15.96 36.03 16.17 35.69 15.95 35.38C15.86 35.23 15.71 35.12 15.66 34.96C15.6128 34.5771 15.4323 34.2231 15.15 33.96C15.0427 33.6568 14.8521 33.3899 14.6 33.19C14.8299 32.943 15.022 32.6633 15.17 32.36C15.68 32.03 15.68 31.86 16.01 31.3C16.07 30.54 16.81 30.06 17.01 29.36C17.01 29.2 16.95 29.04 17.15 29C17.47 28.79 17.61 28.37 17.89 28.11C18.1046 27.9606 18.2713 27.7522 18.37 27.51C18.5422 27.091 18.8052 26.7153 19.14 26.41C19.2726 26.0145 19.4951 25.6551 19.79 25.36C19.79 24.89 19.95 24.95 20.05 24.55C20.17 24.47 20.35 24.47 20.4 24.29C20.59 23.95 20.61 23.52 20.83 23.2C20.8867 23.0474 20.957 22.9002 21.04 22.76C21.2157 22.8612 21.418 22.9065 21.62 22.89C22.5494 23.1991 23.5599 23.1564 24.46 22.77C25.2037 22.3801 25.8004 21.7589 26.16 21C26.2022 21.0185 26.2373 21.05 26.26 21.09C26.3532 21.2002 26.4795 21.2773 26.62 21.31C26.67 21.31 26.68 21.47 26.72 21.53C26.76 21.59 26.85 21.53 26.92 21.6C26.9431 21.63 26.9739 21.6533 27.0091 21.6673C27.0442 21.6814 27.0826 21.6858 27.12 21.68C27.2 21.67 27.38 21.54 27.47 21.68C27.6569 21.8164 27.8723 21.9088 28.1 21.95C28.19 21.88 28.28 21.77 28.29 21.95C28.3 22.13 28.5 22.07 28.71 22.29C28.81 22.29 28.83 22.42 28.88 22.47C28.93 22.52 28.97 22.47 29 22.47C29.2078 22.4937 29.398 22.5978 29.53 22.76C29.62 22.82 29.76 22.76 29.85 22.76C29.94 22.76 29.96 22.95 30.05 22.94C30.14 22.93 30.21 22.86 30.27 22.87C30.3399 22.8752 30.4101 22.8752 30.48 22.87C30.58 22.87 30.48 23.09 30.59 23.09H31.08C30.937 23.6104 30.937 24.1597 31.08 24.68C31.26 24.95 31.08 25.32 31.36 25.59C31.64 25.86 31.65 25.81 31.72 25.96C31.8249 26.3267 32.0549 26.6452 32.37 26.86C32.5207 27.1857 32.7885 27.4427 33.12 27.58C33.55 27.78 33.94 28.11 34.45 27.98C35.0623 28.0987 35.6943 28.0646 36.2903 27.8808C36.8862 27.697 37.4277 27.369 37.8667 26.9261C38.3057 26.4831 38.6288 25.9387 38.8072 25.3412C38.9857 24.7436 39.0142 24.1112 38.89 23.5C38.71 23.23 38.89 22.86 38.6 22.59C38.31 22.32 38.32 22.37 38.24 22.22C38.14 21.851 37.9089 21.531 37.59 21.32L37.45 21.1C37.542 20.9308 37.6491 20.7701 37.77 20.62C38.13 20.13 38.15 20.25 38.32 19.86C38.83 19.54 38.85 19.33 39.18 18.79C39.25 18.0201 39.99 17.5201 40.24 16.79C40.24 16.63 40.18 16.47 40.38 16.42C40.7 16.21 40.85 15.78 41.14 15.52C41.3581 15.3658 41.5253 15.1499 41.62 14.9C41.7979 14.4758 42.0637 14.094 42.4 13.78C42.5223 13.411 42.7236 13.0732 42.99 12.79C42.99 12.31 43.15 12.36 43.25 11.96C43.38 11.88 43.56 11.88 43.61 11.7C43.8 11.35 44.14 10.31 44.17 10.26C44.2259 10.4068 44.253 10.563 44.25 10.72C44.25 10.91 44.46 11.05 44.5 11.24C44.507 11.4047 44.5271 11.5686 44.56 11.73C44.91 12.05 44.72 12.03 44.97 12.35C44.97 12.47 44.82 12.59 44.92 12.73C45.04 13.04 45.33 13.29 45.41 13.61C45.41 13.61 45.5 13.67 45.52 13.72C45.5249 13.8406 45.552 13.9593 45.6 14.07C45.8 14.29 45.91 14.56 46.25 14.6C46.3149 14.6058 46.3804 14.5975 46.4418 14.5755C46.5032 14.5536 46.5591 14.5186 46.6056 14.473C46.6522 14.4274 46.6884 14.3722 46.7115 14.3113C46.7347 14.2503 46.7444 14.1851 46.74 14.12C46.75 14 46.69 14 46.73 13.89H46.725ZM14.8 36.15C14.74 36.24 14.8 36.35 14.8 36.42C14.7209 36.5266 14.682 36.6576 14.69 36.79C14.54 36.97 14.38 36.99 14.34 37.28C14.2801 37.3481 14.2343 37.4273 14.2051 37.5131C14.1759 37.5989 14.164 37.6896 14.17 37.78C13.98 38.19 13.45 38.33 13.12 38.59C13.07 38.71 13.03 38.87 12.88 38.74C12.73 38.6101 12.39 38.81 12.07 38.69C11.9491 38.6751 11.8348 38.6266 11.74 38.55C11.64 38.49 11.63 38.55 11.58 38.55C11.29 38.41 10.98 38.43 10.81 38.14C10.71 38.04 10.51 38.05 10.41 37.93C10.31 37.81 10.34 37.67 10.24 37.59C9.85999 37.48 10.03 37.42 9.76999 37.22C9.76999 37.13 9.91999 37.01 9.76999 36.91C9.66688 36.814 9.58443 36.698 9.52769 36.5691C9.47095 36.4401 9.44111 36.3009 9.43999 36.16C9.50999 36.07 9.43999 35.97 9.43999 35.9C9.51657 35.7885 9.55515 35.6552 9.54999 35.52C9.69999 35.35 9.84999 35.32 9.88999 35.04C10.0134 34.9035 10.078 34.7239 10.07 34.54C10.25 34.12 10.78 33.99 11.07 33.73C11.07 33.6 11.15 33.45 11.3 33.57C11.45 33.69 11.79 33.51 12.11 33.63C12.2305 33.6396 12.3454 33.6849 12.44 33.76C12.4666 33.7476 12.4956 33.7411 12.525 33.7411C12.5544 33.7411 12.5834 33.7476 12.61 33.76C12.89 33.89 13.21 33.88 13.37 34.17C13.48 34.27 13.67 34.26 13.77 34.37C13.87 34.48 13.85 34.64 13.95 34.71C14.32 34.83 14.15 34.88 14.41 35.08C14.41 35.18 14.26 35.29 14.41 35.4C14.6332 35.5893 14.7733 35.8586 14.8 36.15ZM25.4 19C25.33 19.1 25.4 19.2 25.4 19.27C25.3209 19.3766 25.282 19.5076 25.29 19.64C25.13 19.82 24.98 19.85 24.94 20.13C24.8166 20.2666 24.7519 20.4462 24.76 20.63C24.58 21.04 24.05 21.18 23.76 21.44C23.71 21.56 23.67 21.72 23.52 21.6C23.37 21.48 23.03 21.66 22.71 21.54C22.5911 21.5241 22.4778 21.4795 22.38 21.41C22.3532 21.4219 22.3243 21.428 22.295 21.428C22.2657 21.428 22.2368 21.4219 22.21 21.41C21.93 21.27 21.62 21.29 21.45 21C21.35 20.9 21.15 20.91 21.05 20.79C20.95 20.67 20.97 20.53 20.87 20.46C20.5 20.34 20.67 20.29 20.41 20.08C20.41 19.99 20.56 19.88 20.41 19.77C20.2038 19.5735 20.0819 19.3046 20.07 19.02C20.14 18.93 20.07 18.83 20.07 18.76C20.149 18.6535 20.188 18.5225 20.18 18.39C20.34 18.21 20.49 18.18 20.53 17.9C20.6534 17.7635 20.718 17.5839 20.71 17.4C20.89 16.99 21.42 16.85 21.71 16.59C21.71 16.47 21.8 16.31 21.95 16.43C22.1 16.55 22.44 16.37 22.76 16.49C22.8789 16.506 22.9922 16.5506 23.09 16.62C23.1168 16.6082 23.1457 16.6021 23.175 16.6021C23.2043 16.6021 23.2332 16.6082 23.26 16.62C23.54 16.76 23.85 16.74 24.02 17.03C24.12 17.13 24.32 17.12 24.42 17.24C24.52 17.36 24.5 17.5 24.59 17.57C24.97 17.69 24.8 17.74 25.06 17.95C25.06 18.04 24.91 18.15 25.01 18.26C25.1955 18.4656 25.311 18.7247 25.34 19H25.4ZM37.58 24C37.5282 24.116 37.5108 24.2445 37.53 24.37C37.41 24.56 37.26 24.61 37.27 24.9C37.2172 24.9746 37.1809 25.0595 37.1637 25.1492C37.1464 25.2389 37.1486 25.3313 37.17 25.42C37.05 25.86 36.54 26.07 36.25 26.42C36.25 26.55 36.25 26.7 36.04 26.61C35.83 26.52 35.58 26.74 35.23 26.67C35.1698 26.6893 35.1056 26.6921 35.044 26.678C34.9824 26.6639 34.9258 26.6336 34.88 26.59C34.8551 26.6024 34.8277 26.6088 34.8 26.6088C34.7722 26.6088 34.7449 26.6024 34.72 26.59C34.42 26.5 34.11 26.59 33.9 26.3C33.78 26.21 33.59 26.25 33.47 26.15C33.35 26.05 33.36 25.9 33.25 25.84C32.87 25.79 33.02 25.71 32.74 25.55C32.74 25.45 32.86 25.32 32.74 25.23C32.5803 25.0017 32.4334 24.7647 32.3 24.52V24.27C32.34 24.1465 32.34 24.0136 32.3 23.89C32.42 23.69 32.57 23.64 32.57 23.35C32.6682 23.1957 32.7039 23.0098 32.67 22.83C32.79 22.4 33.29 22.18 33.58 21.88C33.58 21.75 33.58 21.59 33.79 21.69C34 21.79 34.25 21.55 34.6 21.62C34.6608 21.6001 34.7261 21.598 34.7881 21.614C34.8501 21.6299 34.9063 21.6633 34.95 21.71C34.9759 21.6953 35.0052 21.6876 35.035 21.6876C35.0648 21.6876 35.0941 21.6953 35.12 21.71C35.41 21.8 35.72 21.71 35.93 22C36.05 22.08 36.24 22 36.36 22.14C36.48 22.28 36.47 22.39 36.58 22.45C36.97 22.51 36.81 22.59 37.1 22.75C37.1 22.84 36.98 22.98 37.1 23.07C37.3061 23.3532 37.4664 23.6671 37.575 24H37.58Z" fill="black"/>
<path d="M46.285 43.72C45.9101 43.7234 45.5356 43.6966 45.165 43.64C44.8361 43.563 44.4939 43.563 44.165 43.64C44.0054 43.7201 43.8326 43.7709 43.655 43.79C43.2591 43.709 42.8509 43.709 42.455 43.79C42.107 43.6611 41.7349 43.6099 41.365 43.64C40.8854 43.555 40.3946 43.555 39.915 43.64C38.915 43.64 37.915 43.54 36.915 43.53C36.175 43.43 35.475 43.65 34.745 43.53C33.939 43.485 33.1311 43.485 32.325 43.53C32.005 43.66 31.675 43.43 31.325 43.53C31.1618 43.6102 30.9858 43.661 30.805 43.68C30.4091 43.599 30.0009 43.599 29.605 43.68C29.2572 43.5502 28.885 43.4989 28.515 43.53C28.0388 43.4451 27.5513 43.4451 27.075 43.53C26.075 43.53 25.075 43.43 24.075 43.42C23.335 43.32 22.635 43.54 21.905 43.42C21.0956 43.375 20.2844 43.375 19.475 43.42C19.155 43.55 18.835 43.32 18.475 43.42C18.3112 43.4986 18.1355 43.5493 17.955 43.57C17.5591 43.489 17.1509 43.489 16.755 43.57C16.4072 43.4402 16.035 43.3889 15.665 43.42C15.1888 43.3351 14.7013 43.3351 14.225 43.42C13.225 43.42 12.225 43.32 11.225 43.31C10.485 43.21 9.78502 43.43 9.05502 43.31C8.24565 43.265 7.43439 43.265 6.62502 43.31C6.30502 43.44 5.98502 43.21 5.62502 43.31C5.46123 43.3886 5.28549 43.4393 5.10502 43.46L4.67502 43.4C4.67502 43.4 4.46502 43.31 4.58502 43.2C4.70502 43.09 4.58502 42.59 4.58502 42.38C4.80502 41.64 4.43502 40.86 4.58502 40.11C4.66002 38.9846 4.66002 37.8554 4.58502 36.73C4.64002 35.6941 4.64002 34.656 4.58502 33.62C4.45502 33.3 4.68502 32.98 4.58502 32.62C4.50304 32.4568 4.44896 32.2811 4.42502 32.1C4.50002 31.7035 4.50002 31.2965 4.42502 30.9C4.54998 30.551 4.60106 30.1798 4.57502 29.81C4.65502 29.3334 4.65502 28.8467 4.57502 28.37C4.57502 27.37 4.67502 26.37 4.69502 25.37C4.78502 24.63 4.57502 23.94 4.69502 23.2C4.75502 22.3945 4.75502 21.5856 4.69502 20.78C4.56502 20.46 4.79502 20.14 4.69502 19.78C4.61304 19.6168 4.55896 19.4411 4.53502 19.26C4.61002 18.8635 4.61002 18.4565 4.53502 18.06C4.65998 17.711 4.71106 17.3398 4.68502 16.97C4.76508 16.4934 4.76508 16.0067 4.68502 15.53C4.68502 14.53 4.78502 13.53 4.80502 12.53C4.89502 11.79 4.68502 11.1 4.80502 10.36C4.86502 9.55448 4.86502 8.74558 4.80502 7.94003C4.70603 7.57319 4.63912 7.19845 4.60502 6.82003C4.52502 6.50003 4.33502 6.27003 3.99502 6.41003C3.65502 6.55003 3.65502 6.98003 3.53502 7.30003C3.55402 7.51294 3.55402 7.72712 3.53502 7.94003C3.47108 8.26927 3.45091 8.60551 3.47502 8.94003C3.2893 9.40655 3.23736 9.91561 3.32502 10.41C3.67502 11.16 3.32502 12.02 3.48502 12.81C3.58502 12.95 3.70502 13.08 3.55502 13.23C3.46908 13.645 3.4189 14.0665 3.40502 14.49C3.40502 14.83 3.27502 14.94 3.32502 15.33C3.34173 15.8178 3.31832 16.3061 3.25502 16.79C3.35002 17.235 3.35002 17.695 3.25502 18.14C3.46502 18.56 3.34502 18.65 3.47502 19.05C3.40502 19.19 3.25502 19.3 3.30502 19.49C3.40178 19.9056 3.47523 20.3263 3.52502 20.75C3.46108 21.0793 3.44091 21.4155 3.46502 21.75C3.28002 22.2167 3.2281 22.7256 3.31502 23.22C3.66502 23.97 3.31502 24.83 3.47502 25.63C3.57502 25.76 3.69502 25.89 3.54502 26.04C3.46076 26.4551 3.41225 26.8767 3.40002 27.3C3.40002 27.64 3.27002 27.75 3.32002 28.14C3.33114 28.7641 3.27583 29.3876 3.15502 30C3.25002 30.445 3.25002 30.905 3.15502 31.35C3.36502 31.77 3.24502 31.86 3.37502 32.26C3.30502 32.41 3.15502 32.51 3.20502 32.71C3.30282 33.122 3.37628 33.5394 3.42502 33.96C3.36108 34.2893 3.34091 34.6255 3.36502 34.96C3.36502 35.12 3.23502 35.24 3.19502 35.39C3.14564 35.8449 3.19336 36.305 3.33502 36.74C3.38503 37.369 3.38503 38.001 3.33502 38.63C3.33502 38.88 3.67502 39.03 3.44502 39.26C3.25502 39.82 3.44502 40.5 3.19502 41.07C3.24391 41.6501 3.22714 42.2338 3.14502 42.81C3.29502 43.49 3.14502 44.34 3.52502 44.7C3.74096 44.8334 3.98241 44.9201 4.23386 44.9545C4.4853 44.9889 4.74117 44.9704 4.98502 44.9C5.12502 44.97 5.23502 45.11 5.43502 45.06C5.85502 45.06 6.26502 44.83 6.68502 44.84C7.01544 44.894 7.35051 44.9141 7.68502 44.9C8.15263 45.0818 8.6615 45.1303 9.15502 45.04C9.90502 44.69 10.775 45.04 11.565 44.89C11.695 44.78 11.825 44.66 11.975 44.81C12.39 44.8959 12.8115 44.9461 13.235 44.96C13.575 44.96 13.685 45.09 14.075 45.05C14.5625 45.025 15.0512 45.0451 15.535 45.11C15.9844 45.025 16.4457 45.025 16.895 45.11C17.315 44.91 17.405 45.02 17.795 44.9C17.945 44.97 18.045 45.11 18.245 45.06C18.665 45.06 19.085 44.83 19.495 44.84C19.8254 44.894 20.1605 44.9141 20.495 44.9C20.9626 45.0818 21.4715 45.1303 21.965 45.04C22.715 44.69 23.585 45.04 24.375 44.89C24.505 44.78 24.635 44.66 24.795 44.81C25.2066 44.8959 25.6248 44.9461 26.045 44.96C26.385 44.96 26.495 45.09 26.885 45.05C27.3758 45.025 27.8679 45.0451 28.355 45.11C28.801 45.025 29.259 45.025 29.705 45.11C30.125 44.91 30.215 45.02 30.605 44.9C30.755 44.97 30.855 45.11 31.055 45.06C31.475 45.06 31.895 44.83 32.315 44.84C32.6453 44.895 32.9805 44.9151 33.315 44.9C33.7827 45.0813 34.2915 45.1298 34.785 45.04C35.535 44.69 36.405 45.04 37.195 44.89C37.325 44.78 37.455 44.66 37.615 44.81C38.0298 44.8969 38.4514 44.9471 38.875 44.96C39.215 44.96 39.315 45.09 39.705 45.05C40.1958 45.025 40.6879 45.0451 41.175 45.11C41.621 45.025 42.079 45.025 42.525 45.11C42.945 44.91 43.035 45.02 43.425 44.9C43.575 44.97 43.685 45.11 43.875 45.06C44.295 45.06 44.715 44.83 45.135 44.84C45.3464 44.8039 45.5606 44.7872 45.775 44.79C46.095 44.67 46.475 44.66 46.665 44.33C46.855 44 46.605 43.81 46.285 43.72Z" fill="black"/>
</g>
<defs>
<clipPath id="clip0">
<rect width="50" height="50" fill="white"/>
</clipPath>
</defs>
</svg>
