<svg width="50" height="50" viewBox="0 0 50 50" fill="none" xmlns="http://www.w3.org/2000/svg">
<path d="M24.9849 49.1267C38.3178 49.1267 49.1263 38.3182 49.1263 24.9853C49.1263 11.6523 38.3178 0.843872 24.9849 0.843872C11.652 0.843872 0.843506 11.6523 0.843506 24.9853C0.843506 38.3182 11.652 49.1267 24.9849 49.1267Z" fill="white"/>
<path d="M43.4223 30.3494C43.2827 32.3395 42.9356 34.2834 42.3854 36.1206C40.4648 42.5457 36.0761 47.6288 29.7469 48.8583C19.5265 50.8318 6.34243 45.3076 2.09211 32.6763C-1.70232 21.3568 4.07468 9.77062 11.6644 4.62084C12.5083 4.03152 13.3884 3.5446 14.2653 3.12945C14.3005 3.12519 14.3446 3.09606 14.378 3.08011C15.799 2.44475 17.2595 2.04198 18.7444 1.8385C23.5534 1.20928 28.5112 2.89132 32.7282 6.11302C35.19 7.9903 37.3845 10.4109 39.1488 13.2046C39.6929 14.0658 40.1943 14.9677 40.6412 15.9121C41.1756 16.9884 41.6323 18.1098 42.0214 19.2632C43.2466 22.9067 43.6838 26.7167 43.4223 30.3494Z" fill="#B8E4E5"/>
<path d="M43.4224 30.3494C43.2828 32.3395 42.9356 34.2833 42.3855 36.1206C42.2779 35.9197 42.1177 35.7728 41.7059 35.5136C41.4212 35.322 40.8791 35.067 40.4847 34.8533C39.1721 34.1207 37.9477 33.2346 37.3238 31.8125C36.7493 30.5034 36.8823 29.0492 36.3532 27.7224C36.094 27.0524 35.9052 26.3742 35.7028 25.6854C35.6854 25.6399 35.645 25.5023 35.5914 25.3541C34.3621 25.3128 33.264 24.2928 33.1605 23.1406C31.9218 22.8268 30.9658 21.8015 31.2573 20.2805C31.3934 19.5392 31.9048 18.6572 32.6988 18.4422C33.0329 18.3542 33.3787 18.2647 33.7125 18.1767C34.0803 18.073 34.4449 18.0405 34.8049 18.0683C35.1654 17.906 35.5262 17.7434 35.8883 17.5925C36.7503 17.2506 37.6399 16.9409 38.531 16.6431C39.2387 16.4028 39.9481 16.1744 40.6412 15.9121C41.1757 16.9884 41.6323 18.1098 42.0214 19.2632C43.2467 22.9067 43.6839 26.7167 43.4224 30.3494Z" fill="#088080"/>
<path d="M37.0865 43.0198C36.3136 43.3994 34.5765 42.4062 33.8048 42.1461C32.8389 41.8207 31.9325 41.3617 30.9929 40.9731C29.0967 40.1895 27.0622 39.6786 25.0168 39.5091C22.9604 39.3389 20.8756 39.4455 18.862 39.9057C17.7794 40.1533 16.6766 40.442 15.6767 40.9341C14.74 41.3951 13.96 42.1288 12.9982 42.5275C12.3347 42.8028 12.0152 43.3182 11.9531 43.8672C11.6329 44.8275 12.0171 46.0004 13.3059 46.1093C13.6472 46.138 13.9827 46.1917 14.3195 46.2389C14.4399 46.3772 14.5772 46.4976 14.7372 46.5998C14.9647 47.4242 15.6546 48.1236 16.6138 47.9092C17.7844 47.6474 18.9147 48.0559 20.0882 48.1211C20.4131 48.1389 20.7378 48.1298 21.0621 48.1092C21.3827 48.3779 22.0449 49.0435 22.5797 48.9263C23.5615 48.7114 24.3285 48.5157 25.328 48.4452C26.3932 48.3706 27.6729 48.5773 28.7456 48.5072C30.9279 48.3648 32.6518 47.7499 34.5923 46.6347C34.8171 46.5051 34.9642 46.3155 35.0772 46.1074C35.8567 46.1973 36.6321 46.1613 37.3563 45.8923C37.3722 45.8866 37.3869 45.8857 37.4029 45.8794C37.5053 45.8403 37.6073 45.801 37.7096 45.7616C39.7357 44.7666 39.2371 42.1931 37.0865 43.0198Z" fill="#088080"/>
<path d="M29.4588 9.28867C28.9193 8.70744 28.1644 8.34408 27.3304 8.11651C27.1621 7.54114 26.7308 7.04112 25.9848 6.88618C25.0555 6.69279 24.1458 6.84175 23.3574 7.25431C21.3217 7.67012 19.3899 8.56227 17.3131 8.72769C16.1494 8.82034 15.203 8.40878 14.148 7.98509C13.6292 7.77684 13.1038 7.59115 12.5606 7.45638C12.2312 7.37464 11.8157 7.37733 11.463 7.29755C10.7268 6.64261 9.51935 6.50319 8.88668 7.44971C8.56577 7.9296 8.24516 8.40947 7.92451 8.88905C7.70968 8.99136 7.51302 9.13588 7.35625 9.33911C7.2281 9.50551 7.1129 9.68049 6.99009 9.85032C6.37708 9.85137 5.74458 10.1542 5.34988 10.8445C4.43388 12.4471 3.06016 13.5441 2.66525 15.3237C2.23498 15.5832 2.68463 16.6217 2.54556 17.1414C2.06311 18.9481 1.8226 20.7999 1.80454 22.6554C1.68818 22.7873 1.58205 22.9342 1.50577 23.1143C0.64571 25.1385 1.18164 27.6203 1.72242 29.6673C2.14502 31.2653 2.77887 32.7698 3.57713 34.1963C3.55278 34.2733 3.52692 34.3498 3.5144 34.4285C3.4687 34.7175 3.42304 35.0069 3.37706 35.2959C3.28249 35.8932 3.51903 36.4212 3.90797 36.7914C3.17856 38.5476 5.67506 40.3374 6.90134 38.5962C7.22523 38.1363 8.23546 38.0581 8.74761 37.8038C9.59701 37.3821 9.96318 36.7487 10.568 36.0804C11.2214 35.358 12.1127 34.906 12.7474 34.1397C13.3271 33.4405 13.7627 32.5996 14.0916 31.7569C14.8653 29.7739 15.3336 27.6373 15.9179 25.5928C16.4317 23.7936 16.7146 21.5726 18.1935 20.2811C19.5065 19.1344 21.2544 18.6014 22.7891 17.8284C24.6561 16.8881 26.3766 15.7086 27.8871 14.2613C29.2 13.0035 31.1459 11.1065 29.4588 9.28867Z" fill="#088080"/>
<path d="M45.7892 12.5869C45.5245 12.5201 45.4697 12.6344 45.3016 12.7129C45.1395 12.7905 45.0011 12.8547 44.8494 12.9578C44.797 12.9958 44.7751 13.0606 44.7466 13.1195C44.7085 13.1983 44.6343 13.2396 44.5797 13.3022C44.5399 13.341 44.3937 13.276 44.3599 13.3167L45.4134 14.3734C45.5697 14.1767 45.6474 13.9119 45.85 13.7312C45.8865 13.6969 45.9251 13.6614 45.9405 13.6142C45.9449 13.5924 45.9519 13.5578 45.9563 13.5363C45.9771 13.4508 46.0644 13.4056 46.1134 13.334C46.1718 13.2489 46.1691 13.1366 46.1627 13.0338C46.1558 12.9223 46.1716 12.8274 46.0987 12.7411C46.0182 12.6464 45.8823 12.6483 45.7892 12.5869Z" fill="black"/>
<path d="M50 23.8747C49.8919 23.4852 50.0047 23.0448 49.8741 22.6505C49.8471 21.9072 49.8895 21.5922 49.6109 20.8657C49.5767 20.6141 49.6682 20.3395 49.5767 20.0993C49.3932 19.8386 49.2978 19.5757 49.2336 19.2756C49.0648 19.124 49.0824 19.0018 49.1764 18.8178C49.1855 18.1863 48.5784 17.6871 48.4785 17.0906C48.4899 16.9188 48.3526 16.7473 48.3183 16.6213C48.3176 16.3746 48.2276 16.1488 48.1008 15.9348C48.0878 15.5337 48.0916 15.1405 47.8377 14.8025C47.7375 14.4548 47.5543 14.1567 47.2543 13.9445C46.9249 13.5708 46.8646 13.0868 46.6021 12.6744C46.3476 12.206 46.1269 11.7776 45.664 11.5648C45.5745 10.7571 44.8524 10.1354 44.5544 9.39084C43.8818 8.61851 43.3116 7.76678 42.495 7.17148C42.2305 6.69874 42.0195 6.51586 41.5111 6.35934C41.3872 6.19292 41.1761 6.12632 41.0192 6.02748C40.8504 5.26597 39.876 5.22434 39.3375 4.81463C39.246 4.6546 39.0515 4.59734 38.9485 4.506C38.6313 4.12818 38.2953 4.08181 38.0333 3.61326C37.663 3.40465 37.2861 3.20246 36.9121 3.00715C36.266 2.99383 35.8199 2.53961 35.2189 2.34357C35.0644 2.31625 34.3404 1.88053 34.1779 1.92018C33.9788 1.95655 33.7955 2.02752 33.6744 1.80587C33.1606 1.42111 32.3893 1.32625 31.8439 0.95927C31.1587 0.592075 30.283 0.683439 29.5787 0.318544C28.7232 0.24791 28.9007 0.354959 27.9427 0.0896531C27.6435 0.176647 27.3562 0.203223 27.0503 0.158445C26.8818 0.241915 26.7257 0.194117 26.6042 0.0554233C26.0052 -0.146879 25.3363 0.274109 24.7394 0.215785V0.204058C24.5677 0.135633 24.3733 0.192881 24.2474 0.192881C23.9957 0.116596 23.7685 0.141456 23.5152 0.19295C23.1321 0.08248 22.7675 -0.0169038 22.3597 0.10138C21.9991 0.0941722 21.651 0.147062 21.3644 0.387335C20.4749 0.705897 19.2758 0.454709 18.6073 1.17661C18.1734 1.06582 17.7696 1.24667 17.3259 1.33701C16.5541 1.45923 15.7757 1.66816 15.0721 2.03458C14.4673 2.23077 13.9502 2.44421 13.4591 2.83557C12.9873 2.9317 12.6445 3.11447 12.3608 3.49916C12.031 3.61234 12.013 3.9858 11.64 3.87668C11.0552 4.07434 10.7107 4.74975 10.2213 5.08916V5.07798C9.82836 5.36684 9.53692 5.46988 9.22601 5.78712C9.06585 5.90139 8.85993 5.89022 8.68829 5.9701C8.26006 6.31987 7.79606 6.68586 7.59001 7.21718C7.14227 7.77504 6.45218 8.28683 6.03419 8.89904C5.83098 9.05058 5.93041 9.30435 5.8282 9.47099C5.25698 9.67503 4.99412 10.2809 4.58114 10.6952C4.19264 11.2027 3.6771 11.6055 3.47144 12.251C3.14895 12.8019 2.79523 13.1932 2.61354 13.83C2.31636 14.1898 2.16941 14.5704 2.16732 15.0312C1.94962 15.3472 2.14787 15.5904 1.77826 15.7518C1.35792 16.2306 1.6063 17.0189 1.3664 17.5709L1.35495 17.5595C1.17404 18.0009 1.18272 18.0099 0.977286 18.406C1.01284 18.7412 0.805724 18.9313 0.63415 19.184C0.547099 19.5994 0.447464 20.0185 0.38239 20.4311C0.405008 20.745 0.54385 21.0616 0.416792 21.369C0.277538 21.8511 0.258249 22.6025 0.165066 23.108C0.105095 23.3552 0.339568 23.4875 0.359692 23.6915C0.106502 24.0702 0.173761 24.5161 0.119441 24.9615C-0.00486008 25.7545 -0.0615935 26.5292 0.0964229 27.3297C0.188016 27.6613 0.0621815 27.9018 0.0964688 28.2333C0.345563 28.9845 0.351684 29.111 0.39375 29.8695C0.573801 30.1257 0.654308 30.394 0.737046 30.6932C0.884354 30.8382 0.896115 30.9803 0.782888 31.1507C0.780383 31.7939 1.38751 32.2962 1.49221 32.9011C1.64788 33.3668 1.65423 33.6551 1.86976 34.0452C1.85842 34.7563 2.13277 35.5499 2.70492 36.0358C3.29144 36.7863 3.41913 37.9759 4.30667 38.4155C4.36296 38.9834 4.78384 39.4685 5.07308 39.9716C5.52485 40.8219 6.19873 41.4696 6.77783 42.225C6.96076 42.4655 7.28113 42.5683 7.47559 42.7971C7.7267 43.2526 7.96111 43.4628 8.45953 43.6094C8.64188 43.8757 9.03056 43.829 9.03146 44.193C9.38309 44.735 10.1545 44.794 10.6332 45.1539L10.6217 45.1653C10.8892 45.3874 11.0872 45.5293 11.3195 45.7718C11.6376 45.8505 11.7449 46.1485 11.9374 46.3552C12.3066 46.5648 12.6876 46.7841 13.0585 46.9616C13.3736 47.0138 13.6894 47.0237 13.9509 47.2476C14.3508 47.5219 15.096 47.7632 15.541 47.9911C15.7305 48.1328 15.9533 47.9689 16.1361 48.0254C16.4348 48.3586 16.854 48.4433 17.2802 48.6088C17.5488 48.8066 17.8635 48.8042 18.1267 49.0094C18.2296 49.1038 18.3234 49.1647 18.4699 49.1351C19.1091 49.3836 19.7743 49.3398 20.3805 49.6502C20.678 49.7644 20.9983 49.6273 21.2957 49.6843C21.5474 49.7301 21.7762 49.9018 22.0279 49.8789C22.332 49.797 22.6103 49.7538 22.9203 49.8218C23.1004 49.7325 23.2429 49.7809 23.3665 49.9248C23.975 50.1028 24.6224 49.7048 25.2313 49.7645C25.4028 49.8446 25.5974 49.7873 25.7232 49.7873C25.9655 49.8447 26.2046 49.8301 26.4554 49.7758C26.839 49.8851 27.2028 49.9865 27.6109 49.8674C27.9781 49.8965 28.3095 49.8063 28.6062 49.5929C29.482 49.2497 30.692 49.5176 31.3633 48.7921C31.9375 48.9186 32.3839 48.6823 33.0909 48.552C34.0284 48.3779 34.8539 47.9233 35.7565 47.6366C36.3795 47.1921 36.5477 47.1361 37.2324 46.8701C37.4721 46.5518 37.8155 46.3815 38.0561 46.0921C38.8196 46.1618 39.1778 45.2398 39.7493 44.8908C40.113 44.6287 40.4399 44.5024 40.7446 44.1816C41.1273 44.0482 41.502 43.9456 41.7399 43.5751C42.2271 43.2854 42.2911 42.6692 42.7352 42.3509C43.1836 42.0506 43.5771 41.4654 43.9365 41.0698C44.1279 40.9166 44.0466 40.6702 44.1424 40.4977C44.7053 40.3093 44.9789 39.6962 45.3781 39.285C45.5937 38.9345 45.8352 38.8799 46.0415 38.4956C46.4615 38.0357 46.5567 37.4108 47.0026 36.9741C47.1742 36.7223 47.1856 36.3905 47.3572 36.1389C47.663 35.7596 47.79 35.4241 47.8032 34.9375C47.9124 34.7719 47.9395 34.5622 47.9749 34.377C48.1267 34.2407 48.3176 34.1754 48.3639 33.9423C48.483 33.0952 48.548 32.2632 48.9934 31.5627C48.9963 31.0202 49.482 30.7673 49.4507 30.1784C49.7043 29.6571 49.4295 29.1262 49.5423 28.5995C49.716 28.0688 49.6978 27.4006 49.8056 26.8604C49.8585 26.6211 49.6331 26.4751 49.611 26.277C49.976 25.5746 49.7954 24.6441 50 23.8747ZM6.58329 38.3583C6.37943 38.3504 6.2127 38.4958 6.057 38.5871C4.98596 36.6374 3.66858 34.8373 3.07106 32.6724C2.60472 32.1903 2.83056 31.8511 2.53338 31.3225C2.3416 31.0839 2.14678 30.8467 2.1787 30.5214C2.05897 30.1491 2.13954 29.7771 1.94979 29.4347C2.01608 28.9093 2.01138 28.3997 1.82391 27.8904C1.9779 27.3587 1.77079 26.8779 1.69805 26.3572C1.67765 25.714 1.6821 25.0939 1.7325 24.4582C1.90979 22.1552 2.11861 20.1984 2.76228 18.0056C2.72655 17.6006 3.09121 17.3479 3.08249 16.9074C2.96203 16.4312 3.27833 16.0641 3.48291 15.6605C3.65875 15.5035 3.67523 15.2666 3.72312 15.0538C3.97218 14.7103 4.29421 14.4265 4.4439 14.0129C4.71448 13.4505 5.08253 13.2534 5.22173 12.5484C6.68888 10.5798 8.27963 8.66312 10.1527 7.05723C10.4874 7.25071 10.7598 7.17899 11.1023 7.22863C11.284 7.3515 11.5249 7.34142 11.7315 7.38878C11.9261 7.52463 12.1149 7.55341 12.3493 7.59485C12.6388 7.82573 12.8961 8.02826 13.2989 8.07522C13.5969 8.20873 13.9042 8.31629 14.2484 8.25822C15.0729 8.42849 15.8123 8.94543 16.6852 8.99057C16.8888 8.91575 17.0555 8.77079 17.2459 8.97922C17.8705 9.26805 18.6805 9.06092 19.3509 9.1278C19.817 9.1376 20.3279 9.02399 20.7695 8.86471C21.4431 8.70089 21.7755 8.74626 22.4283 8.39552C22.6687 8.34988 22.9203 8.43004 23.1377 8.31552C23.3554 8.13733 23.6001 8.02476 23.8699 7.98381C24.0063 7.86304 24.1354 7.83908 24.2817 7.98379C24.8089 8.08036 25.3146 7.59168 25.8605 7.70919C25.9978 7.77785 26.1695 7.7435 26.2724 7.77785C26.4643 7.89069 26.6517 7.94294 26.8673 7.96075C27.1361 8.16117 27.322 8.3974 27.7025 8.46431C27.9526 8.61733 28.1748 8.73795 28.4918 8.76153C28.8634 8.83513 29.0969 9.35214 29.3042 9.52826C29.4878 9.76063 29.5494 10.0318 29.7045 10.2604C29.8373 10.3391 30.0278 10.4417 29.8647 10.6037C29.7225 10.9903 29.8087 11.3492 29.5671 11.7248C29.5757 11.9781 29.2436 12.0646 29.2355 12.2968C28.9482 12.7228 28.6946 13.2224 28.2058 13.4523C28.0113 13.6012 27.9083 13.8643 27.6796 14.0129C27.4965 14.1274 27.2334 14.1503 27.0732 14.3104C26.9186 14.5583 26.7396 14.7409 26.4782 14.8709C26.3865 15.0501 26.2657 15.0857 26.0779 15.0198C25.494 15.1599 25.1941 15.8247 24.6478 16.0608C24.2569 16.2446 23.9177 16.3207 23.5839 16.5755C23.2066 16.6213 22.8441 16.6877 22.5428 16.9647C22.2176 17.1056 21.9421 17.2894 21.7535 17.594C21.1581 18.1253 20.2439 18.4398 19.6941 19.0469C19.648 19.2452 19.6099 19.4413 19.3508 19.4242C18.7478 19.6611 18.2615 20.3241 17.7263 20.7286C17.3789 21.0455 17.0598 21.501 16.8682 21.9528C16.5297 22.5526 16.2075 22.9226 16.102 23.6344C15.9988 23.8633 15.7929 24.0577 15.7585 24.3094C15.7721 24.6306 15.7822 24.9005 15.6669 25.2017C15.7303 25.4003 15.6396 25.5169 15.4839 25.6137C15.1461 26.2512 15.4647 27.0716 15.1291 27.8675C14.9955 28.0577 14.9452 28.2969 14.9235 28.5312C14.7174 28.8425 14.5128 29.1176 14.5002 29.5264C14.3983 29.8423 14.2997 30.1297 14.3858 30.4645C14.3861 30.8982 14.0545 31.2456 13.9396 31.6656C13.9395 31.6656 13.5963 32.375 13.5963 32.375C13.562 32.4437 13.5162 32.5124 13.5162 32.5923C13.5162 32.7068 13.5849 32.8325 13.5277 32.9241C13.1699 33.1085 12.985 33.4806 12.7383 33.7937C12.4782 33.9521 12.4055 34.234 12.1434 34.3771C12.0309 34.4169 11.9519 34.4887 11.9146 34.6058C11.6858 34.8243 11.429 35.0219 11.251 35.2924C10.7624 35.7543 10.5907 35.6899 10.0499 36.322C9.86673 36.4593 9.60354 36.4593 9.44343 36.6194C9.30549 36.8596 9.11915 37.0448 8.87135 37.1684C8.77648 37.3037 8.6479 37.3826 8.47095 37.2944C7.91882 37.3756 7.57536 37.9774 7.02943 38.1411L6.99515 38.0494C6.90297 38.2174 6.82632 38.3442 6.58329 38.3583ZM38.6854 43.9529C38.1374 44.0557 37.918 44.5148 37.5529 44.8566C37.3193 44.9378 37.1224 45.0742 36.9121 45.1883C36.5473 45.2666 36.3628 45.6242 35.9625 45.6002C35.5705 45.6617 35.2342 45.8913 34.8986 46.1036C34.4262 46.1685 34.0341 46.3611 33.6516 46.6299C31.4068 47.4117 29.066 47.9545 26.6957 48.1745C26.0944 48.2831 25.4773 48.1708 24.9224 48.3574C24.4226 48.1445 23.9552 48.389 23.4695 48.472C23.1431 48.3952 22.8224 48.3641 22.5085 48.2431C22.2444 48.262 21.9814 48.2996 21.7534 48.1171C21.3852 47.9475 20.9756 47.9694 20.5979 47.8884C20.1398 47.5912 19.6061 47.6467 19.0878 47.5681C16.6157 46.6689 14.0748 45.7682 11.9374 44.2046C12.1434 44.1817 12.2921 44.0099 12.4065 43.9529C12.6725 43.8596 12.8313 43.7426 13.0128 43.5409C13.4046 43.4472 13.6692 43.3811 13.9623 43.049C14.2481 42.8078 14.4195 42.7324 14.4657 42.4427C14.9414 42.0557 15.7758 41.7487 16.2848 41.4357C16.4807 41.3927 16.4547 41.1124 16.6166 41.0469C16.9989 41.1467 17.301 40.9218 17.6805 40.9095C18.3896 40.8836 19.1372 40.8939 19.8314 40.6923C20.4295 40.6281 20.8051 40.6951 21.4101 40.4633C21.8889 40.5489 22.1809 40.4961 22.6 40.2346C22.8106 40.2212 22.9015 40.1667 23.0461 40.0858C23.4767 40.5664 24.3315 39.9517 24.8309 40.0515V40.063C25.1427 40.1339 25.3281 40.1711 25.6317 40.2918C25.9502 40.2287 26.0664 40.2806 26.2381 40.5208C27.0636 40.8237 27.7712 40.4674 28.3088 40.612C28.7581 40.714 29.3866 40.8246 29.8418 40.9554C30.1059 41.0646 30.1409 40.8694 30.2766 40.8522C30.3754 41.2743 30.8477 41.3311 31.1461 41.5732C31.4213 41.8197 31.7391 41.9456 31.9698 42.2369C32.2421 42.3041 32.3316 42.5204 32.622 42.6485C33.0419 42.8101 33.4628 42.87 33.8346 43.1405C34.5732 43.2092 34.9232 43.4899 35.5049 43.6098C35.7812 43.5172 35.9997 43.5424 36.26 43.6097C36.4397 43.5268 36.5576 43.6268 36.6604 43.7697C37.163 44.0601 37.837 43.7716 38.3765 43.93L38.365 44.0099C38.4994 43.9704 38.5298 43.8365 38.7311 43.8957C38.7082 43.9186 38.7082 43.9411 38.6854 43.9529ZM43.765 38.7588C42.5093 40.1821 41.3177 41.6629 39.8637 42.8773C39.4427 42.781 39.0451 42.7251 38.5938 42.5798L38.6167 42.4885C38.2392 42.5565 37.9569 42.2319 37.5413 42.2938C37.1037 42.4615 36.7015 42.2482 36.2828 42.1108C35.9963 41.88 35.6028 42.1182 35.3562 41.8363C35.0851 41.6022 34.7295 41.5621 34.3952 41.4701C34.1171 41.2756 33.7898 41.091 33.4456 41.0928C32.8466 40.9138 32.4669 40.3768 31.9125 40.2004C31.355 39.8826 30.8027 39.3822 30.1278 39.3195C29.1255 38.9956 28.0447 39.0101 27.0161 38.8386C26.6115 38.7987 26.2235 38.6808 25.8148 38.7131C25.5404 38.5996 25.2363 38.5091 24.9453 38.5986C24.5753 38.7237 24.165 38.4665 23.7898 38.5985C23.5839 38.6672 23.4581 38.7817 23.1949 38.7588C22.8305 38.6998 22.4813 38.8123 22.1424 38.7818C21.9295 38.8695 21.6558 38.9484 21.4216 38.8387C21.0281 38.7573 20.6569 38.8628 20.2776 38.9304C19.73 38.8243 19.236 39.0238 18.7331 39.1821C17.558 39.3043 16.5878 39.4128 15.4612 39.9828C14.69 40.3004 14.3689 40.6473 13.6993 41.0471C12.8051 41.5981 12.0682 42.3311 11.2624 42.9002L11.2968 42.9689C11.1324 43.1552 10.9145 43.2488 10.6561 43.3006C10.6286 43.3273 10.5833 43.367 10.5302 43.3236C9.98026 43.2156 9.65645 42.7446 9.30615 42.351C8.74811 42.1441 8.695 41.4555 8.19638 41.1268C7.81073 40.8528 7.68417 40.3265 7.24677 40.0859C7.05987 39.9665 6.93627 39.7619 6.8007 39.5825C7.02946 39.5138 7.24683 39.468 7.47566 39.4337L7.49856 39.5138C7.81822 39.2332 8.28425 39.3548 8.61972 39.0219C8.93333 38.6262 9.39349 38.5051 9.83244 38.3011C10.0913 38.2649 10.2325 38.0544 10.4159 37.9008C10.8348 37.7688 11.2908 37.5967 11.6057 37.26C11.7462 37.0673 11.9408 36.9595 12.1434 36.8595C12.5545 36.659 12.7313 36.1649 13.0243 35.8643C15.2582 33.8075 16.0187 30.8991 16.6965 28.0617C16.5819 27.3317 16.8875 27.2514 16.9142 26.6089C16.7689 26.142 16.9971 25.7652 17.143 25.3277C17.3139 25.1533 17.2788 24.9152 17.3259 24.7098C17.5345 24.3704 17.822 24.0533 17.9208 23.6571C17.9564 23.4532 18.0602 23.2962 18.2069 23.1538C18.4952 22.8871 18.4823 22.4367 18.7217 22.1472C20.3021 20.2533 22.5038 19.0815 24.5792 17.7997C25.0065 17.6883 25.2971 17.4119 25.586 17.1475C26.145 17.0724 26.4129 16.6158 26.7986 16.2894C27.2468 16.0919 27.7295 15.9609 28.0458 15.5918C28.4756 15.4276 28.923 15.2893 29.247 14.9166C30.8106 13.7181 31.896 11.3248 31.1119 9.3794C30.3234 7.49982 27.9173 6.28846 25.9865 6.24453C25.5583 6.35737 25.1354 6.10344 24.6936 6.29049C24.2005 6.58343 23.8445 6.53344 23.2979 6.61084C22.9 6.55333 22.6381 6.89411 22.234 6.78231C21.7085 6.73181 21.2543 7.09385 20.7467 7.05726C20.0269 7.16709 19.3522 7.62176 18.5959 7.4917C16.2192 7.68953 14.0333 6.166 11.7087 5.82154C12.0381 5.69226 12.1337 5.29039 12.418 5.11208C12.7342 5.00366 12.9758 4.77905 13.2989 4.70039C13.5194 4.52362 13.7121 4.36965 14.0083 4.36865C14.52 4.31337 14.882 3.86081 15.3811 3.79651C15.7457 3.76133 16.0088 3.51854 16.3078 3.33901C16.9694 3.11021 17.621 2.84712 18.3099 2.72114C19.967 2.35846 21.5637 1.88378 23.2636 1.79451C23.8739 1.68673 24.4897 1.79762 25.0483 1.61114C25.3343 1.69138 25.5975 1.74864 25.8949 1.66848C26.3138 1.43647 26.7628 1.53251 27.2106 1.6459C27.4261 1.77031 27.6382 1.70225 27.8627 1.70278C28.423 2.02781 29.1002 1.93861 29.6703 2.21776C30.0351 2.43158 30.4782 2.29751 30.8715 2.4008C31.4956 2.59206 32.0678 2.82397 32.6677 3.04119C34.2441 3.69072 35.767 4.34068 37.2324 5.20376C37.789 5.47332 38.1818 5.99367 38.777 6.1189C39.0682 6.56146 39.5879 6.64825 40.0011 6.89677C40.3258 7.23406 40.6022 7.62074 41.0193 7.82362C41.246 8.30223 41.5765 8.70814 41.9918 9.03631C42.2183 9.52568 42.6859 9.7966 43.0214 10.1915C43.6902 11.0558 44.24 11.9605 44.7946 12.9031C44.787 12.9031 44.7794 12.907 44.7718 12.9146C44.62 13.0195 44.5012 13.2124 44.4285 13.3835C43.8792 13.8591 44.0327 13.5603 43.6735 13.967C43.3417 14.0578 43.1039 14.036 42.8612 14.3333C42.587 14.4531 42.3942 14.6079 42.2435 14.8595C41.6781 15.3744 40.6514 15.354 40.2299 15.9806C39.8721 15.8807 39.5484 16.0435 39.1888 16.1181C38.9169 16.0956 38.7048 16.2531 38.4337 16.2096C38.3257 16.1756 38.2484 16.1883 38.1477 16.2552C37.6072 16.2904 37.1251 16.59 36.5804 16.5068C35.8556 16.7849 35.966 16.7043 35.2533 16.7357C34.8274 17.0719 34.7722 16.9006 34.3609 17.1246C34.2062 17.0867 34.0492 16.9379 33.8575 17.0334C33.1634 17.3447 32.4485 17.7565 31.7295 17.9596C31.5061 18.2168 31.2311 18.2487 30.9287 18.3832C30.5364 18.8125 30.0739 19.3622 30.1737 19.9733C30.1553 20.4869 29.9302 20.8455 29.9678 21.3808C29.9727 21.7337 30.0159 22.337 30.3338 22.6505C30.5218 22.7582 30.7606 22.7752 30.7571 23.0396C31.0794 23.6761 31.8663 23.8829 32.2786 24.4124C32.3691 24.4422 32.4724 24.4694 32.5419 24.5381C32.9498 24.8596 33.4457 24.9318 33.766 25.3392C33.949 25.4763 34.2122 25.4763 34.3838 25.6251C34.5325 25.7508 34.5897 25.9681 34.7499 26.0483C35.2617 26.1457 35.0305 26.2067 35.4134 26.4259C35.2146 26.9105 35.91 27.1517 35.8939 27.6957C35.8731 28.2929 35.7674 28.1482 35.8024 28.6109C35.4677 29.162 35.5132 29.2538 35.4592 30.0868C35.748 31.0278 35.7274 32.1709 36.5346 32.8668C36.7253 32.9293 36.9307 32.9256 36.9235 33.1757C37.1241 33.6843 37.989 34.1388 38.3078 34.6402C38.4013 34.6834 38.5024 34.7039 38.571 34.7887C38.9491 35.1343 39.4699 35.2446 39.7836 35.6585C39.9782 35.8071 40.2528 35.8185 40.4358 35.9674C40.7091 36.3173 40.8535 36.4387 41.3053 36.5276C41.5226 36.7894 41.7812 36.6169 41.7744 36.9969C42.0477 37.434 42.7151 37.4496 43.0671 37.8092L43.0099 37.8779C43.0443 37.9237 43.2044 37.8321 43.2502 37.8664C43.4582 38.0747 43.6737 38.3182 43.9709 38.3926C43.8679 38.4957 43.8336 38.6443 43.765 38.7588ZM48.2725 25.0872C48.1006 27.42 47.8633 29.7533 47.2084 31.9632C47.2425 32.3704 46.8729 32.6275 46.8882 33.0615C47.0034 33.5517 46.6868 33.8881 46.4878 34.3083C46.2895 34.4784 46.2972 34.7008 46.2361 34.9262C45.9994 35.2573 45.6706 35.5606 45.5268 35.9557C45.4529 36.2658 45.1954 36.4221 45.0348 36.6766C44.9662 36.8255 44.9662 36.8824 44.806 36.9626C44.5544 37.0768 44.1082 37.0768 43.9824 36.7797C43.9937 36.7797 44.0395 36.7224 44.0395 36.7224C43.6899 36.6156 43.6027 36.1939 43.2272 36.0702C43.0557 36.0015 42.8383 36.0015 42.701 35.8644C42.4128 35.5668 42.1474 35.2059 41.7515 35.0636C41.516 34.7533 41.2754 34.4151 40.9048 34.2514C40.4543 34.0122 40.2037 33.5715 39.6463 33.4848C38.7934 32.8547 37.7812 32.1948 37.4268 31.1508C37.2945 30.8326 37.066 30.5665 37.2096 30.1899C37.3605 29.4905 37.3383 28.6461 37.4498 27.9133C37.1577 27.1899 37.3921 26.8788 37.0608 26.3801C36.6256 25.9899 36.4267 25.4514 36.0884 24.9959C35.8521 24.8414 35.6419 24.7317 35.5164 24.4582C35.2542 24.0076 34.697 23.9417 34.3952 23.5659C34.1233 23.2571 33.6914 23.2946 33.3884 23.0852C32.9524 22.7963 32.466 22.5233 32.0612 22.216C31.6918 21.7844 31.6045 21.7783 31.6609 21.2777C31.5464 20.6272 31.7953 20.0492 32.2559 19.5846C32.408 19.3598 32.6681 19.2597 32.9308 19.1955C33.0506 19.0971 33.1518 18.9365 33.2969 18.8866C33.7368 18.959 34.0359 18.5918 34.4066 18.4519C34.8242 18.4459 35.2283 18.4894 35.5964 18.3146C35.9711 18.3553 36.3777 18.4437 36.7405 18.3031C37.1645 18.136 37.6176 18.3417 38.0218 18.0514C39.0794 17.6797 40.2209 17.5984 41.2709 17.1475C42.6469 16.6343 44.3142 15.5985 45.3781 14.5735C45.3895 14.5735 45.3895 14.562 45.3895 14.562C45.4992 14.519 45.5825 14.3866 45.6526 14.2989C46.2343 15.3179 46.5464 16.5584 47.094 17.5596C47.3281 17.87 47.188 18.2984 47.4373 18.6464C47.7722 18.9788 47.8104 19.4367 47.8835 19.8821C47.8031 20.2586 48.1466 20.5333 47.975 20.9116C47.8725 21.4218 48.2253 21.9109 48.101 22.3989C48.0056 22.8222 48.2611 23.1982 48.2726 23.6116C48.3251 24.1117 48.2247 24.6024 48.2725 25.0872Z" fill="black"/>
</svg>
