<svg width="161" height="45" viewBox="0 0 161 45" fill="none" xmlns="http://www.w3.org/2000/svg">
<g clip-path="url(#clip0_1343_1208)">
<mask id="mask0_1343_1208" style="mask-type:luminance" maskUnits="userSpaceOnUse" x="1" y="10" width="160" height="25">
<path d="M161 10H1V35H161V10Z" fill="white"/>
</mask>
<g mask="url(#mask0_1343_1208)">
<path d="M14.4797 14.1414H14.7558V10.576H1V10.8162C2.58462 12.1103 2.80271 12.4881 2.80271 13.9036V31.1594C2.80271 32.5679 2.5823 32.948 1 34.2445V34.4847H8.12962V34.2445C6.53572 33.0296 6.25267 32.5679 6.25267 31.2177V22.6667H7.80017C9.81864 22.6667 10.1759 22.8066 11.9067 25.0196H12.1387V19.4044H11.9067C10.1759 21.6127 9.81864 21.7526 7.80017 21.7526H6.25267V11.4504H8.61684C9.56575 11.4504 10.3731 11.7722 14.4797 14.1414ZM19.9087 24.2827H15.134L17.3984 17.3337C17.5051 17.5809 17.6072 17.8584 17.7185 18.1872L19.9087 24.2827ZM23.6649 26.3138L19.5259 14.8783H15.7789V15.0998C16.3056 15.5942 16.6467 15.9673 16.9088 16.3823L13.8161 25.8357C13.2616 27.5287 12.9044 28.0673 11.4937 29.3802V29.6227H15.8393V29.3802C14.6537 28.6456 14.2546 28.1676 14.2546 27.4704C14.2546 27.1299 14.3498 26.6775 14.605 25.8964L14.8787 25.0616H20.1848L20.672 26.4117C20.9713 27.2722 21.0339 27.6313 21.0339 27.9484C21.0339 28.4451 20.6906 28.8625 19.7834 29.3802V29.6227H25.8458V29.3802C24.4189 28.2073 24.2008 27.8108 23.6649 26.3161M32.7782 14.1414H33.0566V10.6972C31.7272 10.457 30.247 10.2565 28.8781 10.2565C24.8899 10.2565 22.9248 12.9265 22.9248 15.7737C22.9248 19.0617 25.0477 21.0368 27.7668 23.308C30.6948 25.7751 32.4209 27.2722 32.4209 30.1217C32.4209 32.4676 30.8804 33.904 28.8109 33.904C27.0105 33.904 25.5813 33.1858 21.7972 30.1963H21.4585L22.8482 34.0859C24.412 34.522 26.1358 34.7995 27.9571 34.7995C32.4998 34.7995 35.1354 32.0339 35.1354 28.1886C35.1354 24.6395 33.0752 22.8276 30.1356 20.4375C27.4397 18.2455 25.5999 16.4733 25.5999 13.9269C25.5999 12.2712 26.6903 11.1356 28.3747 11.1356C29.5417 11.1356 30.3584 11.5927 32.7736 14.1414M50.2392 14.1414H50.5129V10.576H34.3025V14.1414H34.5786C38.4044 11.7116 39.177 11.3945 40.0679 11.3945H40.692V31.2177C40.692 32.5679 40.409 33.0296 38.8035 34.2445V34.4847H46.0212V34.2445C44.4111 33.0296 44.135 32.5679 44.135 31.2177V11.3945H44.7475C45.6384 11.3945 46.418 11.7139 50.2415 14.1414M70.9181 13.5071H71.1965V10.4361C69.5887 10.1982 67.5331 10 65.6468 10C57.2226 10 52.2275 14.7244 52.2275 22.5478C52.2275 30.3712 57.0045 35 65.3336 35C67.4936 35 69.4332 34.6829 70.983 34.2608L71.5955 30.8586H71.3194C68.2036 33.5053 66.8138 34.1255 64.561 34.1255C58.3363 34.1255 56.2505 29.4012 56.2505 22.4079C56.2505 15.4146 58.3386 10.9561 64.2269 10.9561C66.1085 10.9561 67.4379 11.3945 70.9204 13.5071M70.1153 22.4079C70.1153 26.3581 69.7789 28.9628 66.9414 28.9628C64.104 28.9628 63.7699 26.3581 63.7699 22.4079C63.7699 18.4577 64.0854 15.8577 66.9414 15.8577C69.7975 15.8577 70.1153 18.467 70.1153 22.4079ZM73.4818 22.4079C73.4818 18.2455 71.0248 15.1161 66.9438 15.1161C62.8627 15.1161 60.4035 18.2665 60.4035 22.4079C60.4035 26.5493 62.8651 29.6973 66.9438 29.6973C71.0225 29.6973 73.4818 26.5306 73.4818 22.4079ZM88.031 34.4427L95.0725 34.4847V34.2445C93.4902 32.948 93.2744 32.5679 93.2744 31.1594V13.9012C93.2744 12.4881 93.4925 12.1103 95.0725 10.8348V10.597L90.082 10.5573L84.5648 28.2166L78.9154 10.576H73.8553V10.8162C74.8089 11.6486 75.3935 12.192 75.8134 12.7469V29.4618C75.8134 31.3973 75.5791 32.1738 73.795 34.2445V34.4847H79.4467V34.2445C77.064 32.2717 76.7276 31.4765 76.7276 29.4618V14.5891C76.7716 14.7011 76.8088 14.8107 76.8413 14.9366L83.2076 34.6805H83.4744L89.8291 14.3629V31.1338C89.8291 32.5515 89.618 32.927 88.0333 34.2025V34.4403L88.031 34.4427ZM108.445 17.8887C108.445 22.3729 107.397 24.2431 103.986 24.2431H102.023V11.4504H103.413C107.176 11.4504 108.445 13.0664 108.445 17.8911M112.132 17.7278C112.132 12.3505 108.383 10.576 103.313 10.576H96.7754V10.8162C98.3577 12.1103 98.5735 12.4881 98.5735 13.9036V31.1594C98.5735 32.5679 98.3554 32.948 96.7754 34.2445V34.4847H103.907V34.2445C102.304 33.0296 102.023 32.5679 102.023 31.2177V25.1222H103.884C108.369 25.1222 112.132 23.2077 112.132 17.7302M120.837 25.7588H114.106L117.422 13.71C117.491 13.9129 117.566 14.1321 117.631 14.3793L120.835 25.7588H120.837ZM161 10.8162V10.576H155.629V10.8162C157.07 12.1103 157.508 12.7283 157.508 13.668C157.508 14.1647 157.39 14.5635 156.989 15.4799L153.912 22.7297L149.875 13.7427C149.557 13.0478 149.458 12.67 149.458 12.3109C149.458 11.6743 149.815 11.3152 150.787 10.8185V10.5783H138.894V10.8185C141.548 12.7913 141.91 13.5654 141.91 15.7411V29.4898L131.983 10.576H127.05V10.8162C128.073 11.7046 128.674 12.2573 129.189 12.9428V29.5201C129.189 31.3203 128.99 32.1061 127.565 34.2421C126.473 32.8617 126.236 32.1994 125.679 30.2383L120.064 10.576H115.257V10.8162C116.014 11.4831 116.487 11.9471 116.842 12.4881L112.174 29.3639C111.506 31.817 110.97 32.5539 109.181 34.2445V34.4847H114.932V34.2445C113.285 32.9899 112.775 32.351 112.775 31.2573C112.775 30.819 112.865 30.1987 113.106 29.3662L113.856 26.6566H121.078L122.085 30.2243C122.401 31.3413 122.526 31.8193 122.526 32.2554C122.526 32.871 122.264 33.2907 121.062 34.2468V34.487H133.106V34.2468C130.449 32.274 130.094 31.4975 130.094 29.5248V14.4282C130.115 14.4679 130.131 14.5005 130.148 14.5378L140.637 34.4823H142.82V15.7387C142.82 13.7543 143.015 12.9638 144.388 10.8278C145.281 11.9145 145.848 12.8286 146.583 14.4795L150.864 23.9912V31.2177C150.864 32.5679 150.587 33.0296 148.982 34.2445V34.4847H156.197V34.2445C154.59 33.0296 154.316 32.5679 154.316 31.2177V23.8816L157.884 15.5405C158.634 13.7683 159.209 12.9288 160.995 10.8162" fill="white"/>
</g>
</g>
<defs>
<clipPath id="clip0_1343_1208">
<rect width="160" height="25" fill="white" transform="translate(1 10)"/>
</clipPath>
</defs>
</svg>
