<svg width="195" height="34" viewBox="0 0 195 34" fill="none" xmlns="http://www.w3.org/2000/svg">
<path d="M12.112 9.59142C12.184 9.48342 12.22 9.37542 12.292 9.30342C12.544 9.12342 12.76 8.94342 12.868 8.69142C12.976 8.43942 13.156 8.29542 13.3 8.11542C13.66 7.50342 14.092 6.96342 14.488 6.38742C14.56 6.27942 14.668 6.13542 14.74 5.99142C14.812 5.84742 14.884 5.66742 15.1 5.59542C15.136 5.55942 15.208 5.48742 15.208 5.41542C15.316 4.91142 15.748 4.58742 16 4.15542C16.144 3.86742 16.324 3.61542 16.576 3.39942C16.612 3.32742 16.648 3.21942 16.684 3.14742C16.828 2.78742 17.044 2.46342 17.332 2.21142C17.584 2.28342 17.548 2.53542 17.764 2.71542C17.944 2.78742 18.232 2.78742 18.448 3.03942C18.304 3.50742 18.16 3.97542 17.764 4.37142C17.692 4.44342 17.62 4.58742 17.548 4.69542C17.368 4.98342 17.296 5.34342 17.008 5.55942C16.936 5.63142 16.936 5.73942 16.9 5.81142C16.684 6.27942 16.396 6.67542 16.072 7.07142C15.964 7.17942 15.892 7.32342 15.856 7.43142C15.82 7.71942 15.64 7.89942 15.532 8.11542C15.424 8.29542 15.244 8.47542 15.136 8.65542C14.92 8.97942 14.776 9.33942 14.524 9.59142C14.272 9.84342 14.128 10.1674 13.804 10.4194C13.696 10.4914 13.66 10.6714 13.552 10.7794C13.444 10.9234 13.264 10.9594 13.192 11.0674C12.976 11.4274 12.688 11.6794 12.436 12.0034C12.184 12.2914 11.932 12.6154 11.68 12.9034C11.32 13.2994 10.888 13.6594 10.528 14.0914C10.348 14.2714 10.168 14.4154 9.952 14.5594C9.736 14.6674 9.556 14.8474 9.412 14.9914C9.052 15.4234 8.656 15.7474 8.224 16.0714C8.008 16.2874 7.792 16.4674 7.54 16.6474C7.504 16.7194 7.432 16.7554 7.396 16.7914C7.252 16.9714 6.892 16.7914 6.856 17.1154C6.676 17.2234 6.532 17.3674 6.352 17.4754C5.704 17.8714 5.02 18.2674 4.372 18.6634C4.3 18.6994 4.228 18.7714 4.156 18.8074C4.12 18.9514 4.228 19.0234 4.3 19.1314C4.804 19.5994 5.236 20.1394 5.668 20.6794L6.532 21.6514C6.64 21.7234 6.748 21.7954 6.784 21.9034C6.892 22.0834 7.072 22.1914 7.18 22.3714C7.576 22.8034 8.116 23.0194 8.512 23.4514C8.584 23.5234 8.692 23.5954 8.8 23.6674C9.196 24.0634 9.736 24.3154 10.204 24.6394C10.384 24.7474 10.636 24.7474 10.744 24.8914C10.96 25.0714 11.176 25.1074 11.392 25.1434C11.572 25.1794 11.788 25.2514 12.004 25.2874H12.544C12.76 25.2514 12.976 25.1794 13.228 25.2154C13.444 25.2154 13.66 25.1074 13.912 25.1074C14.02 25.1074 14.2 25.0714 14.308 24.9994C14.704 24.6754 15.28 24.5674 15.676 24.2074C15.748 24.1354 15.928 24.1714 15.964 24.2794C16.072 24.4594 16.144 24.6394 16.216 24.8194V24.9634C16.036 25.1074 16.036 25.2874 16.108 25.4674C15.892 25.6834 15.892 25.9714 15.64 26.1514C15.1 26.5474 14.524 26.9794 13.912 27.2314C13.516 27.4114 13.12 27.4834 12.688 27.5554C12.58 27.5914 12.472 27.5554 12.364 27.5554C12.148 27.5554 12.04 27.3034 11.86 27.4114C11.644 27.5194 11.5 27.3034 11.32 27.3034C11.104 27.3394 10.924 27.1954 10.744 27.0874C10.528 26.9434 10.384 26.7274 10.096 26.7634C10.024 26.7634 9.952 26.6554 9.88 26.6194C9.736 26.5474 9.592 26.3674 9.448 26.3674C9.16 26.4034 9.088 26.0434 8.8 26.0794C8.728 26.1154 8.656 25.9354 8.584 25.8634C8.512 25.8274 8.476 25.7554 8.44 25.7194C8.296 25.6834 8.116 25.6834 8.044 25.5754C7.828 25.2874 7.504 25.1434 7.324 24.8554C7.216 24.6754 7.036 24.5314 6.928 24.3874C6.748 24.1354 6.46 23.9554 6.352 23.5954C6.1 23.3434 5.92 23.0194 5.668 22.7314C5.056 22.1194 4.516 21.4354 3.94 20.7874C3.904 20.7154 3.868 20.6074 3.832 20.5354C3.688 20.3914 3.58 20.2474 3.364 20.2114C3.256 20.5354 3.22 20.8234 3.22 21.1474C3.22 21.6874 3.292 22.2274 3.148 22.7674C3.112 22.9474 3.22 23.1274 3.148 23.2714C2.932 23.6314 3.04 24.0274 3.004 24.4234C2.968 24.7834 2.896 25.1434 2.86 25.5034V25.9354C2.86 26.0074 2.932 26.1154 2.896 26.1874C2.752 26.5114 2.896 26.8354 2.788 27.1234C2.716 27.3754 2.68 27.6274 2.788 27.8794C2.824 27.9514 2.824 28.0234 2.824 28.0954C2.68 28.3114 2.68 28.5634 2.752 28.8154V28.9594C2.572 29.2474 2.608 29.5714 2.608 29.8594C2.176 30.1834 1.744 30.2914 1.276 30.3274C0.808 30.3634 0.484 30.1834 0.232 29.7874C0.16 29.7154 0.16 29.6434 0.232 29.5714C0.268 29.5354 0.268 29.4634 0.268 29.4274C0.34 29.2114 -0.02 29.1034 0.088 28.8874C0.16 28.6714 0.124 28.5274 0.016 28.3474C0.016 28.3114 -0.02 28.2034 0.016 28.1674C0.196 27.6274 0.124 27.0514 0.088 26.5114C0.052 26.3674 0.088 26.2234 0.16 26.1154C0.196 26.0794 0.232 26.0074 0.196 26.0074C-0.092 25.6834 0.196 25.3234 0.124 24.9994C0.304 24.6754 0.232 24.2794 0.304 23.9194C0.34 23.5954 0.268 23.2354 0.448 22.9114C0.484 22.8034 0.412 22.6234 0.412 22.4794C0.448 21.9754 0.484 21.4714 0.556 20.9674C0.556 20.7874 0.628 20.5714 0.7 20.3914C0.844 20.1034 0.844 19.8514 0.772 19.5634C0.772 19.3474 0.7 19.2394 0.52 19.1314C0.448 19.0954 0.412 19.0234 0.376 18.9514C0.34 18.8794 0.412 18.6274 0.52 18.5914C0.7 18.5194 0.88 18.4474 1.096 18.3754C1.132 18.3394 1.204 18.2674 1.204 18.2314C1.168 18.0874 1.24 17.9434 1.312 17.8354C1.312 17.7994 1.312 17.6914 1.276 17.6554C1.096 17.4394 1.096 17.2594 1.348 17.1514C1.42 17.1154 1.492 16.9714 1.492 16.8994C1.492 16.6834 1.6 16.4674 1.564 16.2154C1.564 15.9994 1.708 15.7834 1.6 15.5674C1.78 15.2434 1.636 14.8114 1.852 14.4874C1.888 14.4514 1.888 14.3434 1.888 14.2354C1.924 14.1274 1.924 13.9834 1.996 13.9114C2.248 13.7314 2.248 13.5154 2.104 13.2634L2.32 12.4354C2.464 12.2914 2.5 12.1114 2.536 11.9314C2.644 11.6434 2.68 11.3554 2.86 11.1034C2.896 11.0674 2.932 10.9954 2.896 10.9594C2.824 10.4914 3.184 10.0954 3.184 9.62742C3.184 9.51942 3.22 9.41142 3.256 9.30342C3.364 9.08742 3.508 8.87142 3.58 8.61942C3.652 8.36742 3.652 8.11542 3.76 7.89942C3.796 7.82742 3.832 7.71942 3.832 7.61142C3.832 7.50342 3.868 7.39542 3.94 7.32342C4.156 7.03542 4.3 6.74742 4.336 6.38742C4.408 6.06342 4.444 5.73942 4.696 5.48742C4.768 5.41542 4.804 5.30742 4.84 5.19942C4.876 5.09142 4.84 4.98342 4.876 4.91142C5.164 4.55142 5.308 4.08342 5.488 3.68742C5.668 3.25542 5.92 2.85942 6.136 2.46342C6.208 2.35542 6.28 2.28342 6.352 2.17542C6.388 2.10342 6.496 2.03142 6.496 1.95942C6.532 1.70742 6.64 1.52742 6.784 1.38342C6.964 1.20342 7.036 0.951419 7.144 0.771419C7.252 0.591419 7.396 0.55542 7.54 0.73542C7.756 0.987421 8.08 1.05942 8.368 1.20342C8.62 1.34742 8.692 1.41942 8.584 1.70742C8.476 1.92342 8.476 2.13942 8.296 2.31942C8.224 2.35542 8.26 2.49942 8.224 2.57142C8.08 2.82342 8.188 3.11142 7.936 3.32742C7.9 3.39942 7.9 3.54342 7.9 3.65142C7.936 3.93942 7.864 4.19142 7.684 4.44342C7.504 4.69542 7.36 4.98342 7.432 5.30742C7.432 5.37942 7.432 5.45142 7.396 5.52342C7.288 5.77542 7.072 5.95542 7.108 6.27942C7.108 6.49542 6.928 6.74742 6.928 6.99942C6.928 7.07142 6.856 7.14342 6.784 7.21542C6.748 7.28742 6.676 7.35942 6.676 7.39542C6.748 7.75542 6.46 8.04342 6.46 8.40342C6.46 8.58342 6.316 8.79942 6.28 8.97942C6.28 9.19542 6.208 9.37542 6.028 9.51942C5.956 9.59142 5.956 9.73542 5.956 9.84342C5.92 10.1314 5.884 10.4194 5.74 10.6714C5.56 10.9594 5.56 11.2834 5.488 11.6074C5.488 11.7154 5.488 11.8234 5.452 11.9314C5.272 12.4714 5.128 13.0114 5.092 13.5514C5.056 13.6954 4.948 13.8394 4.912 13.9834C4.84 14.0914 4.84 14.2354 4.84 14.3794C4.768 14.7034 4.696 14.9914 4.624 15.3154C4.588 15.4594 4.588 15.6754 4.48 15.7834C4.192 16.0354 4.336 16.3594 4.336 16.6474C4.336 16.6834 4.444 16.7194 4.444 16.7194C4.768 16.5034 5.092 16.3234 5.38 16.0714C5.92 15.6754 6.496 15.2434 7.036 14.8114C7.252 14.6674 7.36 14.3794 7.612 14.2354C7.756 14.1274 7.864 13.9834 8.044 13.9474C8.08 13.9114 8.116 13.8394 8.152 13.7674C8.152 13.7314 8.152 13.6594 8.188 13.5874C8.332 13.4794 8.44 13.3714 8.548 13.2634C8.692 13.1554 8.872 13.0834 9.016 12.9394C9.124 12.8314 9.124 12.6514 9.232 12.5434C9.376 12.3634 9.556 12.2194 9.736 12.0754C9.844 11.9674 10.024 11.9314 10.024 11.7154L10.06 11.6794C10.42 11.4994 10.636 11.1394 10.924 10.8874C11.032 10.7794 11.14 10.8874 11.248 10.8874C11.356 10.9234 11.464 10.8154 11.464 10.7074C11.464 10.7074 11.464 10.6714 11.428 10.6714C11.32 10.4194 11.392 10.2754 11.572 10.1314C11.788 9.98742 11.932 9.77142 12.112 9.59142ZM4.48 14.8114L4.516 14.7754L4.444 14.7394L4.48 14.8114ZM4.408 15.4594L4.372 15.4234H4.3C4.336 15.4594 4.336 15.4954 4.336 15.4954C4.372 15.4954 4.372 15.4954 4.408 15.4594ZM10.924 25.2874C10.888 25.2874 10.888 25.2874 10.888 25.3234C10.852 25.3234 10.888 25.3594 10.888 25.3594C10.924 25.3594 10.96 25.3234 10.96 25.3234C10.96 25.2874 10.924 25.2874 10.924 25.2874Z" fill="#1C1C1C"/>
<path d="M17.0325 25.5394C16.9245 25.6114 16.8165 25.6834 16.6725 25.6834C16.6005 25.6834 16.5285 25.6474 16.4565 25.6114H16.3125C16.2405 25.6474 16.1325 25.6474 16.0605 25.6474C15.8445 25.6474 15.6645 25.5394 15.4845 25.4314C15.4485 25.4314 15.4125 25.4674 15.3765 25.4674H15.3405C14.9445 25.3594 14.5125 25.2874 14.2605 24.8914C14.1525 24.6394 13.8645 24.6034 13.6485 24.4594C13.5045 24.3154 13.3245 24.2434 13.3245 24.0274V23.9914C13.3245 23.8834 13.2165 23.7754 13.1445 23.7034C13.0365 23.5234 12.8925 23.3794 12.8925 23.1634V22.9834C12.8925 22.9474 12.8205 22.8394 12.7485 22.8034C12.5685 22.6954 12.5685 22.5514 12.5685 22.3714C12.5325 21.9034 12.4965 21.4714 12.4965 21.0394C12.5325 20.7874 12.5325 20.5354 12.6045 20.2834C12.6765 20.0674 12.6405 19.7794 12.7485 19.4914C12.7485 19.4554 12.7125 19.3834 12.6765 19.3114C12.6405 19.2754 12.6405 19.2394 12.6405 19.2034C12.6405 19.1674 12.6765 19.1314 12.7125 19.0954C12.7845 19.0234 12.8565 18.9874 12.8565 18.8794C12.8565 18.8074 12.8205 18.7714 12.8205 18.6994C12.8205 18.6274 12.8565 18.5194 12.8925 18.4474C13.0005 18.1594 13.1445 17.8714 13.1805 17.5474C13.1805 17.2594 13.3965 17.0074 13.3965 16.6834V16.6114C13.3965 16.5394 13.4685 16.4674 13.5405 16.3954C13.7565 16.1434 13.8645 15.7834 14.0805 15.4954C14.1885 15.3154 14.2245 15.1354 14.4045 15.0274C14.5125 14.9554 14.5485 14.7754 14.5845 14.6674C14.6205 14.5234 14.6925 14.4154 14.8365 14.3434C15.0165 14.2714 15.1605 14.1274 15.3045 13.9834C15.2685 13.8754 15.2325 13.8034 15.1965 13.6954C15.3405 13.6234 15.5565 13.6594 15.5565 13.3714C15.5565 13.2994 15.7365 13.2274 15.8445 13.1914C16.0245 13.1554 16.2045 13.0474 16.2765 12.9034C16.4205 12.7234 16.4925 12.5434 16.7445 12.5434C16.9245 12.1114 17.3565 12.1114 17.7165 11.9674C18.0765 11.7874 18.4725 11.7514 18.8685 11.7514H19.0125C19.3725 11.7514 19.6965 11.8594 19.9485 12.1114C20.1645 12.3274 20.3805 12.4714 20.5965 12.6154C20.9565 12.8314 21.1365 13.1194 21.2445 13.4794C21.3165 13.7674 21.3525 14.0194 21.3525 14.3074C21.3525 14.7754 21.2445 15.2074 21.1005 15.6754C20.9205 16.2514 20.6325 16.7554 20.2725 17.2594C19.7685 17.8714 19.2285 18.4114 18.5805 18.8794C17.9325 19.3834 17.1765 19.5994 16.3845 19.5994H16.0245C15.8445 19.5994 15.6645 19.5634 15.4485 19.5634C15.2685 20.0314 15.1245 20.4634 15.1245 20.9674V21.2554C15.1245 21.3994 15.1245 21.5434 15.0165 21.6514V21.8314C15.0885 21.9034 15.0885 21.9754 15.0885 22.0834V22.3354C15.0885 22.4074 15.0885 22.4794 15.1245 22.5514C15.2325 22.8034 15.3765 23.0194 15.4485 23.2354C15.4845 23.5954 15.7005 23.7754 15.9885 23.9194C16.2045 23.9914 16.4205 24.0274 16.6365 24.1354C16.7085 24.1354 16.7445 24.1714 16.7805 24.1714C16.8165 24.1714 16.8525 24.1354 16.8885 24.1354C17.3925 23.9194 17.8965 23.7394 18.4005 23.5594C18.5445 23.4874 18.6885 23.4154 18.6885 23.1994C18.6885 23.1634 18.7605 23.0914 18.7965 23.0554C18.9405 23.0194 19.0485 22.9474 19.1925 22.9114C19.4085 22.8034 19.6245 22.6594 19.6965 22.4434C19.9125 21.8674 20.3805 21.5434 20.8485 21.1834C20.9925 21.0754 21.0645 20.9674 21.1005 20.8234C21.1365 20.6434 21.2085 20.4994 21.3885 20.4274C21.4245 20.3914 21.4245 20.3554 21.4245 20.3194V20.1754C21.4965 20.0314 21.6045 19.9234 21.6765 19.7794C21.7485 19.6354 21.8565 19.5634 22.0365 19.5274C22.1805 19.4914 22.2885 19.3474 22.2885 19.2034C22.2885 18.9514 22.4325 18.7714 22.5405 18.5554C22.5765 18.4834 22.6845 18.3754 22.7925 18.3394C22.9725 18.3034 23.0445 18.1954 23.0445 18.0874C23.0445 18.0154 23.0445 17.9434 23.0085 17.8714C22.9725 17.8354 22.9725 17.7994 22.9725 17.7634C22.9725 17.6554 23.0445 17.5834 23.1525 17.5114C23.2245 17.4754 23.2605 17.4394 23.3325 17.4034C23.5485 17.4754 23.7645 17.5474 23.9805 17.6554C24.1965 17.7634 24.2685 17.7994 24.2685 17.9074C24.2685 17.9794 24.2325 18.0514 24.1965 18.1594C23.9445 18.8794 23.5485 19.4914 23.1525 20.1394C22.3605 21.3634 21.4605 22.4794 20.4525 23.5594C19.7325 24.3154 18.8325 24.8194 17.9325 25.2514C17.8245 25.2874 17.7165 25.3594 17.6085 25.3594C17.3925 25.3954 17.2125 25.4314 17.0325 25.5394ZM15.6645 18.5194C15.7005 18.5914 15.7725 18.6274 15.8085 18.6274C15.9165 18.6274 16.0245 18.5914 16.0965 18.5554C16.4565 18.5554 16.7805 18.4474 16.9965 18.2314C17.1765 18.0874 17.3565 17.9434 17.5725 17.8354C17.7885 17.6914 17.9685 17.5474 18.0765 17.2954C18.1845 17.1514 18.2925 17.0074 18.5085 16.9714C18.6525 16.7554 18.9405 16.6474 19.0845 16.4314C19.3005 16.2874 19.4445 16.1074 19.4445 15.8554V15.5314C19.4445 15.4234 19.5165 15.3514 19.6245 15.2794C19.8045 15.2074 19.9125 15.0994 19.9125 14.9194C19.9125 14.8834 19.9125 14.8114 19.8765 14.7394C19.8405 14.6674 19.8405 14.5954 19.8405 14.4874C19.8405 14.3794 19.8765 14.2714 19.9125 14.1274L20.0205 13.5874V13.5154C20.0205 13.2994 19.8765 13.1194 19.6965 13.0114H19.6605C19.5525 13.0114 19.4085 13.0474 19.3005 13.0834C19.0845 13.1554 18.9045 13.2994 18.7605 13.4794C18.4725 13.7674 18.2925 14.1634 17.8965 14.3434V14.4154C17.8965 14.4514 17.8965 14.4874 17.8605 14.5234C17.7885 14.5954 17.7525 14.7034 17.6805 14.7394C17.5725 14.7754 17.5005 14.8114 17.5005 14.9194C17.4645 15.0274 17.4645 15.1714 17.3925 15.2434C17.1765 15.3874 17.1405 15.6034 17.0685 15.8194C16.9965 16.0354 16.8885 16.2154 16.7805 16.3954C16.7085 16.5034 16.6005 16.5754 16.4565 16.6114C16.3845 16.6114 16.3485 16.6474 16.3485 16.6834C16.3485 16.7554 16.3845 16.8274 16.3845 16.8634V16.8994C16.3125 17.0074 16.2405 17.1514 16.1685 17.2594C16.1325 17.3314 16.0605 17.4394 16.0605 17.5114C16.0605 17.7274 15.9525 17.9074 15.8085 18.0874C15.7365 18.1594 15.6285 18.3034 15.6285 18.4114C15.6285 18.4474 15.6645 18.4834 15.6645 18.5194ZM16.5645 16.2154C16.5645 16.2154 16.5645 16.1794 16.5285 16.1794C16.4925 16.1794 16.4925 16.2154 16.4565 16.2154C16.4565 16.2514 16.4565 16.2514 16.4925 16.2514C16.5285 16.2514 16.5645 16.2154 16.5645 16.2154ZM19.0845 16.3954V16.4314H19.0485C19.0485 16.4314 19.0485 16.4314 19.0485 16.3954C18.9765 16.3594 18.9405 16.3594 18.9045 16.3234V16.2154C18.9405 16.2154 18.9765 16.2154 18.9765 16.2514C19.0125 16.2874 19.0125 16.3234 19.0485 16.3954C19.0485 16.3954 19.0485 16.3954 19.0845 16.3954ZM15.5205 25.4314C15.5925 25.4314 15.6645 25.4674 15.7725 25.4674L15.8445 25.4314C15.8805 25.4314 15.8805 25.3954 15.8805 25.3594C15.8805 25.3234 15.8805 25.3234 15.8445 25.2874C15.8085 25.2514 15.7725 25.2514 15.7365 25.2514H15.7005C15.6285 25.2874 15.5565 25.3594 15.5205 25.4314Z" fill="#1C1C1C"/>
<path d="M30.6168 11.2834C30.7968 11.3914 30.9408 11.4634 31.0848 11.5714C31.2288 11.6434 31.3728 11.6794 31.5168 11.7514C31.7328 11.8594 31.7688 11.9314 31.7328 12.1474C31.6248 12.6874 31.5528 13.2274 31.4088 13.7674C31.0488 15.3154 30.5088 16.7914 29.8968 18.2314C29.5008 19.0954 29.1048 19.9594 28.6728 20.8234C28.2048 21.7234 27.6648 22.5874 27.1608 23.4514C26.7648 24.0994 26.1528 24.5674 25.5408 24.9274C25.5048 24.9634 25.4688 24.9634 25.4688 24.9634C25.1088 24.9274 24.7488 25.0354 24.4968 24.7474C24.2448 24.4594 23.9568 24.2434 23.7048 23.9554C23.6688 23.9194 23.6328 23.8114 23.6328 23.7034C23.6328 23.5234 23.7768 23.3434 23.5968 23.1274C23.4888 23.0194 23.5248 22.7674 23.4528 22.6234C23.3448 22.2994 23.3088 22.0114 23.3448 21.6874C23.3808 21.4354 23.3448 21.1474 23.2728 20.9314C23.2368 20.7154 23.2008 20.4994 23.2368 20.3194C23.2368 19.9234 23.3088 19.5274 23.2008 19.1314C23.1648 19.0234 23.2368 18.8794 23.2368 18.7354C23.3088 18.2674 23.3448 17.7634 23.2728 17.2954C23.2728 17.1154 23.3088 16.8994 23.3088 16.7194C23.2728 16.4314 23.5608 16.1794 23.3448 15.8554C23.4168 15.5674 23.4168 15.2794 23.3448 14.9554C23.3448 14.8834 23.3448 14.7754 23.3808 14.7034C23.4888 14.4154 23.4888 14.0914 23.4888 13.8034C23.4888 13.5154 23.5968 13.4434 23.8848 13.4794C23.9568 13.4794 24.0288 13.4794 24.0648 13.5154C24.4248 13.8394 24.8928 13.9474 25.3248 14.0914C25.3968 14.0914 25.4688 14.1274 25.5048 14.1634C25.6848 14.2714 25.8288 14.3794 25.7928 14.5954C25.7568 14.9554 25.9008 15.3154 25.8288 15.7114C25.7928 16.0354 25.8648 16.3954 25.8648 16.7194C25.8648 16.8634 25.8288 17.0074 25.8288 17.1514C25.8288 17.4034 25.7928 17.6554 25.8288 17.9074C25.8648 18.1954 25.9368 18.4474 25.7568 18.6994C25.7208 18.7714 25.7208 18.8434 25.7208 18.9154C25.6848 19.4194 25.7208 19.9234 25.5408 20.4274V20.5354C25.6848 21.0034 25.5768 21.4354 25.5408 21.8674C25.5048 22.1554 25.6128 22.4434 25.6848 22.7314C25.7208 22.8754 25.9008 22.9114 26.0088 22.7674C26.4408 22.2274 26.7648 21.6154 27.0528 21.0034C27.1248 20.8594 27.1968 20.6794 27.2688 20.5714C27.4488 20.2834 27.5928 19.9954 27.6288 19.6714C27.7368 19.2394 27.9528 18.8074 28.1328 18.3754C28.3128 18.2314 28.1688 17.9434 28.3488 17.7634C28.5288 17.5834 28.6008 17.3314 28.6368 17.0794C28.6728 16.8634 28.8168 16.6474 28.8888 16.4314C28.9608 16.3234 28.9968 16.1794 29.0688 16.0714C29.2488 15.7114 29.3928 15.3514 29.4648 14.9554C29.4648 14.7754 29.5368 14.5954 29.6088 14.4154C29.6808 14.1994 29.7888 13.9474 29.8248 13.6954C29.8608 13.4794 29.9328 13.2994 30.0048 13.1194C30.1128 12.7954 30.2568 12.4714 30.3288 12.1474C30.3288 11.8594 30.5088 11.5714 30.6168 11.2834ZM30.7608 11.8594V11.8234C30.7248 11.8234 30.7248 11.8594 30.7248 11.8594V11.9314C30.7608 11.8954 30.7608 11.8954 30.7608 11.8594ZM30.4008 12.9034C30.3648 12.9394 30.3648 12.9394 30.3288 12.9754L30.3648 13.0114C30.4008 13.0114 30.4368 13.0114 30.4728 12.9754C30.4368 12.9394 30.4368 12.9394 30.4008 12.9034ZM25.4688 16.0354L25.5048 15.9634C25.4688 15.9994 25.4328 15.9994 25.4328 15.9994L25.4688 16.0354ZM25.5048 16.7194V16.6474C25.4688 16.5754 25.4328 16.6114 25.4328 16.6474V16.7194H25.5048ZM25.5048 17.3314L25.4688 17.2954C25.4688 17.3314 25.4328 17.3674 25.3968 17.4034C25.3968 17.4034 25.4328 17.4394 25.4688 17.4394C25.4688 17.4034 25.5048 17.3674 25.5048 17.3314Z" fill="#1C1C1C"/>
<path d="M35.3621 7.71942C35.3261 7.07142 35.7221 6.60342 36.1541 6.17142C36.1901 6.13542 36.2981 6.13542 36.3341 6.17142C36.4421 6.24342 36.4781 6.20742 36.5141 6.09942C36.5141 6.06342 36.5501 5.99142 36.5501 5.99142C36.5861 5.95542 36.6581 5.99142 36.6941 6.02742C36.8021 6.17142 36.9461 5.95542 37.0541 6.06342C37.1261 6.20742 37.2341 6.31542 37.3781 6.38742C37.6661 6.60342 37.7741 6.89142 37.6661 7.25142C37.5941 7.50342 37.5221 7.71942 37.4141 7.97142C37.3061 8.29542 37.0541 8.51142 36.7661 8.65542C36.5861 8.72742 36.4061 8.87142 36.1901 8.76342C35.9021 8.65542 35.5781 8.51142 35.4341 8.18742C35.3621 8.07942 35.3981 7.89942 35.3621 7.71942ZM34.3541 23.1274C34.5701 23.5234 34.4621 23.9914 34.3901 24.3874C34.3181 24.6754 34.0661 24.8554 33.7781 24.9274C33.7061 24.9274 33.5981 24.9274 33.5261 24.9634C33.0221 25.0354 32.6981 24.7474 32.4101 24.3874C32.3741 24.3154 32.3381 24.2074 32.3741 24.1354C32.4461 23.9554 32.4101 23.8114 32.2661 23.6314C32.1221 23.4874 32.3741 23.2354 32.1581 23.0554C32.1941 22.7674 32.1941 22.4434 32.1941 22.1194C32.3741 22.0114 32.3021 21.9034 32.1581 21.8314C32.1581 21.8314 32.1581 21.7234 32.1941 21.6874C32.3021 21.6154 32.3381 21.5074 32.1941 21.4354C32.1581 21.3994 32.1221 21.3274 32.1221 21.3274C32.3021 21.0034 31.9421 20.6434 32.1941 20.3194C32.2661 20.2834 32.2301 20.1394 32.1941 20.0674C32.1221 19.8874 32.1941 19.7434 32.3021 19.6354C32.5541 19.4194 32.6621 19.1674 32.4101 18.8794C32.3741 18.8434 32.3741 18.6994 32.4101 18.6274C32.5541 18.2314 32.7701 17.8714 32.6621 17.4394C32.6621 17.4034 32.6981 17.3314 32.6981 17.2954C32.9861 17.1154 33.0581 16.8274 32.9501 16.5034C32.9141 16.3594 32.9861 16.2154 33.0941 16.0714C33.2741 15.8554 33.2741 15.5674 33.3821 15.3154C33.3101 14.8114 33.5621 14.4154 33.7061 13.9834C33.7421 13.8754 33.8501 13.7314 33.9221 13.6594C34.0301 13.5874 34.1741 13.5514 34.2461 13.5874C34.6781 13.7674 35.1101 13.9834 35.5061 14.1634C35.5421 14.4514 35.6141 14.7034 35.6141 14.9914C35.6501 15.1714 35.6141 15.3514 35.5421 15.5314C35.3981 15.8554 35.4341 16.2154 35.4701 16.5394C35.5061 16.7554 35.5061 16.8994 35.3261 17.0434C35.2901 17.0794 35.3261 17.1154 35.3261 17.1514C35.3621 17.4034 35.2541 17.6554 35.2181 17.8714C35.1821 17.9434 35.1101 18.0514 35.1101 18.1234C35.1821 18.5554 35.0741 18.9154 34.9301 19.3114C34.8581 19.5634 34.8221 19.7794 34.8941 20.0674C34.9661 20.2474 34.8941 20.4634 34.8221 20.6794C34.7141 20.9674 34.6421 21.2554 34.6421 21.5434C34.6781 21.9394 34.4261 22.2994 34.3901 22.6954C34.3901 22.7314 34.2461 22.8034 34.2101 22.8754C34.0661 22.8394 33.9581 22.9114 33.9941 23.0194C33.9941 23.1994 34.1021 23.1634 34.2101 23.1634C34.2461 23.1634 34.2821 23.1274 34.3541 23.1274ZM35.2541 15.4954C35.2181 15.5314 35.2181 15.5674 35.1821 15.6034L35.2181 15.6394C35.2541 15.6034 35.2901 15.6034 35.2901 15.5674C35.2901 15.5314 35.2541 15.5314 35.2541 15.4954ZM35.2541 15.9994C35.2181 15.9634 35.1821 15.9634 35.1461 15.9634C35.1461 15.9634 35.1101 15.9634 35.1101 15.9994L35.1821 16.0714C35.1821 16.0354 35.2181 15.9994 35.2541 15.9994Z" fill="#1C1C1C"/>
<path d="M40.2513 17.8354C40.3233 17.8354 40.4673 17.8714 40.5033 17.7994C40.6473 17.6554 40.7553 17.4754 40.8633 17.3314C41.2233 16.7554 41.5833 16.2154 42.0153 15.6754C42.3753 15.2074 42.6633 14.6674 43.0953 14.2714C43.4913 13.8754 43.8513 13.4434 44.2473 13.0834C44.6073 12.7594 45.1113 12.6514 45.6153 12.8314C46.1193 12.9754 46.4793 13.2634 46.7673 13.6594C46.8393 13.6954 46.8753 13.8034 46.9113 13.8754C46.9473 13.9474 46.9473 14.0194 46.9833 14.0914C47.1993 14.5954 47.3073 15.1354 47.1273 15.6754C47.0553 15.8194 47.0913 15.9994 47.0913 16.1794C47.0913 16.3234 47.0913 16.4674 47.0193 16.5754C46.8753 16.7914 46.8033 17.0074 46.8753 17.2954C46.8753 17.4034 46.8033 17.5474 46.6593 17.6194C46.5873 17.6554 46.4793 17.7634 46.5513 17.8354C46.7673 18.0874 46.6593 18.2674 46.4793 18.4114C46.2633 18.6274 46.1913 18.8434 46.1553 19.0954C46.1193 19.3114 46.0473 19.4914 46.0473 19.7074C46.0113 20.0674 46.0113 20.3914 45.7593 20.6794V20.7514C45.5793 21.5794 45.3993 22.3714 45.2193 23.1994V23.4874C45.2553 23.6314 45.3633 23.8114 45.5073 23.8114C45.6873 23.8474 45.8673 23.9194 46.0113 23.7034C46.2633 23.3434 46.5873 23.0554 46.8753 22.7674C47.1273 22.4794 47.3073 22.1554 47.5233 21.8674C47.6673 21.6874 47.7753 21.5074 47.9193 21.3634C48.4233 20.9674 48.6033 20.3554 49.0353 19.8874C49.0353 19.8514 49.0713 19.7794 49.0713 19.7434C49.0713 19.4914 49.0713 19.2754 49.4313 19.2754C49.4673 19.2754 49.5393 19.1674 49.6113 19.0954C49.6833 18.9874 49.7553 18.8434 49.8273 18.7354C49.9713 18.4834 50.1873 18.3034 50.2593 17.9794C50.2953 17.7634 50.4753 17.5474 50.6193 17.3314C50.9793 16.8994 51.1593 16.3594 51.4833 15.9274C51.6633 15.8554 51.6993 16.0354 51.8073 16.1074C51.9513 16.1794 52.0593 16.2514 52.1673 16.3234C52.2033 16.6114 52.0593 16.8274 51.9153 17.0434C51.3393 17.9794 50.7633 18.9514 50.1513 19.9234C49.7553 20.5714 49.3233 21.1834 48.9273 21.7954C48.2793 22.6954 47.6313 23.5954 46.8033 24.3514C46.4793 24.6754 46.1193 24.9634 45.6873 25.1794C45.4713 25.2874 45.2553 25.3594 45.0033 25.3234C44.8233 25.2874 44.6433 25.2874 44.4633 25.2514C43.9233 25.2514 43.5273 24.8914 43.1673 24.5674C43.0953 24.4954 43.0233 24.4234 42.9873 24.3514C42.9153 24.0274 42.8433 23.7754 42.7353 23.4874C42.6633 23.3434 42.6633 23.1634 42.7713 23.0194C42.9513 22.8394 42.9873 22.5874 42.9153 22.3714C42.8073 22.0474 42.9873 21.7234 42.8793 21.4354C42.8793 21.3634 42.9153 21.2914 42.9153 21.2194C43.0953 20.7514 43.1673 20.2474 43.3113 19.7434V19.7074C43.7433 18.1594 44.3193 16.6834 44.8953 15.1714C44.9673 14.9554 45.1113 14.7034 45.0033 14.4154C44.9313 14.4514 44.8233 14.4874 44.7513 14.5234C44.1033 15.0994 43.5633 15.7834 43.0953 16.4674C42.8433 16.8274 42.5553 17.1874 42.3393 17.5474C41.9433 18.2674 41.4033 18.8794 41.1153 19.6354C41.1153 19.7074 41.1153 19.7434 41.0793 19.7794C40.7193 20.1034 40.6113 20.5714 40.4673 21.0034C40.3953 21.1834 40.3233 21.3634 40.1793 21.5434C39.9993 21.7234 39.8913 21.9394 39.8913 22.2274C39.8913 22.2994 39.8913 22.4074 39.8193 22.4794C39.6753 22.7314 39.6033 22.9834 39.5673 23.2714C39.4953 23.4154 39.4233 23.5594 39.3513 23.7034C39.3153 23.8474 39.2073 23.9914 39.2073 24.1354C39.2073 24.3514 39.0993 24.4954 39.0273 24.6754C38.8833 25.0714 38.5953 25.1794 38.1993 25.1074C37.8393 25.0714 37.4793 25.0714 37.1913 24.7834C36.9393 24.5674 36.8313 24.3514 36.8313 24.0634C36.8313 23.8114 36.9033 23.5594 36.7593 23.3434C36.7233 23.2714 36.7953 23.1994 36.7953 23.1274C36.7593 22.7314 37.0113 22.3354 36.9033 21.9034C36.8673 21.7594 37.0113 21.5794 37.0833 21.3994C37.0833 21.2914 37.1913 21.2194 37.1553 21.1474C37.1193 20.7874 37.1913 20.4634 37.2993 20.1394C37.4073 19.8514 37.3713 19.4914 37.4073 19.1674C37.4073 19.0954 37.4433 18.9874 37.4433 18.9154C37.6593 18.3754 37.7313 17.7994 37.9113 17.2594C37.9113 17.1874 37.9113 17.0794 37.9833 17.0434C38.1633 16.8994 38.2713 16.7554 38.0913 16.5034C38.0553 16.4674 38.1273 16.3234 38.1633 16.2514C38.2353 16.1434 38.3433 16.0354 38.4153 15.9274C38.4873 15.8554 38.5233 15.7114 38.5233 15.6754C38.3793 15.4954 38.4513 15.3514 38.5233 15.1714C38.5593 14.9914 38.5593 14.7754 38.7033 14.5954C38.7753 14.5234 38.8473 14.4154 38.8473 14.2714C38.8473 13.8394 39.1713 13.5514 39.3513 13.1914C39.4953 12.9394 39.7113 12.8314 39.9633 12.6874C40.1433 12.7954 40.3233 12.9034 40.5033 13.0114C40.6833 13.1194 40.8993 13.1914 41.0793 13.2634C41.2233 13.3354 41.2953 13.4794 41.2593 13.6234C41.1873 13.9474 41.1513 14.3074 41.0073 14.5954C40.8993 14.8834 40.8273 15.1354 40.8633 15.4234C40.8993 15.6394 40.8273 15.8914 40.6833 16.0714C40.3953 16.4314 40.3593 16.8274 40.3233 17.2234C40.2873 17.4394 40.2513 17.6554 40.2513 17.8354V17.9794C40.2153 18.0514 40.2153 18.0514 40.2873 18.0154V17.9794C40.2513 17.9434 40.2513 17.8714 40.2513 17.8354Z" fill="#1C1C1C"/>
<path d="M72.4157 7.50342C72.5597 7.28742 72.6317 6.99942 72.8117 6.81942C73.0637 6.56742 73.2797 6.38742 73.2797 6.02742C73.2797 5.99142 73.3157 5.95542 73.3517 5.91942C73.6037 5.63142 73.7837 5.34342 73.8917 4.98342C73.9637 4.62342 74.2517 4.44342 74.5397 4.29942C74.6117 4.22742 74.7557 4.37142 74.8277 4.22742C74.9357 4.08342 75.1157 3.93942 74.8997 3.68742C74.7917 3.54342 74.9717 3.32742 75.1517 3.29142C75.2597 3.25542 75.3317 3.29142 75.4397 3.29142C75.5837 3.25542 75.6557 3.11142 75.5477 2.96742C75.4037 2.85942 75.4757 2.78742 75.5477 2.71542V2.67942H75.5837C75.5837 2.60742 75.6197 2.57142 75.6557 2.53542C75.6917 2.46342 75.7637 2.39142 75.8717 2.42742C75.9437 2.46342 75.9797 2.53542 75.9797 2.64342V2.67942H75.5837C75.5477 2.67942 75.5477 2.67942 75.5477 2.67942C75.7637 2.85942 75.7637 2.85942 75.9797 2.67942V2.71542C76.0517 2.64342 76.1597 2.60742 76.2317 2.57142C76.3037 2.57142 76.4117 2.57142 76.4117 2.60742C76.6277 2.89542 76.9517 2.96742 77.2037 3.18342C77.3117 3.25542 77.3477 3.32742 77.3117 3.47142C77.2757 3.61542 77.2757 3.79542 77.2037 3.93942C77.1677 4.15542 77.1317 4.37142 76.9517 4.55142C76.8797 4.65942 76.8077 4.76742 76.8437 4.87542C76.8437 5.12742 76.6637 5.34342 76.6637 5.59542C76.6637 5.84742 76.5557 6.06342 76.5557 6.27942C76.5557 6.35142 76.5197 6.45942 76.4837 6.45942C76.1597 6.63942 76.1597 6.96342 76.1237 7.25142C76.0157 7.82742 75.7637 8.40342 75.6557 8.97942C75.6197 9.15942 75.4757 9.33942 75.5837 9.55542C75.5837 9.59142 75.5837 9.66342 75.5477 9.69942C75.3677 9.87942 75.3677 10.0954 75.2957 10.3114C75.2597 10.5274 75.1877 10.7434 75.1877 10.9954C75.2237 11.1034 75.1517 11.2114 75.0797 11.2834C74.9357 11.4994 74.7917 11.7154 74.9357 11.9674C74.9717 12.0394 74.9357 12.1114 74.8997 12.1834C74.8277 12.3994 74.6837 12.6154 74.7197 12.9034C74.7197 13.1194 74.6477 13.3714 74.5397 13.6234C74.4317 13.8394 74.5037 14.1274 74.2877 14.3434C74.2517 14.8114 74.0357 15.2794 74.0717 15.7474C74.0717 15.8554 74.0717 15.9634 74.0357 16.0354C73.8917 16.3594 73.8557 16.7194 73.7837 17.0794C73.7117 17.4394 73.7117 17.7994 73.6397 18.1954C73.5317 18.9514 73.3877 19.7434 73.2437 20.4994C73.2437 20.5714 73.2077 20.6434 73.2077 20.7154C73.0277 21.9034 72.8477 23.0914 72.7037 24.2794C72.6677 24.7114 72.5597 25.1074 72.5237 25.5394C72.4877 25.9714 72.4157 26.3674 72.3797 26.7994C72.3437 27.0874 72.3797 27.4114 72.3437 27.6994C72.3437 27.9154 72.2357 27.9874 72.0557 28.0234C71.8397 28.0594 71.5877 28.0594 71.3717 28.0594C70.9757 28.0594 70.9037 27.9874 70.8317 27.5914C70.7597 27.2674 70.7237 26.9074 70.6877 26.5474C70.6877 26.2234 70.7597 25.8634 70.6157 25.5394C70.5797 25.4674 70.6157 25.3954 70.6157 25.3234C70.6517 25.1434 70.6877 24.9634 70.6517 24.7834C70.5797 24.3874 70.6517 23.9554 70.6517 23.5594C70.6517 23.3434 70.5797 23.1274 70.6157 22.9474C70.6517 22.7674 70.7237 22.5874 70.5797 22.4434C70.6517 22.1914 70.5077 21.9394 70.7597 21.7594C70.7957 21.7234 70.7957 21.6154 70.7957 21.5434C70.6877 21.1474 70.9757 20.7514 70.7957 20.3554C71.1557 20.0674 70.9037 19.7074 70.9397 19.3834C70.9757 19.0954 70.9757 18.8074 71.0837 18.5194C71.1557 18.4114 71.2277 18.2314 71.1917 18.1234C71.0837 17.8354 71.1917 17.5834 71.2997 17.3314C71.4077 17.1154 71.4437 16.8994 71.4797 16.6834C71.4797 16.3594 71.5517 16.0714 71.6237 15.7834C71.6957 15.4954 71.8037 15.2074 71.6957 14.9194V14.7754C72.0197 14.4154 71.9117 13.9474 72.0197 13.5154C72.0917 13.1914 72.1277 12.8674 72.3077 12.5434C72.4877 12.2914 72.4877 11.9314 72.5597 11.6434C72.3797 11.6074 72.2357 11.6074 72.1277 11.8234C71.9837 12.1474 71.8037 12.4354 71.6597 12.7594C70.6517 14.7754 69.6797 16.8634 68.8517 18.9514C68.0597 21.0034 67.2677 23.0194 66.4757 25.0714C66.3677 25.3594 66.2237 25.6474 66.0797 25.9354C65.9357 26.2234 65.7197 26.3674 65.3957 26.3674H65.1797C64.5317 26.3674 64.5317 26.3674 64.2797 25.7554C64.1357 25.3954 64.0277 24.9994 64.1717 24.6034C64.2437 24.4954 64.2437 24.3154 64.2077 24.2074C64.0277 23.7394 64.1357 23.2714 64.0277 22.7674C63.9557 22.5514 64.1357 22.3714 64.1357 22.1914C64.1357 22.0114 63.9917 21.8314 64.0277 21.6514C64.0637 21.3634 64.0997 21.0754 63.9917 20.7514C63.9557 20.6074 63.9917 20.4274 64.0277 20.2834C64.0277 20.1754 64.0277 20.0674 63.9917 19.9954C63.8117 19.7794 63.9197 19.5274 63.9197 19.2754C63.9557 18.8434 64.0997 18.3754 63.9197 17.9074C63.8837 17.8714 63.8837 17.7994 63.9197 17.7634C64.0997 17.2954 64.0277 16.7554 63.9917 16.2514C63.9917 16.1794 63.9917 16.0714 64.0277 15.9994C64.1357 15.4594 64.1717 14.9554 64.0997 14.4154C64.0637 14.3434 64.0997 14.2714 64.1357 14.1994C64.1357 14.0914 64.2077 13.9474 64.1717 13.8034C64.1357 13.3354 64.2077 12.9034 64.2797 12.4354C64.3157 12.1114 64.2797 11.7874 64.2797 11.4634C64.0997 11.2474 64.3877 10.9594 64.2437 10.7434C64.3157 10.5994 64.4237 10.4554 64.4237 10.3114C64.4597 10.0234 64.4597 9.73542 64.4597 9.41142C64.4957 9.08742 64.4237 8.72742 64.5677 8.40342C64.6757 8.22342 64.5677 8.04342 64.4597 7.86342C64.4237 7.89942 64.3517 7.93542 64.3157 7.97142C64.2077 8.15142 64.0997 8.33142 64.0277 8.54742C63.1997 10.8514 62.3357 13.1554 61.6877 15.5314C61.4717 16.3234 61.2197 17.0794 61.0397 17.8714C60.9677 18.2674 60.8237 18.6274 60.8597 19.0234C60.8957 19.1674 60.8237 19.3114 60.7517 19.4194C60.6077 19.7074 60.5717 19.9954 60.5357 20.2834C60.4997 20.6074 60.5357 20.9674 60.2837 21.2554C60.2477 21.8314 60.0317 22.3354 59.9597 22.9114C59.8877 23.3794 59.7077 23.8834 59.7077 24.3874C59.6717 24.5674 59.6717 24.7474 59.6357 24.9634C59.5997 25.2514 59.6357 25.5394 59.4917 25.8274C59.4557 25.8634 59.4557 25.9714 59.4197 26.0434C59.3477 26.6194 59.2397 27.1954 59.1677 27.8074C59.1317 27.9514 59.1317 28.1314 59.1677 28.2754C59.1677 28.4194 59.1677 28.5634 59.0957 28.7074C58.8437 29.2474 58.6637 29.3554 58.0877 29.2474L57.7637 29.1394C57.5117 29.0314 57.4757 28.9954 57.4757 28.7434C57.4757 28.2034 57.4397 27.6994 57.4397 27.1954L57.3317 26.8714C57.2597 26.7634 57.2597 26.6554 57.3317 26.5474C57.5477 26.1874 57.5477 25.7914 57.4757 25.4314C57.4397 25.1074 57.4757 24.8554 57.5117 24.5314C57.5837 24.2074 57.5477 23.8474 57.7277 23.5594C57.7997 23.4514 57.7637 23.3074 57.7637 23.1994C57.7637 23.0554 57.6917 22.8754 57.8357 22.7314C57.9077 22.6234 57.8717 22.5154 57.8357 22.4074C57.7637 22.2634 57.7997 22.1554 57.8717 22.0114C58.0157 21.7234 58.0877 21.3994 57.9437 21.0754C57.9077 20.9674 57.9077 20.8954 57.9797 20.8234C58.1237 20.7514 58.1597 20.6074 58.1597 20.4634C58.1597 20.3914 58.1237 20.3194 58.1597 20.2834C58.2317 20.0314 58.3757 19.8154 58.4477 19.5994C58.4837 19.3834 58.4477 19.1314 58.4837 18.9154C58.5917 18.4834 58.8077 18.0874 58.7357 17.6194C58.7357 17.5114 58.8077 17.4034 58.8437 17.2954C58.8797 17.0434 58.9517 16.7554 58.9877 16.5034C58.9877 16.2514 59.0597 15.9634 59.3117 15.8554C59.3477 15.6754 59.5277 15.5674 59.3837 15.3514C59.2757 15.2434 59.2757 15.0634 59.3837 14.8834C59.4197 14.8114 59.6357 14.8474 59.5997 14.6674C59.5637 14.5954 59.5277 14.4874 59.5637 14.4154C59.5637 14.2714 59.5997 14.1994 59.7437 14.1634C59.9597 14.1274 60.0317 13.9474 59.9597 13.8034C59.8877 13.6234 59.9237 13.4794 60.0677 13.3714C60.0677 13.3354 60.1037 13.2634 60.0677 13.2634C59.9597 13.0834 60.0317 12.9754 60.1037 12.8674C60.1757 12.7954 60.2477 12.6874 60.2117 12.6154C60.1037 12.3994 60.2477 12.2914 60.3917 12.1834C60.5357 12.0754 60.5717 11.9674 60.4637 11.8234C60.4277 11.8234 60.4277 11.7514 60.4277 11.7154C60.4277 11.3554 60.6437 11.0674 60.7517 10.7434C60.7517 10.7434 60.8237 10.7434 60.8597 10.7074C60.8957 10.7074 61.0037 10.6354 60.9677 10.5994C60.8597 10.2394 61.0757 9.98742 61.1837 9.66342C61.2197 9.51942 61.3637 9.44742 61.2917 9.26742C61.2557 9.19542 61.3277 9.08742 61.3637 9.01542C61.4357 8.87142 61.5797 8.76342 61.5797 8.65542C61.5797 8.22342 61.8677 7.89942 61.9397 7.46742C61.9757 7.25142 62.0117 6.96342 62.2277 6.81942C62.2637 6.78342 62.2997 6.74742 62.2997 6.67542C62.5517 5.59542 63.1637 4.65942 63.6317 3.65142C63.8117 3.21942 64.1717 2.93142 64.6397 2.75142C64.7117 2.82342 64.7837 2.85942 64.8197 2.93142C64.9277 3.11142 65.0717 3.18342 65.2517 3.25542C65.6117 3.32742 65.9357 3.47142 66.2597 3.57942C66.3677 3.65142 66.4757 3.75942 66.5117 3.90342C66.5117 4.01142 66.5117 4.11942 66.5477 4.26342C66.5477 4.33542 66.5477 4.44342 66.6197 4.51542C66.7997 4.69542 66.8357 4.91142 66.7637 5.12742C66.6917 5.34342 66.7637 5.55942 66.5477 5.70342C66.5117 5.73942 66.5117 5.88342 66.5117 5.95542C66.5477 6.06342 66.6197 6.13542 66.5837 6.24342C66.5477 6.53142 66.4757 6.81942 66.4397 7.10742C66.4397 7.32342 66.2957 7.53942 66.4757 7.75542C66.5117 7.82742 66.4757 7.93542 66.4757 8.04342C66.4037 8.22342 66.3317 8.36742 66.4037 8.58342C66.4397 8.65542 66.3317 8.76342 66.2957 8.87142C66.2957 8.94342 66.2237 9.05142 66.2597 9.08742C66.4397 9.37542 66.2237 9.62742 66.1877 9.87942C66.1157 10.2034 66.0437 10.5274 66.0797 10.8514C66.0797 11.0314 66.0437 11.2114 66.0077 11.3914C66.0077 11.4994 65.9717 11.6434 65.9717 11.7514C66.1157 12.2194 65.9717 12.6874 65.9357 13.1554C65.8997 13.2634 65.9357 13.3354 65.9357 13.4434C65.9357 13.6954 65.8997 13.9474 65.8637 14.1994C65.8277 14.6674 65.8277 15.1714 65.7917 15.6394C65.7917 15.8914 65.7557 16.1074 65.7557 16.3234C65.7197 16.7554 65.6837 17.1514 65.6837 17.5834C65.7197 18.1234 65.6117 18.6634 65.7557 19.2034C65.7557 19.2754 65.7917 19.3834 65.7557 19.4194C65.6117 19.7074 65.7557 19.9954 65.7557 20.3194C65.7197 20.5714 65.7557 20.8594 65.7557 21.1474C65.7557 21.1834 65.7917 21.2194 65.8277 21.2554C65.8637 21.2554 65.8997 21.2194 65.9357 21.1834C66.0077 21.0034 66.1517 20.8234 66.1877 20.6434C66.2597 20.4994 66.2597 20.3194 66.4037 20.2114C66.4397 20.1754 66.4757 20.1034 66.4757 20.0314C66.4397 19.7074 66.5837 19.4194 66.7637 19.1314C66.7997 19.0594 66.7997 18.9514 66.8357 18.8794C66.8717 18.8074 66.9437 18.7354 67.0157 18.6994C67.1597 18.6634 67.1957 18.5914 67.1957 18.4474C67.1957 17.9434 67.3397 17.4754 67.6637 17.0434C67.7357 17.0794 67.7717 17.1154 67.8437 17.1514C67.9877 17.0074 68.1677 16.8274 68.0957 16.6474C67.9877 16.4314 68.0597 16.2514 68.0597 16.0354C68.0597 15.6394 68.2397 15.3874 68.5277 15.1354C68.6357 15.0634 68.7437 14.9554 68.7077 14.8114C68.7077 14.2714 69.0317 13.8034 69.2477 13.3354C69.5717 12.6874 69.9677 12.1114 70.2917 11.4634C70.3997 11.3194 70.3997 11.1754 70.4717 11.0314C70.5077 10.9234 70.5437 10.8154 70.6157 10.7074C70.6877 10.5634 70.8317 10.4554 70.9397 10.5274C71.0477 10.5994 71.0837 10.7074 71.1557 10.7434C71.2637 10.6714 71.2997 10.4914 71.2277 10.3474C71.1917 10.2034 71.0837 10.1314 71.0117 9.98742C71.5517 9.19542 71.9837 8.36742 72.4157 7.50342C72.5957 7.53942 72.7757 7.57542 72.9197 7.39542C72.8477 7.28742 72.7397 7.25142 72.6317 7.35942C72.5597 7.43142 72.4877 7.46742 72.4157 7.50342ZM75.5477 3.47142C75.5477 3.43542 75.5477 3.39942 75.5117 3.39942C75.5117 3.39942 75.4757 3.39942 75.4397 3.43542C75.4037 3.50742 75.3317 3.61542 75.2957 3.68742C75.2957 3.72342 75.2957 3.75942 75.3317 3.75942C75.4397 3.75942 75.5477 3.57942 75.5477 3.47142ZM73.9277 6.06342C73.8917 6.02742 73.8917 5.99142 73.8557 5.99142H73.7837C73.6037 6.09942 73.5677 6.27942 73.4957 6.45942C73.4957 6.45942 73.5317 6.49542 73.5317 6.53142H73.6037C73.8197 6.45942 73.8197 6.20742 73.9277 6.06342ZM65.4317 10.0954H65.5037L65.4677 10.0594L65.4317 10.0954ZM72.4517 11.3194C72.3797 11.4634 72.4877 11.5714 72.5957 11.6434C72.7037 11.5714 72.7757 11.4634 72.7757 11.3194C72.7757 11.2114 72.8477 11.1394 72.8837 11.0314C72.9197 10.8874 72.9197 10.7434 72.9557 10.5634H72.9197C72.8837 10.5274 72.8477 10.5274 72.8477 10.5634C72.8117 10.5994 72.7757 10.6714 72.7757 10.7074C72.7757 10.8154 72.8477 10.9234 72.8837 11.0314C72.6317 10.9594 72.5237 11.1394 72.4517 11.3194ZM70.8677 10.9954H70.9757C71.0477 10.9234 71.0837 10.8514 71.1197 10.7794C71.0117 10.8154 70.9757 10.8154 70.9037 10.8514C70.8677 10.8874 70.8677 10.9594 70.8677 10.9954Z" fill="#1C1C1C"/>
<path d="M80.9583 9.66342C80.7423 9.51942 80.5623 9.41142 80.3823 9.26742C79.9503 8.87142 79.8063 8.36742 79.9503 7.79142C79.9503 7.68342 79.9863 7.53942 79.9863 7.43142C79.9863 7.14342 80.2383 6.99942 80.3823 6.81942C80.4903 6.67542 80.7423 6.63942 80.9583 6.63942C81.2823 6.63942 81.5343 6.74742 81.7143 6.99942C82.0743 7.46742 82.0743 8.00742 81.9663 8.54742C81.8943 8.94342 81.6783 9.26742 81.2823 9.44742C81.1743 9.48342 81.1023 9.55542 80.9583 9.66342ZM76.5663 24.6394C76.5303 24.4954 76.5303 24.3874 76.4583 24.2794C76.3143 23.8834 76.2063 23.4874 76.3503 23.0554C76.3863 22.9114 76.3863 22.6954 76.3863 22.5154C76.3503 22.2994 76.3143 22.1194 76.4583 21.9394C76.4943 21.9034 76.5303 21.8314 76.4943 21.7954C76.3863 21.3994 76.7103 21.0754 76.6743 20.6794C76.6383 20.5354 76.7823 20.4274 76.6743 20.2474C76.5663 20.1034 76.6023 19.8874 76.7463 19.7434C76.8543 19.6354 76.8543 19.5274 76.8543 19.3834C76.8543 18.6274 76.9623 17.9074 77.2863 17.2234C77.3583 17.0794 77.3943 16.9354 77.4303 16.7554C77.4663 16.6474 77.5023 16.5394 77.5383 16.4314C77.5743 16.3234 77.6463 16.2874 77.7543 16.2874C77.8263 16.2874 77.8623 16.1434 77.8983 16.0714C77.8983 16.0714 77.8263 15.9994 77.7543 15.9634C77.5743 15.8914 77.5383 15.8194 77.6103 15.7114C77.6823 15.6394 77.7543 15.5674 77.8263 15.4954C78.0423 15.2434 78.1863 14.9914 78.1143 14.6314C78.0783 14.5234 78.1863 14.4514 78.3303 14.4154C78.4383 14.4154 78.4743 14.4154 78.5103 14.3074C78.6543 13.9834 78.7983 13.9114 79.0143 14.0554C79.1583 14.1634 79.3383 14.2714 79.5183 14.3074C79.6623 14.3074 79.8423 14.3794 79.9863 14.4514C80.3463 14.5594 80.4183 14.6674 80.3103 15.0634C80.1663 15.6034 80.0223 16.1794 79.8063 16.7194C79.7343 16.8994 79.5903 17.1154 79.6983 17.3674C79.7343 17.4394 79.7343 17.5114 79.6983 17.5834C79.4103 17.9794 79.4463 18.4474 79.3743 18.8794C79.3383 19.2034 79.1583 19.4554 79.0863 19.7434C79.0143 19.9954 79.0863 20.2834 79.0143 20.5354C78.8343 21.1834 78.7623 21.7954 78.6543 22.4434C78.5103 23.1634 78.4023 23.8834 78.2583 24.6394C78.2223 24.8194 78.0783 24.8914 77.8623 24.9274C77.8263 24.9274 77.7903 24.8914 77.7903 24.9274C77.3583 25.0354 76.9623 24.8914 76.5663 24.6394Z" fill="#1C1C1C"/>
<path d="M85.8642 24.4234C86.6202 24.3874 87.1242 24.0274 87.5922 23.5594C87.8442 23.3434 88.0602 23.1274 88.2042 22.8394C88.2762 22.7314 88.3482 22.6594 88.4202 22.5514C88.7082 22.1554 89.0682 21.7954 89.3202 21.3274C89.3562 21.2194 89.4282 21.1474 89.5362 21.0754C89.5722 21.0394 89.6442 21.0394 89.7162 21.0754C89.9322 21.2194 90.1482 21.3634 90.4002 21.5074C89.9682 22.7674 89.2482 23.8114 88.2042 24.6394C87.4482 25.2514 86.5842 25.4674 85.5762 25.2154C84.8562 25.0354 84.1362 24.7834 83.5602 24.2434C83.4882 24.1354 83.3442 24.0994 83.2722 24.0274C83.2002 23.9914 83.1282 23.9194 83.0922 23.8474C83.0922 23.5954 82.9482 23.4514 82.7682 23.3434C82.5522 23.2354 82.4442 23.0914 82.3722 22.8754C82.2282 22.4794 82.0482 22.0834 82.0482 21.6154C82.0122 21.2914 81.8322 20.9674 81.9042 20.6074C81.9042 20.5354 81.9042 20.4634 81.9402 20.3914C82.0482 20.2834 82.0122 20.1754 81.9402 20.0674C81.9042 19.9954 81.8322 19.9234 81.9042 19.8154C81.9402 19.7794 82.0482 19.7794 82.0842 19.7074C82.1202 19.6714 82.1562 19.5634 82.1202 19.5634C81.9762 19.4194 81.9402 19.3114 82.0482 19.1314C82.0842 19.0594 82.0482 18.9154 82.0842 18.8074C82.1202 18.6994 82.1562 18.5914 82.1922 18.4834C82.2642 18.4114 82.3362 18.3034 82.3362 18.1954C82.2642 17.8354 82.4442 17.5114 82.5882 17.1874C82.7322 16.8994 82.9122 16.6474 83.0562 16.3234C83.1282 16.1434 83.1282 15.9274 83.3082 15.7474C83.4522 15.6034 83.5242 15.3514 83.5962 15.1354C83.7762 14.8114 83.9562 14.5594 84.2082 14.3074C84.6762 13.7674 85.2162 13.2634 85.7922 12.8314C86.3322 12.4354 86.9442 12.2194 87.6642 12.2554C87.9882 12.2914 88.2762 12.3994 88.5642 12.5434C88.8882 12.6874 89.1402 12.8314 89.4642 12.9754C89.9322 13.1914 90.2922 13.5514 90.4722 14.0554C90.9402 15.1714 90.9762 16.2874 90.5442 17.4394C90.4722 17.5474 90.4002 17.6914 90.3282 17.7994C90.2562 17.9434 90.1482 18.0514 89.9682 18.0514H89.4642C89.1762 17.9794 88.9602 17.5834 89.0682 17.3314C89.4282 16.7194 89.4642 16.0354 89.5002 15.3514C89.5362 14.8834 89.5002 14.4514 89.3202 14.0554C89.2482 13.8394 89.1762 13.6594 89.0682 13.4794C88.9602 13.3714 88.8162 13.2994 88.6722 13.3714C88.4202 13.4794 88.0602 13.5154 87.9162 13.8754C87.8802 14.0554 87.6642 14.1994 87.4842 14.3074C87.3762 14.4154 87.2682 14.5234 87.2322 14.7034C87.2322 14.8834 86.9442 14.8474 86.9802 15.0634C86.6562 15.4234 86.5482 15.9274 86.2242 16.3234C86.1162 16.5034 86.0442 16.7194 85.7922 16.8274C85.7562 16.8274 85.6842 16.9354 85.7202 16.9714C85.7202 17.1154 85.7202 17.2234 85.6122 17.3674C85.3242 17.7634 85.1442 18.2314 85.0002 18.6994C84.9642 18.9874 84.8562 19.2394 84.7482 19.4914C84.5322 20.0314 84.4962 20.6434 84.2442 21.2194C84.2082 21.3274 84.2442 21.4714 84.2442 21.6154C84.2442 21.7594 84.2802 21.9394 84.2802 22.0834C84.2802 22.6234 84.2802 22.6234 84.4602 22.9474C84.5322 23.0194 84.6042 23.1274 84.6042 23.1994C84.6402 23.8114 85.0722 24.0634 85.5402 24.2434C85.6842 24.3154 85.7922 24.3874 85.8642 24.4234ZM84.9642 17.8354C84.9282 17.7994 84.8562 17.7634 84.8562 17.7994C84.8202 17.7994 84.7842 17.8354 84.7842 17.8714C84.7842 17.9074 84.8202 17.9434 84.8562 17.9434C84.8922 17.9074 84.9282 17.8714 84.9642 17.8354ZM84.4242 19.1314C84.4602 19.1314 84.5322 19.0954 84.5322 19.0954C84.5322 18.9874 84.4962 18.9154 84.4962 18.8434C84.4242 18.8794 84.3522 18.8794 84.3162 18.9514C84.2802 19.0234 84.3162 19.1314 84.4242 19.1314ZM83.6682 22.4074L83.7042 22.3714H83.6682V22.4074Z" fill="#1C1C1C"/>
<path d="M101.097 24.4234C100.845 25.0354 100.881 24.9994 100.161 24.9274C99.801 24.8914 99.477 24.7834 99.225 24.4954C99.189 24.4234 99.153 24.3154 99.153 24.2434C99.189 23.8474 99.153 23.4154 99.225 23.0194C99.297 22.6234 99.369 22.2274 99.369 21.8314C99.405 21.2194 99.549 20.6074 99.693 19.9954C99.729 19.7074 99.765 19.4194 99.945 19.1674C99.981 19.0594 99.981 18.9514 99.981 18.8434C100.017 18.5554 100.053 18.3034 100.197 18.0514C100.341 17.7634 100.413 17.4754 100.521 17.1874C100.593 16.8994 100.701 16.6114 100.809 16.3594C100.845 16.1794 100.881 16.0354 100.917 15.8914C100.917 15.7834 100.917 15.6754 100.953 15.6034C101.277 14.9194 101.349 14.1994 101.529 13.4794C101.565 13.3354 101.601 13.1914 101.601 13.0834C101.601 12.9394 101.601 12.7594 101.529 12.6874C101.421 12.5794 101.241 12.6514 101.133 12.7594C101.025 12.8314 100.917 12.9034 100.809 13.0114C100.629 13.2634 100.413 13.4434 100.161 13.6234C100.125 13.6594 100.053 13.6594 100.053 13.6954C99.693 14.3074 99.045 14.6674 98.829 15.3514L98.721 15.4594C98.613 15.6394 98.469 15.7834 98.361 15.9634C98.181 16.2514 98.001 16.5394 97.821 16.8634C97.677 17.1154 97.425 17.3674 97.281 17.6554C96.993 18.2314 96.669 18.8434 96.417 19.4554C96.309 19.7434 96.129 20.0314 95.949 20.2834C95.841 20.4634 95.733 20.6434 95.733 20.8594C95.697 21.1114 95.589 21.3274 95.445 21.5794C95.337 21.7234 95.265 21.9394 95.229 22.1194C95.013 22.7314 94.833 23.3074 94.617 23.8834C94.545 24.1354 94.329 24.3514 94.185 24.5674C94.149 24.6394 94.077 24.6754 94.005 24.6754C93.357 24.6034 92.781 24.3874 92.385 23.8474C92.277 23.7394 92.241 23.5954 92.241 23.4154C92.277 22.9834 92.133 22.5514 92.205 22.1194C92.205 22.0474 92.133 22.0114 92.097 21.9394C92.061 21.8314 91.989 21.6874 92.025 21.6154C92.205 21.1474 91.989 20.6434 92.169 20.1754C92.205 20.1034 92.205 19.9954 92.241 19.9954C92.529 19.8874 92.349 19.6354 92.385 19.4554C92.421 19.2394 92.205 19.0594 92.457 18.8794C92.241 18.6994 92.421 18.4834 92.385 18.2674C92.349 18.1954 92.349 18.0874 92.385 18.0154C92.565 17.6914 92.601 17.3674 92.565 17.0074C92.565 16.8634 92.601 16.7554 92.637 16.6114C92.709 16.3954 92.745 16.2154 92.673 15.9994C92.601 15.8554 92.673 15.7114 92.817 15.6394C92.925 15.6034 92.997 15.5314 92.997 15.3874C92.925 15.0994 93.105 14.8474 93.285 14.6314C93.429 14.4874 93.429 14.4154 93.249 14.2354C93.069 14.0554 93.105 13.9114 93.249 13.7314C93.465 13.4434 93.609 13.1194 93.573 12.7234C93.573 12.5074 93.645 12.3274 93.753 12.1474C93.933 11.8234 94.113 11.4994 94.077 11.1034C94.077 11.0314 94.149 10.9234 94.185 10.8514C94.257 10.6354 94.401 10.4554 94.329 10.2034C94.293 10.1314 94.365 9.98742 94.401 9.87942C94.545 9.55542 94.689 9.19542 94.725 8.83542C94.761 8.69142 94.833 8.54742 94.869 8.36742C95.013 7.97142 95.265 7.61142 95.445 7.21542C95.589 6.96342 95.697 6.71142 95.553 6.42342C95.517 6.35142 95.589 6.24342 95.661 6.20742C95.877 6.17142 95.985 5.99142 96.021 5.81142C96.057 5.52342 96.201 5.30742 96.345 5.05542C96.453 4.94742 96.489 4.76742 96.561 4.62342C96.921 3.79542 97.389 2.96742 97.857 2.17542C98.001 1.95942 98.145 1.70742 98.397 1.56342C98.505 1.52742 98.577 1.63542 98.685 1.70742C98.865 1.85142 99.081 1.99542 99.297 2.13942C99.513 2.28342 99.549 2.31942 99.513 2.57142C99.369 2.96742 99.225 3.39942 99.117 3.83142C99.081 3.90342 99.009 4.01142 99.009 4.08342C99.081 4.33542 98.865 4.37142 98.757 4.51542C98.613 4.98342 98.469 5.41542 98.397 5.88342C98.361 6.06342 98.325 6.24342 98.253 6.42342C98.145 6.74742 97.965 7.07142 97.893 7.39542C97.821 7.61142 97.569 7.82742 97.677 8.07942C97.785 8.40342 97.425 8.47542 97.425 8.69142C97.461 9.08742 97.173 9.37542 97.101 9.73542C97.029 10.1674 96.777 10.5274 96.813 10.9954C96.813 11.0674 96.741 11.1754 96.705 11.2474C96.669 11.3554 96.597 11.4634 96.561 11.5714C96.489 12.2914 96.201 12.9754 96.093 13.6954C96.021 13.9834 95.949 14.2714 95.913 14.5954C95.913 14.8474 95.697 15.0994 95.733 15.3874C95.733 15.4594 95.625 15.5314 95.553 15.4954C95.409 15.4234 95.337 15.4234 95.265 15.5314C95.193 15.6394 95.229 15.8194 95.337 15.8914C95.553 16.0714 95.589 16.1434 95.517 16.3234C95.409 16.4674 95.265 16.6474 95.157 16.7914C95.301 16.8634 95.445 16.8994 95.409 17.0794C95.373 17.1154 95.373 17.1154 95.373 17.1514C95.409 17.2954 95.229 17.5114 95.445 17.5474C95.589 17.5834 95.625 17.4034 95.697 17.2594C95.841 16.9354 95.913 16.5754 96.237 16.3234V16.2514C96.381 15.9634 96.453 15.6394 96.741 15.4594C96.849 15.1354 97.065 14.8834 97.281 14.6674C97.353 14.5954 97.425 14.5234 97.461 14.4514C97.605 14.1634 97.749 13.8754 98.001 13.6594C98.217 13.4434 98.325 13.1554 98.577 12.9754C98.685 12.9034 98.685 12.7954 98.757 12.6874C98.829 12.6154 98.865 12.5074 98.937 12.5074C99.153 12.4714 99.261 12.2914 99.405 12.1834C99.729 11.9314 100.125 11.6794 100.449 11.4274C100.917 11.1034 101.385 11.2114 101.817 11.4994C102.033 11.8234 102.465 11.9314 102.717 12.1834C103.077 12.5434 103.329 12.9034 103.401 13.3714C103.581 14.0914 103.581 14.8474 103.473 15.5674C103.365 16.1434 103.293 16.7194 103.149 17.2954C102.933 18.1234 102.681 18.9874 102.429 19.8154C102.285 20.3194 102.069 20.8234 101.925 21.3274C101.817 21.6154 101.709 21.8674 101.745 22.1554C101.745 22.2274 101.745 22.2994 101.709 22.3354C101.457 22.5874 101.529 22.9114 101.385 23.1634C101.277 23.3434 101.241 23.5594 101.277 23.7754C101.313 23.9194 101.241 24.0994 101.205 24.2434C101.169 24.3154 101.097 24.3514 101.097 24.4234ZM98.397 4.73142C98.397 4.73142 98.469 4.80342 98.469 4.76742C98.577 4.69542 98.649 4.62342 98.721 4.51542H98.649C98.577 4.51542 98.469 4.47942 98.469 4.47942C98.397 4.55142 98.397 4.65942 98.397 4.73142Z" fill="#1C1C1C"/>
<path d="M112.389 24.3874C112.281 24.3514 112.137 24.3514 112.065 24.2794C111.669 23.7754 111.453 23.1994 111.345 22.5874C111.309 22.4434 111.453 22.2994 111.345 22.1194C111.273 21.9394 111.201 21.7594 111.093 21.5074C110.949 21.6514 110.877 21.7594 110.805 21.8674C110.337 22.4794 109.869 23.0914 109.293 23.5594C109.149 23.7034 109.005 23.8114 108.861 23.9194C107.997 24.6754 107.025 24.6394 106.053 24.3514C105.513 24.1714 105.225 23.7754 104.937 23.3434C104.757 23.0914 104.649 22.8394 104.613 22.5154C104.577 22.2274 104.541 21.9754 104.469 21.6874C104.397 21.3634 104.505 21.0754 104.505 20.7514C104.541 20.3914 104.541 20.0674 104.721 19.7434C104.793 19.6354 104.757 19.4554 104.793 19.3474C104.937 18.7714 105.117 18.1594 105.297 17.6194C105.369 17.3314 105.513 17.0794 105.657 16.7914C105.693 16.6834 105.765 16.5394 105.801 16.3954C105.837 16.2514 105.945 16.1434 106.017 15.9994C106.233 15.7114 106.449 15.4234 106.593 15.0634C106.665 14.8834 106.773 14.7034 106.917 14.5594C107.061 14.4154 107.205 14.3074 107.277 14.1274C107.385 13.9834 107.529 13.8754 107.637 13.7314C107.673 13.6594 107.673 13.6234 107.745 13.5874C108.069 13.2994 108.393 12.9754 108.717 12.7234C108.861 12.6154 109.041 12.5074 109.185 12.4354C109.617 12.2194 110.085 12.0034 110.517 11.8594C110.985 11.6794 111.489 11.7154 111.957 11.8954C112.497 12.1114 113.037 12.3994 113.397 12.9034C113.541 13.1194 113.685 13.3714 113.865 13.5874C114.081 13.5514 114.081 13.3354 114.153 13.1914C114.225 13.0474 114.297 12.8674 114.369 12.6514C114.369 12.6514 114.405 12.6154 114.441 12.5794C114.657 12.5074 114.909 12.3274 115.161 12.3634C115.341 12.3634 115.557 12.5794 115.737 12.6514C115.989 12.7594 116.061 12.9034 116.061 13.1554C116.025 13.6954 115.881 14.1994 115.701 14.7034C115.629 14.9914 115.521 15.3154 115.413 15.6034C115.341 15.7834 115.485 15.9274 115.413 16.0714C115.341 16.2154 115.233 16.3594 115.125 16.4674C115.089 16.5754 115.053 16.6474 115.053 16.7554C115.017 17.0794 114.837 17.4034 114.909 17.7634C114.909 17.8714 114.873 17.9794 114.765 18.0514C114.549 18.2674 114.441 18.5194 114.513 18.8074C114.549 18.8794 114.513 18.9514 114.477 19.0234C114.297 19.2754 114.261 19.5994 114.153 19.9234C114.117 20.0314 114.081 20.1394 114.081 20.2474C114.117 20.4634 114.045 20.6434 113.973 20.8594C113.865 21.0754 113.829 21.3274 113.865 21.5794C113.901 21.6874 113.901 21.7594 113.865 21.8674C113.793 22.1194 113.793 22.3354 113.829 22.5874C113.901 23.0194 114.045 23.3794 114.225 23.7394C114.297 23.8474 114.405 23.8834 114.513 23.8474C115.053 23.6674 115.521 23.3434 115.917 22.9834C116.889 22.0834 117.681 21.0394 118.293 19.9234C119.013 18.6634 119.661 17.4034 120.381 16.1434C120.597 15.7474 120.741 15.3514 121.101 14.9914C121.353 15.0634 121.605 15.1354 121.821 15.3514C121.785 15.7114 121.605 16.0354 121.461 16.3594C121.245 16.9354 120.957 17.4754 120.777 18.0514C120.633 18.4834 120.417 18.8794 120.093 19.2394C119.949 19.4194 119.841 19.5994 119.769 19.8154C119.625 20.1034 119.409 20.3914 119.229 20.6794C119.049 20.9314 118.833 21.1474 118.653 21.3994C118.437 21.7234 118.185 22.0834 117.969 22.4434C117.645 22.9834 117.249 23.4514 116.817 23.8834C116.277 24.3874 115.737 24.9274 114.981 25.1074C114.657 25.3594 114.333 25.3594 113.937 25.2514C113.649 25.2154 113.361 25.1794 113.109 24.9994C113.001 24.8914 112.821 24.8554 112.677 24.7834C112.497 24.7474 112.461 24.6034 112.425 24.4234C112.533 24.3874 112.677 24.4234 112.605 24.2434C112.569 24.2074 112.497 24.1354 112.425 24.1714C112.317 24.2074 112.389 24.3154 112.389 24.3874ZM106.953 21.2554C106.845 21.4354 106.773 21.6154 106.953 21.7594C107.061 21.8674 107.061 21.9754 107.061 22.0834C107.025 22.2274 106.989 22.4434 106.881 22.5154C106.701 22.6954 106.809 22.9114 106.773 23.0914C106.773 23.3434 106.917 23.4154 107.061 23.5234C107.241 23.6314 107.385 23.5594 107.529 23.4514C108.177 23.0194 108.753 22.4794 109.221 21.8674C110.229 20.6434 111.021 19.2754 111.849 17.9434C111.957 17.7994 112.065 17.6194 112.137 17.4754C112.173 17.3314 112.101 17.1514 112.317 17.0434C112.497 16.9714 112.389 16.6834 112.569 16.5754C112.821 16.4314 112.821 16.1434 112.857 15.9274C112.929 15.1714 112.893 14.4514 112.677 13.7314C112.605 13.4794 112.533 13.2994 112.317 13.1194C112.245 13.1554 112.137 13.1914 112.065 13.2634C111.921 13.3714 111.813 13.5154 111.669 13.6234C111.597 13.6954 111.525 13.8034 111.453 13.8034C111.201 13.7674 111.237 13.9474 111.165 14.1274C111.093 14.2714 110.985 14.4514 110.805 14.4874C110.733 14.5234 110.661 14.5594 110.625 14.6314C110.445 15.0274 110.085 15.3154 109.797 15.6394C109.761 15.7114 109.653 15.7834 109.653 15.8554C109.689 16.1434 109.437 16.2514 109.329 16.4314C109.257 16.5394 109.149 16.6114 109.005 16.6834C108.861 16.7554 108.933 16.9714 108.825 17.1154C108.789 17.1154 108.753 17.1514 108.717 17.1874C108.501 17.2594 108.465 17.4394 108.501 17.6554C108.537 17.7274 108.465 17.7994 108.465 17.9074C108.393 18.2314 108.105 18.4114 108.069 18.7714C108.069 18.8434 107.961 18.9154 107.889 18.9514C107.745 19.0234 107.709 19.1314 107.781 19.2754C107.853 19.4554 107.745 19.6354 107.637 19.7074C107.457 19.8514 107.349 19.9234 107.493 20.1394C107.565 20.3194 107.529 20.4634 107.313 20.5714C107.133 20.7154 106.881 20.9314 106.917 21.2554H106.953ZM107.025 21.1474V21.2554H106.953C106.953 21.2194 106.953 21.1834 106.989 21.1474H107.025Z" fill="#1C1C1C"/>
<path d="M129.186 16.5394C129.438 16.6834 129.69 16.8634 129.942 17.0794C129.834 17.4394 129.69 17.7994 129.474 18.1234C128.322 19.9594 127.134 21.7594 125.622 23.3434C125.118 23.8474 124.578 24.3154 123.93 24.6754C123.426 24.9634 122.85 25.0354 122.238 25.0714C122.058 25.1074 121.914 25.1074 121.734 25.1074C121.626 25.1074 121.518 25.1074 121.41 25.0714C120.834 24.8554 120.258 24.7114 119.898 24.2794C119.538 23.8114 119.214 23.3434 118.89 22.8394C118.782 22.6954 118.71 22.4794 118.674 22.2634C118.602 21.9394 118.638 21.5794 118.458 21.2914C118.566 20.9314 118.35 20.5714 118.458 20.2114C118.53 19.8874 118.53 19.5274 118.494 19.1674C118.458 18.6994 118.674 18.2674 118.746 17.8354C118.926 17.6554 118.89 17.4394 118.926 17.2594C119.034 16.7914 119.286 16.3594 119.574 15.9634C119.682 15.7474 119.862 15.5314 119.97 15.3514C120.042 15.2434 120.114 15.1354 120.114 15.0274C120.186 14.7394 120.366 14.4874 120.582 14.2354C120.618 14.1994 120.69 14.1634 120.69 14.0914C120.942 13.6234 121.338 13.3354 121.662 12.9394C121.914 12.6874 122.166 12.4714 122.526 12.3994C122.598 12.3994 122.67 12.3274 122.742 12.2554C123.102 12.0034 123.498 11.8594 123.858 11.7154C124.254 11.5714 124.65 11.6074 125.046 11.7154C125.19 11.7514 125.334 11.8594 125.442 11.9314C125.73 12.1474 125.946 12.3634 126.198 12.5434C126.594 12.8314 126.738 13.1914 126.846 13.5874C126.846 13.6954 126.81 13.8394 126.882 13.9474C127.062 14.4154 126.99 14.8474 126.738 15.2794V15.3514C126.666 16.0354 126.234 16.5394 125.838 17.0434C125.226 17.7994 124.506 18.4474 123.642 18.9514C123.138 19.2394 122.598 19.4194 122.022 19.5274C121.734 19.5634 121.41 19.5274 121.122 19.5274C120.906 19.5274 120.87 19.5634 120.798 19.7794C120.654 20.1754 120.654 20.6434 120.474 21.0394C120.438 21.0754 120.474 21.1834 120.474 21.2554C120.51 21.4354 120.51 21.6514 120.546 21.8674C120.582 22.0474 120.51 22.1914 120.258 22.2634C120.474 22.3714 120.618 22.4794 120.654 22.6594C120.69 22.8754 120.798 23.0914 120.798 23.2714C120.798 23.7394 121.302 23.8834 121.59 24.1714C121.698 24.2434 121.914 24.2794 122.058 24.2434C122.634 24.1354 123.174 23.9914 123.678 23.7394C123.786 23.7034 123.858 23.6314 123.894 23.5234C123.894 23.4514 123.93 23.3794 124.002 23.3434C124.362 23.0554 124.614 22.6594 124.974 22.3714C125.226 22.1914 125.334 21.8314 125.694 21.7234C125.73 21.7234 125.766 21.6154 125.802 21.5794C126.162 20.8234 126.594 20.2114 127.098 19.4554C127.206 19.3114 127.386 19.1674 127.458 18.9874C127.71 18.4834 128.07 18.0874 128.394 17.6554C128.574 17.4034 128.754 17.2234 128.862 16.9354C128.934 16.7554 129.006 16.6114 129.186 16.5394ZM124.506 15.8194C124.542 15.8194 124.578 15.8554 124.614 15.8914H124.65C124.686 15.8554 124.686 15.8554 124.722 15.8194C124.686 15.8194 124.65 15.7834 124.614 15.7834C124.578 15.7834 124.506 15.8194 124.47 15.8194C124.578 15.6034 124.722 15.3874 124.83 15.1354C124.902 14.9194 125.046 14.7034 125.226 14.5594C125.442 14.4154 125.586 14.2714 125.478 14.0194C125.442 13.9474 125.478 13.8754 125.514 13.8034C125.586 13.6954 125.658 13.5874 125.694 13.4794C125.766 13.2634 125.658 12.7954 125.514 12.7594C125.334 12.6514 125.154 12.7594 124.938 12.8314C124.902 12.8674 124.866 12.8674 124.83 12.9034C124.146 13.4074 123.642 14.0194 123.102 14.6674C122.922 14.9194 122.634 15.1354 122.454 15.3874C122.274 15.6034 122.202 15.9634 122.094 16.2154C122.022 16.3594 121.842 16.4314 121.806 16.5394C121.662 16.7914 121.338 16.9354 121.482 17.2954C121.482 17.3314 121.446 17.4394 121.41 17.5114C121.338 17.6194 121.23 17.7634 121.158 17.8714C121.122 17.9434 121.122 18.0154 121.23 18.0874C121.266 18.1234 121.374 18.1234 121.41 18.1234C121.734 18.0874 121.986 17.9434 122.238 17.7274C122.454 17.5474 122.634 17.3674 122.922 17.4394C123.066 17.4394 123.21 17.2954 123.21 17.1514C123.21 16.8994 123.354 16.7554 123.57 16.6474C123.822 16.5034 124.038 16.3234 124.182 16.0714C124.218 15.8914 124.326 15.8194 124.506 15.8194Z" fill="#1C1C1C"/>
<path d="M131.343 6.85542C131.451 6.92742 131.559 6.85542 131.559 6.74742C131.559 6.67542 131.559 6.56742 131.523 6.49542C131.487 6.35142 131.451 6.17142 131.559 6.02742C131.595 5.91942 131.631 5.77542 131.667 5.63142C131.703 5.59542 131.703 5.55942 131.703 5.52342C131.703 5.27142 132.063 5.19942 132.027 4.91142C131.991 4.69542 132.171 4.55142 132.279 4.44342C132.279 4.40742 132.279 4.40742 132.279 4.40742C132.351 4.33542 132.459 4.26342 132.531 4.19142C132.711 4.04742 132.819 3.86742 132.711 3.57942C132.675 3.50742 132.639 3.39942 132.675 3.32742C132.783 3.00342 132.855 2.64342 133.215 2.46342C133.431 2.35542 133.503 2.13942 133.431 1.92342C133.359 1.59942 133.503 1.38342 133.647 1.13142C133.683 1.09542 133.683 1.05942 133.719 1.05942C133.863 0.987421 134.043 1.05942 134.151 0.87942C134.223 0.771419 134.331 0.663421 134.439 0.55542C134.583 0.69942 134.691 0.807421 134.835 0.87942C134.979 1.02342 135.159 1.09542 135.231 1.23942C135.303 1.38342 135.195 1.59942 135.303 1.77942C135.375 1.88742 135.267 2.03142 135.159 2.13942V2.10342C135.159 2.31942 135.159 2.53542 135.123 2.75142C135.087 2.93142 135.015 3.07542 134.763 3.03942C134.619 3.03942 134.583 3.18342 134.691 3.29142C134.835 3.39942 134.907 3.50742 134.835 3.65142C134.547 4.19142 134.439 4.76742 134.223 5.34342C134.187 5.45142 134.151 5.52342 134.007 5.55942C133.935 5.59542 133.899 5.70342 133.935 5.81142C134.043 5.99142 134.043 6.13542 133.935 6.31542C133.755 6.56742 133.719 6.56742 133.755 6.63942C133.791 6.81942 133.755 6.99942 133.647 7.10742C133.467 7.35942 133.395 7.61142 133.395 7.89942C133.359 8.22342 133.179 8.51142 133.215 8.83542C133.215 8.90742 133.107 8.97942 133.035 9.01542C132.963 9.05142 132.891 9.01542 132.855 9.12342C132.855 9.30342 132.819 9.48342 132.783 9.62742C132.999 9.91542 132.675 10.0954 132.711 10.3474C132.531 10.6354 132.351 10.9234 132.495 11.3194C132.387 11.5714 132.387 11.8594 132.207 12.0754C132.027 12.3274 132.099 12.6874 131.811 12.8674C131.811 12.8674 131.775 12.9034 131.811 12.9394C131.919 13.4434 131.595 13.8754 131.523 14.3434C131.487 14.7394 131.343 15.1354 131.199 15.5314C130.983 16.1794 130.875 16.8994 130.767 17.5834C130.695 18.0154 130.623 18.4834 130.551 18.9154C130.479 19.2034 130.371 19.4914 130.443 19.7794V19.8514C130.407 20.2834 130.191 20.6434 130.299 21.0754C130.371 21.4714 130.335 21.8674 130.335 22.2634C130.299 22.8754 130.551 23.4154 130.767 23.9914C130.839 24.1714 131.091 24.2434 131.307 24.1714C131.775 23.9554 132.135 23.6314 132.495 23.2354C132.567 23.1634 132.603 22.9834 132.675 22.8754C132.711 22.7314 132.783 22.5874 132.927 22.5874C133.215 22.5514 133.287 22.4074 133.287 22.1554C133.287 22.1194 133.323 22.0474 133.359 22.0474C133.647 22.0114 133.647 21.7234 133.755 21.5434C133.971 21.1834 134.115 20.7874 134.475 20.5354C134.547 20.4634 134.583 20.3194 134.619 20.2474C134.727 20.0674 134.799 19.8514 134.943 19.7074C135.087 19.5274 135.123 19.4194 135.087 19.2034C135.051 18.9874 135.231 18.8074 135.339 18.6634C135.483 18.4834 135.627 18.2674 135.699 18.0874C135.807 17.7634 135.987 17.4754 136.275 17.2954C136.383 17.1874 136.275 17.0794 136.311 17.0074C136.383 16.8274 136.527 16.6474 136.671 16.5034C136.707 16.4314 136.815 16.4314 136.923 16.4314C137.211 16.4674 137.499 16.5034 137.751 16.5754C137.895 16.7914 137.751 16.9354 137.679 17.1154C137.643 17.2954 137.571 17.4754 137.499 17.6554C137.139 18.3754 136.779 19.0954 136.383 19.8154C136.131 20.3194 135.843 20.8234 135.555 21.3274C134.979 22.3714 134.331 23.3434 133.467 24.1714C133.287 24.3514 133.071 24.4954 132.891 24.6754C132.099 25.3954 131.199 25.4314 130.227 25.2874C130.083 25.2514 129.939 25.2154 129.831 25.1434C129.399 24.8914 129.003 24.6394 128.715 24.2434C128.535 24.0274 128.355 23.8114 128.463 23.4874C128.355 23.1994 128.427 22.8034 128.067 22.5874C127.959 22.5154 127.923 22.2994 128.031 22.1554C128.139 22.0114 128.067 21.9394 127.995 21.8674C127.923 21.7954 127.851 21.6874 127.887 21.6154C127.995 21.2194 127.887 20.8594 127.815 20.4634C127.779 20.3914 127.779 20.2834 127.815 20.2114C127.887 19.9954 127.851 19.7794 127.887 19.5994C127.887 19.4554 128.139 19.3834 128.103 19.1674C128.067 19.0954 128.139 18.9874 128.139 18.9874C127.851 18.6994 127.995 18.5554 128.211 18.3394C128.319 18.2314 128.139 18.2314 128.103 18.1954C128.067 18.1594 128.067 18.0874 128.067 18.0514C128.139 17.9794 128.355 17.9794 128.247 17.8354C128.139 17.6914 128.283 17.6554 128.319 17.5834C128.319 17.4754 128.283 17.3674 128.283 17.2234C128.247 17.0434 128.355 17.0074 128.499 16.9714C128.679 16.8994 128.679 16.7554 128.535 16.6834C128.499 16.6474 128.391 16.6474 128.391 16.6474C128.427 16.4314 128.427 16.2514 128.463 16.0354C128.715 15.8554 128.715 15.6394 128.607 15.3874C128.571 15.2794 128.643 15.1714 128.787 15.1354C128.895 15.0994 128.931 15.0274 128.859 14.9554C128.787 14.8114 128.751 14.7034 128.823 14.5594C128.859 14.4874 128.859 14.3794 128.859 14.3074C128.895 13.9114 128.967 13.5514 129.111 13.2274C129.183 13.0474 129.255 12.9034 129.255 12.6874C129.219 12.5794 129.291 12.4714 129.363 12.3634C129.543 12.1114 129.615 11.8594 129.651 11.5354L129.759 11.2114C129.759 10.9954 129.867 10.8874 130.083 10.8154C130.227 10.7794 130.263 10.5994 130.155 10.4914C129.975 10.3114 129.975 10.2394 130.227 10.1674C130.263 10.0234 130.335 9.84342 130.299 9.73542C130.227 9.48342 130.263 9.30342 130.407 9.15942C130.479 9.01542 130.515 8.90742 130.515 8.76342C130.515 8.65542 130.551 8.58342 130.551 8.47542C130.587 8.29542 130.875 8.18742 130.767 7.93542C130.875 7.75542 130.983 7.57542 131.055 7.39542C131.163 7.21542 131.271 7.03542 131.343 6.85542ZM132.351 4.51542C132.351 4.47942 132.351 4.47942 132.315 4.44342V4.55142L132.351 4.51542ZM131.343 6.85542C131.307 6.89142 131.307 6.92742 131.235 6.92742L131.163 6.85542H131.343ZM130.695 9.26742C130.695 9.23142 130.695 9.19542 130.659 9.15942C130.623 9.19542 130.587 9.19542 130.551 9.23142C130.515 9.30342 130.587 9.37542 130.623 9.37542C130.659 9.37542 130.695 9.30342 130.695 9.26742ZM129.291 13.8034L129.255 13.7674V13.8034H129.291Z" fill="#1C1C1C"/>
<path d="M149.24 27.6994C148.052 28.3834 146.828 28.3474 145.568 27.7714C145.1 27.5554 144.704 27.1594 144.416 26.7274C143.984 26.0794 143.588 25.4314 143.408 24.6754C143.336 24.3514 143.156 24.0274 143.012 23.7034C142.976 23.5954 142.904 23.4514 142.904 23.3434C142.868 22.9834 142.904 22.6234 142.796 22.2994C142.724 22.0474 142.832 21.8314 142.796 21.5794C142.76 21.3274 142.76 21.0394 142.76 20.7514C142.796 20.3194 142.904 19.8874 142.94 19.4554C142.976 19.3114 143.012 19.1674 143.12 19.0234C143.156 18.9874 143.156 18.8794 143.12 18.8434C143.012 18.4834 143.048 18.1594 143.192 17.8354C143.228 17.6914 143.3 17.5834 143.3 17.4394C143.3 17.2234 143.516 17.2234 143.552 17.0434C143.552 16.8994 143.516 16.7194 143.516 16.5754C143.516 16.5034 143.588 16.4674 143.624 16.3954C143.66 16.2874 143.732 16.1794 143.732 16.0714C143.732 15.8554 143.768 15.6754 143.876 15.4954C143.984 15.3154 143.984 15.0994 144.02 14.8834C144.02 14.7034 144.056 14.5594 144.2 14.4514C144.308 14.3074 144.344 14.1994 144.236 14.0194C144.2 13.9834 144.236 13.8754 144.272 13.8394C144.524 13.5874 144.596 13.2274 144.668 12.9034C144.704 12.7594 144.74 12.6154 144.848 12.5074C145.1 12.2554 145.172 11.9314 145.316 11.6434C145.532 11.1034 145.748 10.5994 146.108 10.1314C146.18 10.0234 146.216 9.91542 146.288 9.80742C146.468 9.44742 146.612 9.01542 146.936 8.69142C147.008 8.61942 147.008 8.54742 147.044 8.43942C147.188 8.04342 147.332 7.68342 147.62 7.35942C147.908 7.03542 148.124 6.63942 148.52 6.42342C148.592 6.35142 148.628 6.20742 148.664 6.09942C148.7 5.99142 148.7 5.88342 148.736 5.77542C148.808 5.70342 148.916 5.55942 148.988 5.55942C149.276 5.63142 149.312 5.41542 149.456 5.23542C149.6 5.01942 149.78 4.80342 149.924 4.55142C150.032 4.40742 150.14 4.37142 150.284 4.29942C150.32 4.22742 150.32 4.08342 150.392 4.01142C150.5 3.90342 150.608 3.79542 150.752 3.68742C151.004 3.47142 151.256 3.29142 151.472 3.03942C151.652 2.85942 151.832 2.78742 152.084 2.85942C152.264 2.89542 152.408 2.85942 152.444 2.67942C152.48 2.35542 152.732 2.21142 152.948 2.17542C153.2 2.13942 153.38 1.99542 153.56 1.88742C153.632 1.81542 153.704 1.77942 153.812 1.70742C153.956 1.63542 154.172 1.70742 154.316 1.70742C154.496 1.67142 154.64 1.49142 154.82 1.49142C155.072 1.41942 155.36 1.45542 155.648 1.45542C156.26 1.45542 156.764 1.70742 157.196 2.13942C157.376 2.35542 157.556 2.53542 157.772 2.71542C158.168 3.03942 158.42 3.43542 158.6 3.90342C158.852 4.65942 158.852 5.41542 158.708 6.17142C158.492 7.21542 158.168 8.18742 157.808 9.15942C157.664 9.55542 157.448 9.91542 157.268 10.2754C157.16 10.4914 157.016 10.5994 156.728 10.5634C156.656 10.5274 156.512 10.5994 156.404 10.5994C156.116 10.5994 155.864 10.3474 155.9 10.0954C155.936 9.69942 155.936 9.30342 156.188 8.94342C156.224 8.43942 156.584 8.04342 156.728 7.53942C156.764 7.28742 156.908 7.03542 156.908 6.74742C156.908 6.63942 156.944 6.45942 157.016 6.35142C157.124 6.20742 157.16 6.09942 157.124 5.91942C157.124 5.84742 157.196 5.73942 157.232 5.66742C157.268 5.63142 157.34 5.52342 157.34 5.52342C157.16 5.30742 157.268 5.12742 157.376 4.94742C157.376 4.87542 157.376 4.76742 157.34 4.65942C157.268 4.51542 157.232 4.37142 157.34 4.22742C157.268 3.83142 157.232 3.43542 156.908 3.14742C156.872 3.11142 156.8 3.00342 156.764 2.93142C156.692 2.82342 156.584 2.78742 156.44 2.82342C156.26 2.82342 156.08 2.85942 155.9 2.93142C155 3.25542 154.172 3.68742 153.56 4.47942C153.452 4.62342 153.272 4.76742 153.092 4.87542C152.876 5.01942 152.66 5.12742 152.552 5.37942C152.552 5.45142 152.444 5.52342 152.372 5.59542C152.084 5.77542 151.832 6.02742 151.724 6.35142C151.688 6.45942 151.652 6.53142 151.58 6.60342C151.292 6.74742 151.184 7.03542 151.04 7.28742C150.68 7.97142 150.176 8.54742 149.744 9.19542C149.708 9.26742 149.6 9.30342 149.6 9.44742C149.6 9.66342 149.492 9.84342 149.348 9.91542C149.204 10.0234 149.168 10.1314 149.168 10.2754C149.132 10.4194 149.096 10.5994 148.88 10.5994C148.844 10.5994 148.808 10.7074 148.808 10.7434C148.88 10.8874 148.844 10.9594 148.736 11.0314C148.628 11.0674 148.52 11.1394 148.484 11.2474C148.484 11.7154 148.088 12.0394 148.124 12.5074C148.124 12.5434 148.052 12.6154 148.016 12.6514C147.944 12.7234 147.872 12.7594 147.836 12.8314C147.764 13.0114 147.692 13.1914 147.656 13.3354C147.548 13.7314 147.476 14.0914 147.26 14.4514C147.188 14.5594 147.152 14.7034 147.116 14.8474C147.044 15.0994 146.936 15.3514 146.72 15.5674C146.576 15.7474 146.432 15.9634 146.576 16.2514C146.648 16.3234 146.612 16.5394 146.54 16.6474C146.36 16.8994 146.324 17.1874 146.252 17.4754C146.216 17.6554 146.216 17.8354 146.108 18.0154C146.036 18.0874 146.036 18.1954 146.036 18.2674C146.036 18.4834 146.072 18.7354 145.928 18.9514C145.82 19.0954 146 19.3474 145.82 19.5274C145.748 19.8874 145.712 20.2114 145.64 20.5714C145.532 21.0034 145.568 21.4714 145.496 21.9034V22.1194C145.676 22.4074 145.604 22.6954 145.532 22.9834C145.46 23.2354 145.46 23.4874 145.604 23.7394C145.64 23.8834 145.64 24.0274 145.532 24.1354C145.352 24.2794 145.568 24.2794 145.604 24.3874C145.64 24.3874 145.604 24.4234 145.604 24.4594C145.424 24.3874 145.352 24.4954 145.424 24.6394C145.532 24.7834 145.496 25.1074 145.784 25.1794C145.82 25.1794 145.856 25.3234 145.856 25.4314C145.856 25.6834 145.82 25.8994 146.036 26.1154C146.108 26.1874 146.144 26.3314 146.18 26.4394C146.324 26.8714 146.648 27.1594 147.044 27.3754C147.152 27.4474 147.296 27.4834 147.44 27.4114C148.088 27.1234 148.736 26.8354 149.276 26.2954C149.528 26.0434 149.852 25.7914 150.104 25.5034C150.284 25.2874 150.428 25.0354 150.572 24.8194C150.716 24.6394 150.968 24.4594 151.076 24.2434C151.184 24.0634 151.364 23.9914 151.472 23.8114C151.58 23.6674 151.544 23.4514 151.616 23.3074C151.652 23.1274 151.796 22.9834 151.904 22.8394C151.976 22.7314 152.084 22.6954 152.192 22.7314C152.228 22.6594 152.264 22.6234 152.264 22.5874C152.192 22.2274 152.336 21.9754 152.516 21.7594C152.732 21.4714 152.912 21.1834 152.948 20.8234C152.948 20.7154 152.984 20.5714 153.056 20.4994C153.272 20.2474 153.344 19.9234 153.488 19.6354C153.704 19.0954 153.956 18.5914 154.208 18.0514C154.316 17.7994 154.388 17.5474 154.46 17.2954C154.496 17.0794 154.568 16.9354 154.748 16.8274C154.784 16.8274 154.82 16.7554 154.82 16.7194C154.748 16.3594 155.108 16.0354 154.856 15.6394C154.64 15.6394 154.424 15.6394 154.208 15.7114C153.92 15.8194 153.596 15.8914 153.308 15.9274C152.948 15.9274 152.624 16.0354 152.3 16.1434L150.788 16.6834C150.572 16.7554 150.392 16.6834 150.248 16.5034C150.176 16.4674 150.104 16.3954 150.068 16.2874C149.96 16.1434 149.744 15.9994 149.816 15.7474C149.924 15.4234 149.996 15.1354 150.392 14.9554C151.184 14.5594 151.976 14.3434 152.804 14.1274C153.416 13.9834 154.028 13.8394 154.64 13.6594C155.144 13.5154 155.72 13.5154 156.26 13.3354C156.332 13.2994 156.44 13.3354 156.512 13.3354C156.656 13.3354 156.8 13.3714 156.944 13.2994C157.232 13.1914 157.556 13.1554 157.88 13.2634C157.916 13.2994 157.988 13.2994 158.024 13.2634C158.384 13.0474 158.816 13.1914 159.248 13.1914C159.752 13.1554 160.292 13.1914 160.832 13.1914C161.084 13.1914 161.264 13.2634 161.372 13.5154C161.444 13.8394 161.696 14.0194 161.876 14.2354C162.02 14.4514 161.948 14.7034 161.732 14.7394C161.372 14.8114 161.012 14.9554 160.616 14.9194C160.328 14.8474 160.04 14.9554 159.752 14.9194C159.608 14.8834 159.464 14.9554 159.356 14.8834C159.32 14.8834 159.248 14.8474 159.212 14.8834C158.816 15.0994 158.348 14.9914 157.916 15.1354C157.772 15.1714 157.628 15.2794 157.628 15.4594C157.664 15.7114 157.556 15.9274 157.484 16.1434C157.376 16.4674 157.268 16.8274 157.196 17.1874C157.124 17.5474 157.016 17.9074 156.944 18.2674C156.656 19.3834 156.44 20.4634 156.188 21.5794C156.044 22.2994 155.936 22.9834 155.792 23.7034C155.72 24.2074 155.576 24.7114 155.612 25.2514C155.612 25.5754 155.324 25.7914 155 25.7914C154.964 25.7914 154.928 25.7554 154.856 25.7554C154.1 25.6474 153.848 25.4314 153.776 24.6754C153.74 24.1354 153.776 23.5954 153.74 23.0554C153.74 22.9474 153.74 22.8394 153.704 22.7314C153.704 22.6954 153.596 22.6954 153.596 22.6954C153.488 22.8034 153.416 22.8754 153.38 22.9834C152.66 24.2434 151.76 25.3954 150.752 26.4754C150.32 26.9434 149.816 27.3754 149.24 27.6994ZM150.356 4.44342C150.356 4.40742 150.32 4.37142 150.284 4.33542C150.284 4.40742 150.248 4.44342 150.32 4.47942L150.356 4.44342ZM155.36 15.5314C155.324 15.5674 155.288 15.5674 155.252 15.6034C155.288 15.6034 155.324 15.6034 155.36 15.5674V15.5314ZM155.18 15.7114C155.18 15.7474 155.216 15.7474 155.216 15.7474V15.6394C155.216 15.6754 155.216 15.6754 155.18 15.7114ZM155.54 15.8554C155.504 15.8554 155.468 15.8194 155.432 15.8194L155.396 15.8554C155.432 15.8914 155.468 15.9274 155.468 15.9274C155.504 15.9274 155.54 15.8914 155.54 15.8554ZM154.82 17.4394C154.784 17.4754 154.748 17.5114 154.748 17.5834C154.712 17.6194 154.748 17.6914 154.784 17.7634C154.82 17.7274 154.892 17.6914 154.928 17.6554C154.964 17.5474 154.928 17.4754 154.82 17.4394ZM154.1 19.1314C154.208 19.1314 154.28 18.9874 154.28 18.8794C154.28 18.8434 154.244 18.8434 154.244 18.8434C154.208 18.8434 154.172 18.8434 154.136 18.8794C154.064 18.9154 154.028 18.9874 154.064 19.0954C154.064 19.0954 154.1 19.0954 154.1 19.1314ZM153.272 20.5714C153.38 20.5714 153.488 20.6434 153.596 20.5354C153.74 20.3194 153.92 20.1394 154.028 19.9234C154.1 19.8154 154.064 19.7074 154.028 19.5994C154.028 19.5634 153.992 19.5274 153.956 19.5274C153.884 19.5274 153.848 19.5274 153.812 19.5634C153.776 19.6354 153.74 19.7434 153.704 19.8154C153.56 20.0674 153.56 20.3914 153.272 20.5714C153.272 20.6074 153.236 20.6794 153.236 20.7154C153.236 20.7514 153.272 20.7874 153.272 20.7874V20.5714ZM152.984 21.5434C153.02 21.5434 153.02 21.5794 153.02 21.5794C153.02 21.5794 153.056 21.6154 153.056 21.5794C153.128 21.5794 153.128 21.5434 153.056 21.5074C153.056 21.5074 153.02 21.5434 152.984 21.5434ZM145.352 22.5514C145.352 22.5514 145.352 22.5154 145.316 22.5154C145.316 22.5154 145.28 22.5154 145.28 22.5514L145.316 22.5874C145.352 22.5874 145.352 22.5874 145.352 22.5514ZM152.228 22.8754H152.336V22.8034C152.264 22.8034 152.228 22.7674 152.228 22.7674C152.228 22.8034 152.228 22.8394 152.228 22.8754Z" fill="#1C1C1C"/>
<path d="M163.203 19.5274C163.275 19.4194 163.311 19.3114 163.383 19.2034C163.419 19.1314 163.455 19.0234 163.527 18.9874C163.743 18.0514 164.139 17.7634 164.607 17.1514C165.039 16.6474 165.399 16.0714 165.903 15.6394C166.227 15.3514 166.515 15.0634 166.839 14.7754C166.839 14.7754 166.875 14.7754 166.875 14.7394C167.091 14.2354 167.559 14.0914 167.955 13.8394C168.135 13.7674 168.315 13.6954 168.423 13.5154C168.459 13.4794 168.567 13.4434 168.639 13.4074C168.819 13.3714 168.999 13.3714 169.107 13.2994C169.359 13.1554 169.575 13.0834 169.719 13.4074C169.899 13.4794 170.043 13.5514 170.223 13.6234C170.367 13.6594 170.583 13.6594 170.583 13.8394C170.583 13.9474 170.439 14.0914 170.331 14.1634C170.043 14.3434 169.755 14.5594 169.503 14.7754C169.071 15.0994 168.639 15.3874 168.243 15.7114C167.919 15.9274 167.703 16.2514 167.451 16.5034C167.199 16.7914 166.983 17.0794 166.731 17.3674C166.407 17.6914 166.155 18.0874 165.939 18.4834C165.723 18.8434 165.471 19.1674 165.255 19.5274C164.643 20.5354 164.067 21.5794 163.599 22.6594C163.491 22.8394 163.383 23.0194 163.311 23.1994C163.275 23.2714 163.203 23.3794 163.239 23.4514C163.311 23.8474 163.167 24.1714 163.131 24.5314C163.131 24.8554 162.987 25.1434 162.915 25.4674C162.447 25.5034 162.015 25.5394 161.583 25.4674C161.223 25.4314 160.971 25.2874 160.863 24.9274C160.791 24.6034 160.575 24.3154 160.647 23.9914C160.539 23.5234 160.647 23.0194 160.539 22.5514C160.503 22.4074 160.539 22.2634 160.539 22.1194C160.575 21.7594 160.611 21.3634 160.647 20.9674C160.683 20.6794 160.683 20.3914 160.791 20.1394C160.827 20.1034 160.863 20.0314 160.863 19.9594C160.863 18.9874 161.115 18.0874 161.259 17.1514C161.295 16.6114 161.511 16.0714 161.655 15.5314C161.691 15.3874 161.763 15.2434 161.799 15.0994C161.907 14.6314 162.051 14.1634 162.375 13.7674C162.411 13.7314 162.375 13.6234 162.375 13.5154C162.375 13.4434 162.303 13.3354 162.339 13.2634C162.555 12.9394 162.627 12.5434 162.735 12.1834C162.735 12.1114 162.771 12.0394 162.807 12.0034C163.059 11.7874 163.599 11.7154 163.851 11.8234C164.139 11.9674 164.427 12.1114 164.715 12.2554C164.931 12.3634 165.039 12.5434 164.931 12.7954C164.823 13.0474 164.751 13.3354 164.751 13.6594C164.751 13.6954 164.715 13.7314 164.715 13.7674C164.679 13.8394 164.679 13.8754 164.643 13.9114C164.571 13.9834 164.355 13.9474 164.427 14.0914C164.463 14.1994 164.427 14.2714 164.391 14.3794C164.319 14.4514 164.283 14.5594 164.355 14.6674C164.499 14.8474 164.463 15.0274 164.319 15.1714C164.103 15.3874 164.067 15.6034 164.103 15.8914C164.139 16.2154 164.067 16.5754 163.923 16.8994C163.563 17.5474 163.455 18.3034 163.095 19.0234C163.023 19.1674 163.023 19.3474 163.203 19.5274Z" fill="#1C1C1C"/>
<path d="M178.36 14.9554C178.936 14.2354 179.188 13.3714 179.8 12.7954C180.052 12.7594 180.088 13.0114 180.232 13.1194C180.412 13.1914 180.556 13.2994 180.664 13.4434C180.736 13.4794 180.772 13.5874 180.772 13.6954C180.772 13.8034 180.736 13.9474 180.7 14.0914C180.556 14.5234 180.52 14.9554 180.376 15.3514C180.268 15.7474 180.16 16.1074 179.98 16.4674C179.836 16.7914 179.728 17.1514 179.62 17.4754C179.548 17.6194 179.476 17.7634 179.476 17.8714C179.512 18.1234 179.44 18.2674 179.296 18.4474C179.224 18.4834 179.188 18.5554 179.188 18.6274C179.152 19.1314 178.828 19.5634 178.72 20.0674C178.612 20.5354 178.432 21.0034 178.36 21.4714C178.288 21.8674 178.252 22.2994 178.252 22.6954C178.288 23.5594 178.756 23.5594 179.26 23.1994C179.728 22.8394 180.16 22.4794 180.52 22.0114C181.24 21.1834 181.816 20.2834 182.392 19.3474C182.572 19.0234 182.788 18.6994 183.004 18.3754C183.076 18.3754 183.112 18.3394 183.148 18.3754C183.976 18.6994 184.084 18.5554 183.58 19.4554C183.184 20.1034 182.824 20.7154 182.428 21.3634C181.96 22.1194 181.384 22.8034 180.736 23.4514C180.268 23.9194 179.764 24.2794 179.152 24.3874C178.54 24.4954 177.892 24.5314 177.388 24.0274C177.208 23.8474 176.956 23.6674 176.776 23.4874C176.668 23.4154 176.596 23.3074 176.632 23.1994C176.632 23.1634 176.668 23.0914 176.632 23.0554C176.236 22.5874 176.272 21.9754 176.236 21.4354C176.236 21.3634 176.2 21.2914 176.2 21.2194C176.164 21.1834 176.092 21.1834 176.056 21.1834C175.876 21.3994 175.696 21.5794 175.516 21.7954C175.516 22.1194 175.264 22.2634 175.12 22.4794C174.976 22.6594 174.868 22.8394 174.652 22.8754C174.544 22.9114 174.508 23.0554 174.472 23.1634C174.472 23.2354 174.436 23.3074 174.4 23.3074C174.148 23.3434 174.076 23.4874 174.004 23.6674C173.86 23.9914 173.608 24.2434 173.284 24.3874C173.14 24.4234 173.032 24.4954 172.924 24.6034C172.636 24.8554 172.276 24.9274 171.88 24.9634C171.664 24.9634 171.448 24.9634 171.232 24.8194C171.16 24.7834 171.124 24.7474 171.052 24.7474C170.44 24.5674 170.08 24.1714 169.828 23.5954C169.612 23.1634 169.468 22.7314 169.504 22.2274C169.576 21.7594 169.54 21.2914 169.54 20.8234C169.54 20.7514 169.576 20.6434 169.612 20.5714C169.684 20.4994 169.648 20.4274 169.648 20.3194C169.612 20.2834 169.576 20.1394 169.612 20.1394C169.9 19.9594 169.756 19.6354 169.864 19.3834C169.936 19.1314 170.08 18.9154 170.08 18.6634C170.116 18.4474 170.404 18.3754 170.296 18.1234C170.296 18.1234 170.332 18.0514 170.368 18.0514C170.476 18.0514 170.548 18.0154 170.548 17.9074V17.6194C170.512 17.4754 170.584 17.3674 170.692 17.2954C170.836 17.2234 170.908 17.1154 170.872 16.9354C170.836 16.8634 170.836 16.7914 170.872 16.7554C171.16 16.4674 171.16 15.9994 171.52 15.7834C171.628 15.7114 171.664 15.5314 171.736 15.4234C171.844 15.2074 171.952 14.9554 172.132 14.7754C172.528 14.4154 172.744 13.9114 173.284 13.6954C173.572 13.3354 173.968 13.1194 174.364 12.8674C174.76 12.6154 175.156 12.5074 175.624 12.5074C176.632 12.4714 176.416 12.3274 177.316 13.1554C177.568 13.4074 177.82 13.6594 177.928 14.0554C178.036 14.3434 178.216 14.6314 178.36 14.9554ZM177.424 15.4234C177.532 15.0634 177.46 14.7754 177.208 14.4874C177.1 14.3434 176.92 14.2714 176.776 14.1994C176.56 14.0554 176.452 14.1274 176.272 14.3434C176.2 14.4154 176.128 14.4514 176.056 14.5234C175.876 14.6314 175.732 14.7754 175.552 14.8834C175.336 14.9914 175.3 15.2434 175.156 15.3874C174.904 15.6394 174.724 15.8914 174.472 16.1074C174.256 16.3234 174.184 16.6834 173.86 16.8274C173.824 16.8274 173.824 16.8994 173.788 16.9354C173.716 17.4034 173.356 17.7274 173.248 18.1954C173.212 18.3034 173.104 18.3754 173.032 18.4474C172.816 18.5554 172.708 18.6994 172.744 18.9514C172.744 19.0954 172.672 19.2754 172.672 19.4194C172.636 19.5994 172.456 19.6354 172.384 19.8154C172.348 20.0314 172.168 20.1754 172.168 20.4274C172.204 20.5354 172.132 20.6074 172.096 20.7154C171.952 21.2194 171.7 21.7234 171.7 22.2994C171.7 22.3714 171.7 22.4794 171.664 22.5514C171.556 22.9474 171.592 23.3434 171.628 23.7394C171.664 23.9914 171.844 24.0634 172.024 23.9194C172.348 23.7034 172.708 23.4514 172.996 23.1634C173.86 22.2994 174.616 21.2914 175.264 20.2834C175.768 19.4914 176.236 18.6994 176.74 17.9434C176.884 17.6914 177.064 17.4754 177.1 17.2234C177.208 16.6114 177.532 16.0354 177.424 15.4234Z" fill="#1C1C1C"/>
<path d="M191.49 12.6154C191.634 12.7594 191.742 12.9754 191.994 13.0114C192.174 13.0834 192.318 13.1914 192.462 13.2994C192.534 13.3354 192.606 13.4434 192.606 13.5154C192.534 13.9114 192.678 14.3074 192.462 14.6674C192.354 15.3154 192.246 15.9994 192.282 16.6474C192.318 16.9354 192.282 17.1874 192.138 17.4394C191.994 17.7274 191.958 18.0874 191.922 18.3754C191.886 18.7714 191.922 19.1674 191.706 19.5274C191.778 19.8514 191.634 20.1034 191.562 20.3914C191.526 20.6794 191.454 20.9314 191.418 21.1834C191.31 21.8674 191.202 22.5154 191.022 23.1634C190.914 23.4874 190.914 23.7754 190.95 24.0994C190.95 24.2794 191.058 24.3874 191.238 24.3514C191.778 24.1714 192.318 24.4234 192.894 24.4234C192.93 24.4234 192.966 24.4234 193.002 24.4594C193.362 24.6754 193.722 24.7834 194.118 24.8554C194.334 24.9274 194.442 25.0714 194.406 25.1794C194.334 25.3594 194.19 25.3594 194.082 25.3594C193.902 25.3954 193.758 25.3594 193.578 25.3594C192.75 25.3594 191.922 25.3234 191.058 25.3234H190.878C190.59 25.3594 190.374 25.5754 190.41 25.8274C190.446 26.1874 190.41 26.5114 190.158 26.7994C190.122 26.8354 190.158 26.9434 190.122 27.0154C190.086 27.3034 190.014 27.5914 189.942 27.8794C189.762 28.0234 189.834 28.2034 189.798 28.3834C189.762 28.8154 189.654 29.2114 189.366 29.5354C189.258 29.7154 189.15 29.8594 189.186 30.1114C189.006 30.3994 189.006 30.7594 188.862 31.0834C188.682 31.4074 188.502 31.7314 188.322 32.0554C188.286 32.1274 188.178 32.1634 188.106 32.2354C187.998 32.3434 187.818 32.4514 187.71 32.5954C187.422 32.9194 187.026 33.0634 186.702 33.3154C186.666 33.3874 186.594 33.3874 186.522 33.3874C185.838 33.4234 185.118 33.4954 184.434 33.3874C183.966 33.3514 183.534 33.1714 183.174 32.8474C182.634 32.3434 182.202 31.7314 181.986 31.0114C181.95 30.8674 181.842 30.7594 181.806 30.6154C181.77 30.5434 181.734 30.4354 181.734 30.3634C181.842 29.8594 181.698 29.3554 181.842 28.8514C181.878 28.6714 181.878 28.5274 182.022 28.3834C182.13 28.2754 182.166 28.0234 182.166 27.8434C182.166 27.6634 182.238 27.5554 182.346 27.4474C182.526 27.3034 182.67 27.1234 182.85 26.9794C182.994 26.8354 183.138 26.6554 183.318 26.5834C183.426 26.5114 183.534 26.4394 183.57 26.3314C183.642 26.1154 184.002 26.1154 183.966 25.7914C183.966 25.7554 184.038 25.6834 184.11 25.6474C184.65 25.5034 185.118 25.2514 185.622 25.0714C185.946 24.9274 186.27 24.8194 186.594 24.7474C186.954 24.6754 187.278 24.5674 187.602 24.4954C187.926 24.3874 188.358 24.4954 188.682 24.3874C188.79 24.3514 188.862 24.2794 188.862 24.1354C188.898 23.9914 188.934 23.8114 188.934 23.6674C188.934 23.4874 188.934 23.3434 189.006 23.1994C189.042 23.1634 189.078 23.0914 189.078 23.0554C188.718 22.0474 189.51 21.5074 189.582 20.6794C189.654 20.3914 189.582 20.0674 189.87 19.8514C189.834 19.8514 189.834 19.8154 189.798 19.8154H189.726C189.69 19.8514 189.618 19.8874 189.582 19.9594C189.33 20.3194 189.078 20.6794 188.826 21.0394C188.25 21.9754 187.71 22.4434 186.846 23.2354C186.522 23.5594 186.126 23.8114 185.622 23.8114C185.262 23.8114 184.938 23.9554 184.614 23.9554C184.29 23.9914 184.038 23.7754 183.75 23.7754C183.714 23.7754 183.642 23.6674 183.642 23.5954C183.642 23.3794 183.57 23.3074 183.354 23.3434C183.246 23.3434 183.138 23.2354 183.066 23.1634C182.958 22.9834 182.85 22.7674 182.706 22.5514C182.706 22.5154 182.634 22.4434 182.634 22.3714C182.634 21.8314 182.382 21.2914 182.454 20.7154C182.49 20.5354 182.49 20.3554 182.526 20.1754C182.598 20.0314 182.598 19.8514 182.526 19.7074C182.49 19.5634 182.562 19.4914 182.634 19.4194C182.67 19.3474 182.706 19.2754 182.67 19.2394C182.526 18.8794 182.634 18.5554 182.814 18.2314C182.922 18.0514 183.03 17.8714 182.922 17.6554V17.5834C183.066 17.0794 183.03 16.5394 183.354 16.1074C183.426 16.0354 183.426 15.9274 183.462 15.8554C183.498 15.7114 183.462 15.6394 183.39 15.5314C183.21 15.3514 183.246 15.1714 183.462 15.0274C183.642 14.8834 183.714 14.7754 183.714 14.5234C183.714 14.1994 183.858 13.9114 184.074 13.6594C184.218 13.4794 184.362 13.2994 184.398 13.0474C184.434 12.8314 184.578 12.7234 184.722 12.6154C184.866 12.4714 185.046 12.4714 185.19 12.6514C185.298 12.7594 185.406 12.8314 185.55 12.8674C185.766 12.9754 185.982 13.0474 186.162 13.1914C186.342 13.3354 186.45 13.4434 186.378 13.8034C186.198 14.4154 185.982 15.0274 185.946 15.6754C185.658 16.4674 185.55 17.3314 185.298 18.1594C185.118 18.7354 184.974 19.3474 184.902 19.9954C184.902 20.1034 184.902 20.2114 184.866 20.3194C184.614 20.9674 184.83 21.5434 184.974 22.1554C184.974 22.2274 185.082 22.2994 185.154 22.3714C185.226 22.4434 185.334 22.4794 185.442 22.4074C185.694 22.1914 185.946 21.9754 186.162 21.7594C186.378 21.5074 186.594 21.2554 186.774 21.0034C186.846 20.9314 186.918 20.8594 186.918 20.7514C186.99 20.3194 187.278 20.0314 187.53 19.6714C187.746 19.3114 187.998 18.9514 188.178 18.5554C188.358 18.1234 188.646 17.7634 188.862 17.3314C189.114 17.2594 189.114 17.0074 189.222 16.7914C189.366 16.3954 189.546 16.0354 189.726 15.6754C189.762 15.5314 189.87 15.4234 189.942 15.3154C190.086 15.2074 190.158 15.0634 190.122 14.8834C190.086 14.6314 190.194 14.3794 190.338 14.1994C190.446 14.0194 190.59 13.8394 190.59 13.6234C190.59 13.4074 190.914 13.2994 190.734 13.0474C190.806 12.9034 190.878 12.7594 191.058 12.7234C191.202 12.6874 191.31 12.6514 191.49 12.6154ZM187.242 30.0394C187.314 29.9314 187.35 29.8954 187.206 29.8234C186.954 29.7154 186.954 29.7154 186.99 29.4994C187.026 29.3194 187.062 29.1034 187.17 28.9234C187.242 28.7074 187.206 28.4554 187.242 28.2394C187.242 28.2034 187.242 28.1674 187.278 28.1674C187.314 28.1314 187.35 28.0594 187.422 28.0234C187.494 27.9874 187.602 28.0234 187.674 27.9874C187.926 27.9514 187.998 27.9154 187.998 27.6634C188.034 27.5914 187.998 27.4834 187.962 27.4834C187.89 27.4114 187.818 27.4834 187.746 27.5554C187.746 27.5914 187.71 27.6274 187.674 27.6274C187.566 27.6274 187.494 27.5194 187.494 27.3754C187.494 27.2314 187.602 27.1954 187.674 27.2674C187.854 27.3394 187.962 27.3034 188.07 27.1954C188.214 27.0874 188.178 26.9434 188.142 26.8354C188.106 26.7994 188.07 26.7634 188.034 26.7634C187.602 26.6554 187.566 26.6194 187.674 26.2234C187.71 26.1874 187.746 26.1514 187.746 26.0794C187.782 26.0074 187.638 25.8994 187.566 25.9354C187.278 26.0434 186.954 26.1514 186.666 26.2954C185.694 26.7994 184.758 27.3394 184.218 28.3474C184.182 28.3834 184.146 28.4194 184.11 28.4194C183.966 28.5274 183.822 28.6354 183.858 28.8154C183.894 29.0674 183.606 29.1034 183.606 29.2834C183.606 29.6434 183.57 29.9674 183.462 30.2914C183.426 30.4714 183.534 30.6514 183.57 30.8314C183.606 31.4794 183.966 31.9474 184.434 32.3794C184.614 32.5234 184.794 32.5594 185.01 32.4514C185.442 32.2714 185.802 31.9834 186.018 31.5514C186.162 31.2274 186.342 30.9034 186.522 30.5794C186.666 30.6154 186.774 30.6514 186.846 30.6874C186.99 30.4354 187.134 30.2194 187.278 30.0034L187.242 30.0394Z" fill="#1C1C1C"/>
</svg>
