<svg width="50" height="51" viewBox="0 0 50 51" fill="none" xmlns="http://www.w3.org/2000/svg">
<path d="M30.936 20.1912L24.146 41.1512L10.896 47.9012L13.146 33.1212L2.94604 22.8712L17.306 20.2912L24.146 7.22119L30.936 20.1912Z" fill="white"/>
<path d="M43.7561 22.3609C40.7868 21.7031 37.7817 21.219 34.7561 20.9109C33.7175 20.9148 32.6916 20.6823 31.7561 20.2309C30.8582 19.5824 30.1643 18.6907 29.7561 17.6609C29.2661 16.6609 29.1361 15.5809 27.7561 15.6609C27.2043 15.7112 26.6711 15.8856 26.1961 16.1709C24.6633 17.062 23.3437 18.2772 22.3298 19.7316C21.3158 21.1861 20.632 22.8445 20.3261 24.5909C19.7038 24.3902 19.0449 24.3288 18.3961 24.4109C15.5161 24.6709 12.5761 26.5009 11.9061 29.3209C11.7611 29.8749 11.7611 30.4569 11.9061 31.0109C12.065 31.4379 12.2555 31.8524 12.4761 32.2509C13.9961 35.6009 10.7761 39.6309 12.9861 42.7609C13.3732 43.3016 13.9029 43.724 14.5161 43.9809C15.325 44.3162 16.2069 44.4368 17.0761 44.3309C19.6161 44.0309 21.7661 41.3309 24.2861 41.5609C25.5889 41.809 26.8444 42.2613 28.0061 42.9009C29.1388 43.4639 30.2343 44.0985 31.2861 44.8009L35.8361 47.4809C36.0307 47.5789 36.2494 47.6185 36.466 47.595C36.6825 47.5715 36.8877 47.4859 37.0567 47.3486C37.2258 47.2112 37.3515 47.0279 37.4188 46.8208C37.4861 46.6136 37.4921 46.3914 37.4361 46.1809L36.6861 41.3209C36.5061 40.0909 36.3161 38.8609 36.1261 37.6309C35.9361 36.4009 35.2261 34.8809 35.6661 33.5309C35.8881 32.9326 36.2282 32.3851 36.6661 31.9209C38.0321 30.3143 39.4655 28.7576 40.9661 27.2509C41.7361 26.4909 42.5161 25.7309 43.3161 25.0009C43.7661 24.5809 44.7461 23.8309 44.6961 23.1109C44.6861 22.5909 44.1761 22.4509 43.7561 22.3609Z" fill="#E7B247"/>
<path d="M45.6061 21.721C45.2581 21.531 44.8597 21.4541 44.4661 21.501C43.4741 21.3128 42.4726 21.1793 41.4661 21.101C41.1461 21.181 40.8661 20.921 40.5161 21.001C40.3515 21.0541 40.1788 21.0778 40.0061 21.071C39.645 20.9341 39.2622 20.8629 38.8761 20.861C38.4934 20.6846 38.0774 20.5925 37.6561 20.591C37.3071 20.4268 36.9159 20.3744 36.5361 20.441L33.0001 19.786C32.4865 19.8041 31.9734 19.74 31.4801 19.596C31.1901 19.276 31.1501 18.706 30.8301 18.416C30.5101 18.126 30.6501 17.816 30.3901 17.576C30.1301 17.336 30.0901 17.356 30.0301 17.196C29.9224 16.9435 29.8354 16.6826 29.7701 16.416C29.6881 16.3406 29.6219 16.2495 29.5756 16.1482C29.5292 16.0469 29.5035 15.9374 29.5001 15.826C29.5001 15.386 29.0901 15.086 29.0401 14.656C28.7001 14.1144 28.4121 13.5418 28.1801 12.946C27.4201 11.2987 26.6067 9.66533 25.7401 8.04599C25.5501 7.24599 24.6601 6.36599 23.8001 6.74599C23.3798 7.09703 23.039 7.53333 22.8001 8.02599C22.6401 8.15599 22.6301 8.34599 22.5701 8.52599C22.2701 8.82671 22.0442 9.19301 21.9101 9.59599C21.6369 9.93834 21.4453 10.3385 21.3501 10.766C21.0801 11.236 20.8501 11.696 20.5901 12.166C19.6901 13.766 18.9301 15.476 18.1901 17.166C18.1901 17.496 17.8301 17.676 17.7901 18.036C17.7982 18.2097 17.771 18.3832 17.7101 18.546C17.5401 18.756 17.4301 19.016 17.2501 19.226C17.0701 19.436 17.2501 19.676 17.0101 19.676C16.5498 19.636 16.0863 19.6939 15.6501 19.846C14.4201 20.106 13.1401 20.116 11.8801 20.296C10.7753 20.5584 9.65197 20.7356 8.52006 20.826C7.99006 21.136 7.82006 20.916 7.33006 21.106C6.86006 21.496 6.23006 21.206 5.72006 21.446C5.28828 21.3602 4.8421 21.3808 4.42006 21.506C4.02238 21.4308 3.6119 21.4618 3.23006 21.596C3.05817 21.6496 2.89851 21.7365 2.76023 21.8518C2.62195 21.9671 2.50776 22.1085 2.42417 22.2679C2.34058 22.4274 2.28925 22.6018 2.2731 22.7811C2.25695 22.9604 2.27631 23.1412 2.33006 23.313C2.37993 23.4696 2.45712 23.6162 2.55806 23.746C3.94252 25.2448 5.40453 26.6701 6.93806 28.016C7.24806 28.136 7.31806 28.506 7.64806 28.656C7.81358 28.7101 7.96902 28.7912 8.10806 28.896C8.25806 29.126 8.46806 29.306 8.60806 29.536C8.71074 29.5802 8.80348 29.6446 8.88079 29.7253C8.95809 29.806 9.01838 29.9015 9.05806 30.006C9.23632 30.2875 9.46721 30.5319 9.73806 30.726C9.92468 31.0641 10.211 31.3365 10.5581 31.506L12.3281 33.386C12.3591 33.6752 12.3591 33.9668 12.3281 34.256C12.1781 35.256 11.8981 36.256 11.8481 37.196C11.9281 37.516 11.6581 37.786 11.7181 38.136C11.7752 38.3031 11.7989 38.4798 11.7881 38.656C11.6352 39.0134 11.5537 39.3973 11.5481 39.786C11.2381 40.246 11.2981 40.786 11.0981 41.286C11.0494 41.9238 10.9457 42.5561 10.7881 43.176C10.4213 44.5867 10.1969 46.0306 10.1181 47.486C10.1725 47.7089 10.2821 47.9146 10.4368 48.0842C10.5914 48.2537 10.7862 48.3817 11.0032 48.4564C11.2202 48.531 11.4525 48.55 11.6788 48.5115C11.905 48.473 12.118 48.3782 12.2981 48.236C12.6181 48.096 12.7981 48.086 13.0081 47.846C13.2181 47.606 13.5981 47.636 13.8381 47.366C14.0781 47.096 14.0481 47.076 14.2081 47.006C14.5697 46.9032 14.9088 46.7336 15.2081 46.506C15.5621 46.46 15.9026 46.3408 16.2081 46.156C16.6081 45.906 17.0881 45.866 17.4181 45.476C18.2781 45.056 19.1381 44.686 19.9981 44.246C20.6681 44.006 21.1681 43.506 21.8181 43.246C22.5261 42.9519 23.1973 42.576 23.8181 42.126C23.9414 42.0799 24.0588 42.0195 24.1681 41.946C24.3881 41.766 24.8081 42.216 25.0481 42.316C25.337 42.3809 25.5948 42.5434 25.7781 42.776C25.9481 43.066 26.5481 43.136 26.8381 43.446C27.3681 43.796 28.0581 43.886 28.5381 44.336C30.1281 45.226 31.7381 46.066 33.3881 46.856C33.6491 47.07 33.9639 47.2084 34.2981 47.256C34.5981 47.606 35.0381 47.576 35.4281 47.706C36.1381 48.376 37.7181 48.856 38.1181 47.596C38.2554 46.9245 38.1857 46.227 37.9181 45.596C37.7181 43.596 37.3681 41.746 36.9981 39.816C36.945 39.3162 36.8273 38.8255 36.6481 38.356C36.7481 37.906 36.4581 37.576 36.3181 37.196C36.339 36.81 36.2882 36.4234 36.1681 36.056C36.3081 35.516 36.0581 35.006 36.0881 34.476C36.1781 34.116 35.7281 33.686 35.8881 33.386C36.0181 33.386 36.0881 33.196 36.1781 33.106C37.6426 31.8104 39.041 30.4421 40.3681 29.006C40.4981 28.696 40.8781 28.636 41.0281 28.316C41.2119 27.9922 41.4604 27.7097 41.7581 27.486C41.9481 27.426 42.0281 27.236 42.1381 27.086C42.532 26.9009 42.8752 26.623 43.1381 26.276C43.7881 25.936 44.0681 25.156 44.7281 24.796C45.0581 24.386 45.5281 24.126 45.8681 23.696C46.0826 23.3948 46.1749 23.0234 46.1263 22.6569C46.0776 22.2903 45.8917 21.9558 45.6061 21.721ZM44.1161 23.641C43.5912 23.9717 43.1164 24.3758 42.7061 24.841C42.3241 25.1219 41.987 25.4591 41.7061 25.841C41.5494 25.9115 41.409 26.0136 41.2937 26.141C41.1784 26.2683 41.0907 26.4181 41.0361 26.581C40.7661 26.741 40.8661 27.011 40.5361 26.981C40.0961 27.211 39.9861 27.831 39.6161 28.131C39.1761 28.501 39.1261 28.451 38.8761 28.761C38.7661 28.851 38.5961 28.861 38.4661 28.931C38.1214 29.1988 37.8412 29.5405 37.6461 29.931C37.3061 30.381 36.7361 30.761 36.3461 31.191C36.1361 31.331 36.3461 31.701 35.9861 31.691C35.4435 32.0298 34.9604 32.4554 34.5561 32.951C34.2861 33.621 34.8161 34.431 34.7161 35.131C34.8761 35.5347 34.951 35.967 34.9361 36.401C35.0822 36.5936 35.1753 36.8212 35.2061 37.061C35.2297 37.0819 35.249 37.1072 35.2629 37.1355C35.2767 37.1639 35.2849 37.1947 35.2868 37.2261C35.2888 37.2576 35.2845 37.2892 35.2743 37.319C35.264 37.3489 35.248 37.3764 35.2271 37.4L35.2061 37.421C35.1361 37.911 35.5861 38.351 35.6261 38.831C35.6511 39.0703 35.6511 39.3116 35.6261 39.551C35.7561 39.781 35.6261 39.991 35.6261 40.221C35.6605 40.5592 35.7241 40.8937 35.8161 41.221C35.9744 41.418 36.0686 41.6588 36.0861 41.911C36.1253 42.3679 36.1921 42.8221 36.2861 43.271C36.2861 43.471 36.4961 43.541 36.5361 43.691C36.4511 44.0189 36.4511 44.3631 36.5361 44.691C36.4831 45.0222 36.4831 45.3598 36.5361 45.691C36.5361 46.051 36.7661 46.871 36.7161 46.891C36.5294 46.8681 36.3453 46.828 36.1661 46.771C35.9461 46.201 35.1661 46.361 34.6961 46.071C34.4414 45.8702 34.1626 45.7023 33.8661 45.571C33.7461 45.491 33.6961 45.331 33.5861 45.231C33.2227 44.9844 32.8097 44.8205 32.3761 44.751C31.8361 44.581 31.3061 44.141 30.7761 43.911C30.5761 43.751 30.2861 44.021 30.1861 43.731C29.8061 43.311 29.1861 43.141 28.7661 42.731C28.252 42.5096 27.7627 42.2347 27.3061 41.911C26.8836 41.7971 26.4912 41.5923 26.1561 41.311C25.918 41.308 25.6844 41.2461 25.4761 41.131C25.4424 41.135 25.4084 41.1322 25.3759 41.1227C25.3434 41.1132 25.3132 41.0972 25.287 41.0757C25.2608 41.0542 25.2393 41.0277 25.2237 40.9977C25.208 40.9676 25.1987 40.9347 25.1961 40.901C25.1661 40.741 24.8561 40.721 24.6261 40.601C24.2161 40.391 23.7861 40.711 23.5161 40.901C23.3361 41.0249 23.1412 41.1257 22.9361 41.201C22.7413 41.2264 22.5577 41.3061 22.4061 41.431C22.2609 41.461 22.1112 41.461 21.9661 41.431C21.5565 41.5867 21.1873 41.8328 20.8861 42.151C20.3161 42.631 19.3461 42.701 18.9761 43.361C18.6202 43.3767 18.2749 43.4872 17.9761 43.681C17.3823 43.8559 16.8141 44.108 16.2861 44.431C15.8407 44.5935 15.4226 44.8228 15.0461 45.111C14.8757 45.1327 14.7118 45.1902 14.5653 45.2799C14.4188 45.3695 14.2929 45.4892 14.1961 45.631C13.8961 45.711 13.9061 45.991 13.5961 45.871C13.1461 45.951 12.8761 46.431 12.4861 46.651L12.1161 46.891C11.9283 46.9034 11.7401 46.8726 11.5661 46.801C11.4861 46.521 11.7361 46.161 11.7261 45.801C11.7973 45.5125 11.8409 45.2178 11.8561 44.921C11.8561 44.831 11.7261 44.751 11.7461 44.651C12.1161 44.201 12.0561 43.511 12.3061 42.991C12.436 42.6345 12.5102 42.2601 12.5261 41.881C12.6691 41.4317 12.74 40.9625 12.7361 40.491C12.8227 40.3096 12.8865 40.1181 12.9261 39.921C12.8611 39.6922 12.8611 39.4498 12.9261 39.221C12.9106 39.1935 12.9007 39.1632 12.897 39.1319C12.8932 39.1005 12.8957 39.0688 12.9043 39.0384C12.9128 39.008 12.9272 38.9797 12.9468 38.9549C12.9663 38.9301 12.9905 38.9094 13.0181 38.894L13.0461 38.881C13.2361 38.501 13.0461 38.041 13.0961 37.631C13.1461 37.391 13.1861 37.091 13.2061 37.031C13.4061 36.661 13.2561 36.451 13.5761 36.091C13.6361 35.771 13.6861 35.431 13.7161 35.091C13.6461 34.8493 13.6461 34.5927 13.7161 34.351C13.8361 33.791 14.1561 33.041 13.6561 32.581C13.4561 32.321 13.3161 32.401 13.1161 32.311C13.0461 31.951 12.7461 31.751 12.5161 31.481C11.8361 30.481 11.3261 30.261 10.8161 29.561C10.45 29.3249 10.134 29.0191 9.88606 28.661C9.65767 28.5921 9.45324 28.4604 9.29606 28.281C9.12606 28.281 9.07606 28.151 9.07606 27.991C8.84606 27.561 8.26606 27.461 7.93606 27.131L7.64606 26.811C7.56164 26.6352 7.43009 26.4864 7.26606 26.381C7.06692 25.942 6.75242 25.5653 6.35606 25.291C5.61606 25.051 5.23606 24.191 4.59606 23.791C4.15606 23.791 4.32606 23.431 4.02606 23.221C3.92606 23.131 3.89606 23.141 3.92606 23.021C3.95606 22.901 4.51606 22.901 4.82606 22.901C5.13606 22.901 5.27606 22.731 5.50606 22.711C5.73606 22.691 5.91606 22.781 6.10606 22.711C6.30168 22.5738 6.52861 22.4878 6.76606 22.461C6.78684 22.4374 6.81208 22.4181 6.84033 22.4042C6.86859 22.3904 6.89929 22.3823 6.9307 22.3803C6.9621 22.3783 6.99358 22.3826 7.02333 22.3929C7.05308 22.4031 7.08051 22.4191 7.10406 22.44L7.12606 22.461C7.62606 22.531 8.06606 22.101 8.54606 22.071H9.94606C10.283 22.0435 10.6173 21.99 10.9461 21.911C11.1438 21.7567 11.3854 21.6692 11.6361 21.661C12.0361 21.661 12.6361 21.531 13.0061 21.491C13.2061 21.491 13.2761 21.291 13.4261 21.251C13.7546 21.331 14.0975 21.331 14.4261 21.251C15.0429 21.289 15.6621 21.2419 16.2661 21.111C16.6827 21.0872 17.0971 21.0338 17.5061 20.951C17.7778 20.8351 18.0128 20.6472 18.1855 20.4075C18.3582 20.1678 18.4622 19.8855 18.4861 19.591C18.6861 19.351 18.4861 19.131 18.8261 19.051C19.1161 18.741 19.0861 18.251 19.2261 17.851C19.3361 17.651 19.4661 17.381 19.4961 17.321C19.7961 17.021 19.7061 16.781 20.1161 16.521C20.2661 16.231 20.4161 15.931 20.5461 15.621C20.5289 15.3712 20.592 15.1225 20.7261 14.911C20.9561 14.581 21.1661 14.041 21.3661 13.681C21.4961 13.531 21.3661 13.351 21.3661 13.201C21.8461 12.871 21.9761 12.201 22.3661 11.771C22.7561 11.341 22.8461 10.631 23.2561 10.171C23.3632 9.74581 23.5573 9.34744 23.8261 9.00099V8.57099C23.8261 8.43099 23.9861 8.33099 23.9161 8.24099C23.8461 8.15099 24.1961 7.97099 24.2861 8.13099C24.2801 8.29277 24.3218 8.45273 24.4061 8.59099C24.5961 8.77099 24.5561 9.00099 24.5761 9.24099C24.6772 9.55877 24.8329 9.85654 25.0361 10.121C25.2441 10.2638 25.4044 10.4659 25.4961 10.701C25.6663 11.128 25.8599 11.5453 26.0761 11.951C26.0761 12.151 26.3461 12.151 26.4361 12.281C26.4421 12.6342 26.5422 12.9794 26.7261 13.281C26.8806 13.8817 27.1196 14.4575 27.4361 14.991C27.5821 15.4419 27.7981 15.8671 28.0761 16.251C28.0959 16.421 28.1506 16.5851 28.2366 16.733C28.3226 16.881 28.4382 17.0096 28.5761 17.111C28.6461 17.421 28.9361 17.401 28.8061 17.711C28.9976 18.1878 29.2756 18.6252 29.6261 19.001C29.6261 19.121 29.7361 19.221 29.7561 19.301C29.7823 19.4968 29.858 19.6826 29.9761 19.841C30.0461 19.991 29.9761 20.091 30.0361 20.321C30.1671 20.6339 30.4143 20.8837 30.7258 21.018C31.0372 21.1523 31.3886 21.1605 31.7061 21.041C32.3361 21.041 33.0561 21.341 33.7061 21.301C33.8561 21.221 33.9861 21.121 34.1161 21.301C34.2461 21.481 34.6761 21.431 34.9461 21.521C36.0361 21.931 36.6361 21.811 37.4461 22.081C37.884 22.049 38.3237 22.1103 38.7361 22.261C38.9655 22.201 39.2066 22.201 39.4361 22.261C39.4635 22.2456 39.4937 22.2357 39.5249 22.232C39.5562 22.2282 39.5879 22.2307 39.6182 22.2393C39.6485 22.2478 39.6768 22.2623 39.7015 22.2818C39.7262 22.3013 39.7467 22.3255 39.7621 22.353C39.7673 22.362 39.772 22.3714 39.7761 22.381C40.1029 22.474 40.4492 22.474 40.7761 22.381C41.0581 22.3867 41.3392 22.4168 41.6161 22.471C41.7921 22.5608 41.9888 22.6023 42.1861 22.591C42.6006 22.8345 43.0755 22.9558 43.5561 22.941C43.8061 22.881 44.1361 22.771 44.3561 22.941C44.5761 23.111 44.2861 23.591 44.1161 23.641Z" fill="black"/>
<path d="M47.616 13.791C47.446 13.551 47.246 13.571 47.016 13.521C46.936 13.521 46.876 13.621 46.776 13.611L46.456 13.661C46.3992 13.6472 46.3401 13.6464 46.283 13.6585C46.2259 13.6706 46.1722 13.6954 46.126 13.731C45.906 13.681 45.816 13.581 45.596 13.731C45.5121 13.7345 45.4307 13.7605 45.3603 13.8062C45.29 13.8519 45.2332 13.9158 45.196 13.991C44.886 14.221 44.416 14.151 44.106 14.381C44.106 14.441 44.106 14.561 44.016 14.571C43.776 14.431 43.656 14.571 43.416 14.571C43.176 14.571 43.086 14.661 42.886 14.571C42.746 14.691 42.526 14.631 42.376 14.771C42.226 14.911 42.116 14.771 41.966 14.831C41.816 14.891 41.746 15.011 41.616 15.041C41.276 15.041 41.296 15.041 41.086 15.281C40.856 15.281 40.936 15.531 40.726 15.281C40.516 15.031 40.256 15.641 39.996 15.701C39.9806 15.7465 39.9508 15.7858 39.9111 15.8128C39.8714 15.8399 39.824 15.8533 39.776 15.851C39.616 15.851 39.546 16.001 39.456 16.111C39.3686 16.2211 39.3286 16.3614 39.3445 16.5011C39.3604 16.6407 39.4311 16.7684 39.541 16.856L39.576 16.881C39.706 16.991 39.746 16.881 39.856 16.881C40.0231 16.8781 40.1887 16.8477 40.346 16.791C40.346 16.791 40.726 16.861 40.886 16.681C41.046 16.501 41.006 16.591 41.116 16.591C41.2342 16.5888 41.3518 16.572 41.466 16.541C41.596 16.591 41.656 16.481 41.756 16.431C41.856 16.381 42.186 16.511 42.366 16.381C42.546 16.251 42.796 16.441 43.116 16.101C43.646 15.951 44.116 15.861 44.706 15.701C45.296 15.541 45.396 15.341 45.826 15.291C46.1194 15.2178 46.4043 15.1139 46.676 14.981C46.836 14.981 46.986 14.981 47.076 14.831C47.1821 14.7101 47.3113 14.6115 47.456 14.541C47.456 14.461 47.536 14.471 47.596 14.461C47.6817 14.3716 47.7312 14.2536 47.7349 14.1298C47.7386 14.0061 47.6962 13.8853 47.616 13.791Z" fill="black"/>
<path d="M36.6061 12.0309C36.9161 12.3409 37.2961 12.1509 37.6061 11.9409C37.6761 11.8609 37.6961 11.7409 37.7861 11.6709C37.8147 11.6388 37.8485 11.6118 37.8861 11.5909C37.9961 11.5409 38.0161 11.4209 38.0761 11.3709C38.2054 11.302 38.3049 11.1881 38.3561 11.0509C38.5961 10.9309 38.7561 10.9009 38.8661 10.6109C38.9455 10.5431 39.009 10.4587 39.0522 10.3637C39.0954 10.2686 39.1172 10.1653 39.1161 10.0609C39.2161 9.66087 40.0261 9.20086 39.9461 8.62086C40.2361 8.62086 40.3461 8.32086 40.5261 8.12086C40.6544 7.93817 40.8263 7.79038 41.0261 7.69087C41.1324 7.62841 41.2235 7.54305 41.2926 7.44099C41.3618 7.33893 41.4074 7.22274 41.4261 7.10086C41.7261 6.68086 41.7961 6.85087 42.0161 6.26087C42.1388 6.20033 42.24 6.10368 42.3062 5.9839C42.3723 5.86412 42.4002 5.72696 42.3861 5.59087C42.5861 5.42087 42.3861 5.23087 42.7061 5.25086C43.0361 5.06086 42.9561 4.54086 43.1961 4.25086C43.2061 4.14435 43.2479 4.0433 43.3161 3.96087C43.4219 3.82276 43.4814 3.65478 43.4861 3.48086C43.4961 3.31086 43.2861 2.78087 42.9761 2.89087C42.6661 3.00087 42.7761 3.01087 42.6861 3.10087C42.5615 3.27385 42.4134 3.42867 42.2461 3.56086C42.2461 3.56086 41.8461 3.82087 41.7961 4.09087C41.7461 4.36087 41.7961 4.38086 41.7061 4.48087C41.5902 4.57079 41.486 4.67494 41.3961 4.79086C41.2361 4.86086 41.2361 5.00086 41.1761 5.13087C40.9661 5.28087 40.7061 5.40086 40.5961 5.66086C40.4861 5.92086 40.1061 6.03086 40.0261 6.50086C39.5861 7.12086 39.1161 7.59087 38.6961 8.19087C38.3061 8.56086 38.1961 9.07086 37.8261 9.45086C37.5802 9.76634 37.3595 10.1007 37.1661 10.4509C37.0091 10.5558 36.8982 10.7168 36.8561 10.9009C36.8561 10.9009 36.6961 11.3209 36.6461 11.5209C36.5961 11.7209 36.4361 11.6859 36.6061 12.0309Z" fill="black"/>
<path d="M32.416 9.59103C32.506 9.38103 32.626 9.33103 32.516 9.08103C32.5291 9.00069 32.5202 8.91829 32.4903 8.84259C32.4604 8.76688 32.4105 8.70069 32.346 8.65103C32.196 8.32103 32.346 7.88103 32.196 7.54103C32.196 7.54103 32.036 7.47103 32.036 7.42103C32.226 7.21103 32.136 7.08103 32.146 6.85103C32.1294 6.67815 32.1642 6.50422 32.246 6.35103C32.166 6.19103 32.246 5.99103 32.166 5.82103C32.086 5.65103 32.166 5.57103 32.166 5.42103C32.166 5.27103 32.116 5.19103 32.116 5.06103C32.216 4.74103 32.206 4.77103 31.996 4.52103C32.046 4.30103 31.776 4.32103 31.996 4.16103C32.216 4.00103 31.616 3.33103 31.636 3.16103C31.656 2.99103 31.546 2.91103 31.446 2.81103C31.3994 2.76112 31.3434 2.72089 31.2812 2.69263C31.2191 2.66436 31.1519 2.64862 31.0837 2.6463C31.0154 2.64398 30.9474 2.65512 30.8835 2.6791C30.8195 2.70307 30.7609 2.73941 30.711 2.78603L30.686 2.81103C30.536 2.91103 30.606 2.97103 30.606 3.08103C30.575 3.23953 30.575 3.40253 30.606 3.56103V3.82103C30.595 3.91522 30.6162 4.01036 30.666 4.09103C30.886 4.32103 30.856 4.31103 30.776 4.80103C30.846 4.94103 30.906 5.01103 30.776 5.16103C30.711 5.3386 30.711 5.53346 30.776 5.71103C30.626 6.01103 30.776 6.15103 30.866 6.42103C30.886 6.58375 30.886 6.74831 30.866 6.91103C30.866 7.04103 30.956 7.16103 30.916 7.30103C30.916 7.89179 30.973 8.48118 31.086 9.06103C31.0954 9.35443 31.1357 9.64603 31.206 9.93103C31.206 10.081 31.146 10.221 31.266 10.331C31.3584 10.4587 31.4293 10.6006 31.476 10.751C31.546 10.751 31.476 10.851 31.476 10.911C31.626 11.221 32.256 11.131 32.346 10.831C32.416 10.711 32.546 10.571 32.456 10.441C32.4299 10.4084 32.4157 10.3678 32.4157 10.326C32.4157 10.2842 32.4299 10.2437 32.456 10.211V9.98603C32.4928 9.92467 32.5088 9.85307 32.5016 9.78189C32.4944 9.71072 32.4644 9.64377 32.416 9.59103Z" fill="black"/>
</svg>
