<svg width="161" height="45" viewBox="0 0 161 45" fill="none" xmlns="http://www.w3.org/2000/svg">
<path fill-rule="evenodd" clip-rule="evenodd" d="M25.8667 1.60022L25.7575 4.98631C25.5936 4.93243 22.8084 4.8778 21.005 4.8778C20.7319 8.48165 20.568 13.945 20.5134 16.8387H15.597C15.9794 13.1788 16.2525 9.46492 16.2525 4.8778C14.723 4.8778 13.1388 4.93168 11.5 4.98631L11.6639 1.60022H25.8667V1.60022Z" fill="white"/>
<path fill-rule="evenodd" clip-rule="evenodd" d="M27.0138 9.57568C27.1231 8.5924 27.8332 7.5545 29.0889 7.5545C30.236 7.5545 30.7823 8.20927 30.7823 9.57568H27.0138V9.57568ZM34.88 11.7054C35.0439 11.1045 35.0439 10.5582 35.0439 9.95731C35.0439 6.73436 32.9688 4.93243 29.145 4.93243C22.9722 4.93243 22.4813 10.1766 22.4813 11.3776C22.4813 15.9655 25.7043 17.1126 29.4189 17.1126C30.7845 17.1126 32.1495 16.9487 33.4605 16.6756L34.0067 13.3988C32.6957 13.7804 31.3301 14.1628 29.9651 14.1628C28.381 14.1628 26.9061 13.508 26.9061 11.7046H34.88V11.7054V11.7054ZM45.8046 8.81016C44.8213 8.4824 43.838 8.26464 42.8001 8.26464C41.0521 8.26464 39.9049 9.30254 39.9049 11.1045C39.9049 12.8525 40.8336 13.7804 42.5816 13.7804C43.5649 13.7804 44.5474 13.5627 45.4768 13.2349L44.8759 16.6756C43.7288 16.9487 42.5816 17.1126 41.4344 17.1126C37.6106 17.1126 35.4802 15.0376 35.4802 11.2137C35.4802 9.95657 35.7533 4.93168 41.6529 4.93168C43.1279 4.93168 44.3843 5.04093 45.5861 5.36869L45.8046 8.81016V8.81016ZM51.7035 1.27321C51.5942 2.14723 51.3757 5.15094 51.2664 6.79048L51.3211 6.84435C52.359 5.31556 53.5608 4.93243 55.7997 4.93243C58.094 4.93243 60.0606 5.80646 60.0606 8.64628C60.0606 9.24717 59.7328 13.8904 59.7328 16.8395H55.1442C55.3081 14.8198 55.4719 12.7425 55.4719 10.7213C55.4719 9.62955 55.1442 8.53777 53.7785 8.53777C52.6314 8.53777 51.812 9.35642 51.4842 10.4497C51.1018 11.7054 50.9926 14.3274 50.8833 16.8395H46.2947C46.6225 13.8904 47.0595 6.89823 47.0595 1.27246H51.7035V1.27321Z" fill="white"/>
<path fill-rule="evenodd" clip-rule="evenodd" d="M66.2334 4.5493C66.0149 8.64628 65.9056 12.7425 65.851 16.8395H60.9893C61.5355 11.9785 61.754 7.49912 61.754 1.27246H70.0019C71.0944 1.27246 75.5738 1.38172 75.5738 5.42332C75.5738 7.88151 74.1535 9.19254 71.9138 9.95731C72.8424 12.3062 73.9896 14.4913 74.9721 16.8395H69.7834C68.964 13.8904 67.8714 10.9945 66.7789 8.10076C67.1613 8.20927 67.5437 8.20927 67.9261 8.20927C69.2917 8.20927 70.8751 7.71838 70.8751 6.13421C70.8751 4.55005 69.3463 4.55005 68.2538 4.55005H66.2334V4.5493V4.5493Z" fill="white"/>
<path fill-rule="evenodd" clip-rule="evenodd" d="M79.2883 9.5756C79.3976 8.59232 80.1077 7.55442 81.3634 7.55442C82.4567 7.55442 83.0014 8.20919 83.0014 9.5756H79.2883V9.5756ZM87.1545 11.7053C87.263 11.1044 87.3184 10.5581 87.3184 9.95723C87.3184 6.73428 85.2433 4.93235 81.4188 4.93235C75.1913 4.93235 74.6997 10.1765 74.6997 11.3775C74.6997 15.9654 77.9227 17.1125 81.6373 17.1125C83.0022 17.1125 84.3686 16.9487 85.6796 16.6755L86.2805 13.3987C84.9695 13.7803 83.5492 14.1627 82.1835 14.1627C80.654 14.1627 79.1244 13.5079 79.1244 11.7045H87.1545V11.7053ZM92.3979 8.31919C92.9988 8.20994 93.5436 8.10143 94.0906 8.10143C95.8386 8.10143 96.7127 9.13933 96.7127 10.8313C96.7127 12.1977 96.0579 13.9457 94.4183 13.9457C92.8357 13.9457 92.1794 12.4154 92.1794 11.0505C92.1787 10.1211 92.2887 9.24709 92.3979 8.31919ZM91.7978 22.1389C91.7978 20.0077 91.9063 17.8227 92.0155 15.6376C93.1627 16.6209 94.5837 17.1125 96.1125 17.1125C99.4986 17.1125 101.137 13.9996 101.137 10.9944C101.137 7.82755 99.5532 4.9316 94.8015 4.9316C92.1794 4.9316 90.1044 5.14936 88.0285 5.53249C88.0285 11.0498 87.7 16.6209 87.2084 22.1382H91.7978V22.1389V22.1389ZM110.204 15.3106H110.15C109.167 16.6755 107.747 17.1125 106.053 17.1125C102.83 17.1125 101.902 15.5284 101.902 13.5626C101.902 12.7986 102.339 7.4983 102.339 5.20549H106.873C106.764 7.28054 106.436 9.35634 106.436 11.3775C106.436 12.5247 106.818 13.4526 108.129 13.4526C109.276 13.4526 109.931 12.5247 110.204 11.4868C110.477 10.1757 110.532 7.4983 110.587 5.20474H115.121C114.738 9.08247 114.575 12.9609 114.466 16.8387H110.205V15.3106H110.204ZM120.528 8.31919C121.075 8.20994 121.62 8.10143 122.222 8.10143C123.915 8.10143 124.789 9.13933 124.789 10.8313C124.789 12.1977 124.134 13.9457 122.495 13.9457C120.912 13.9457 120.256 12.4154 120.256 11.0505C120.255 10.1211 120.364 9.24709 120.528 8.31919V8.31919ZM119.927 15.3653H119.981C120.911 16.5678 122.112 17.1133 123.641 17.1133C127.357 17.1133 129.212 13.9465 129.212 10.5581C129.212 6.89816 127.083 4.93235 123.477 4.93235C123.04 4.93235 122.549 4.93236 122.112 4.98623C121.62 5.04161 121.185 5.09549 120.746 5.20549C120.855 3.56744 120.911 2.41954 121.075 1.27238H116.431C116.377 6.46114 116.048 11.6506 115.667 16.8394H119.927V15.3653V15.3653ZM135.057 1.27313C134.784 3.8952 134.293 12.7432 134.183 16.8402H129.542C130.033 11.6514 130.25 6.46189 130.416 1.27313H135.057ZM135.331 16.8394C135.714 13.2894 135.877 9.84873 135.931 5.20549H140.629C140.192 9.08321 140.192 12.9617 140.192 16.8394H135.331V16.8394ZM136.041 3.73132L136.095 1H140.629L140.521 3.73132H136.041ZM151.5 8.81008C150.517 8.48232 149.533 8.26456 148.551 8.26456C146.747 8.26456 145.6 9.30246 145.6 11.1044C145.6 12.8524 146.53 13.7803 148.278 13.7803C149.26 13.7803 150.244 13.5626 151.173 13.2348L150.571 16.6755C149.445 16.9586 148.29 17.1053 147.13 17.1125C143.307 17.1125 141.176 15.0375 141.176 11.2136C141.176 9.95649 141.449 4.9316 147.348 4.9316C148.878 4.9316 150.079 5.04086 151.281 5.36861L151.5 8.81008V8.81008Z" fill="white"/>
</svg>
