<svg width="141" height="47" viewBox="0 0 141 47" fill="none" xmlns="http://www.w3.org/2000/svg">
<path d="M21.6273 27.9242C21.6273 27.4573 21.6273 11.7827 21.6273 11.7827H16.5815C16.5815 11.7827 16.5815 26.7829 16.5815 27.2241C16.5815 29.6281 14.5391 31.0601 11.6516 31.0601C8.35443 31.0601 6.54433 29.6285 6.54433 27.1942C6.54433 26.7545 6.54433 11.7827 6.54433 11.7827H1.5C1.5 11.7827 1.5 27.1046 1.5 27.6312C1.5 33.0559 5.78764 35.2221 11.5341 35.2221C15.5002 35.2221 18.6959 34.1328 20.3642 31.9303V34.9287H24.865V30.2148H21.2692C21.5019 29.5232 21.6273 28.761 21.6273 27.9242Z" fill="white"/>
<path d="M45.7479 28.2505C45.7479 24.2926 43.3565 22.388 38.7741 21.5083C38.2481 21.4202 36.7302 21.097 35.5665 20.8633C31.8018 20.102 30.4295 19.4287 30.4295 17.729C30.4295 16.4096 31.1893 15.5612 35.0109 15.5612C37.9278 15.5612 39.1825 16.2345 39.7947 17.5241C39.9705 17.8772 40.1166 18.4023 40.1166 18.6654H45.31C45.31 18.0775 45.0778 17.2023 44.7841 16.4394C43.6189 13.5103 40.9045 11.4889 35.1272 11.4889C28.3589 11.4889 25.2094 14.1235 25.2094 18.0522C25.2094 21.8909 27.9791 23.9706 32.4738 24.8196C33.4944 25.023 35.1867 25.3478 35.8587 25.4661C39.5891 26.1693 40.5544 26.8411 40.5544 28.7468C40.5544 30.2711 39.3298 31.2347 35.8259 31.2347C32.7644 31.2347 31.2476 30.6514 30.6054 29.3033C30.4295 28.9533 30.2835 28.2501 30.2835 27.8388H25.09C25.09 28.3056 25.1777 29.45 25.415 30.2098C26.3448 33.1405 28.8536 35.25 35.8259 35.25C40.2058 35.25 43.1212 34.0156 44.601 31.9735V34.9283H49.1003V30.2148H45.466C45.6483 29.6009 45.7479 28.9467 45.7479 28.2505Z" fill="white"/>
<path d="M65.3793 26.6943L56.5103 11.7826H50.6464V34.9286H55.4599V19.2524L64.7385 34.9286H70.1928V11.7826H65.3793V26.6943Z" fill="white"/>
<path d="M81.3399 17.4509C77.629 17.4509 74.6922 18.8469 73.0534 21.2375C72.0968 22.6033 71.5694 24.3405 71.5694 26.2964C71.5694 28.4404 72.0328 30.1474 72.8699 31.4818C74.5073 34.0907 77.5657 35.2071 81.3396 35.2071C84.0898 35.2071 86.1634 34.6177 87.649 33.6571C89.3473 32.5664 90.3367 31.0164 90.736 29.3711H85.882C85.7912 29.7453 85.3576 30.3018 84.4636 30.7054C83.75 31.0164 82.7309 31.265 81.3396 31.265C79.4848 31.265 78.0962 30.7698 77.3811 29.9934C76.7956 29.3412 76.4543 28.7533 76.4543 27.9724H90.8607C91.138 25.3991 90.6746 22.9449 89.4068 21.0824C87.895 18.8768 85.234 17.4509 81.3399 17.4509ZM76.4234 24.7151C76.4234 24.216 76.8883 23.1942 77.4753 22.6661C78.3109 21.9212 79.6103 21.4528 81.3697 21.4528C83.2259 21.4528 84.3999 22.0453 85.1135 22.7588C85.7302 23.411 85.9419 24.216 85.9419 24.7147H76.4234V24.7151Z" fill="white"/>
<path d="M116.35 17.8549L112.365 30.5495L108.53 17.8549H103.03L99.2902 30.5495L95.2097 17.8549H90.0475L96.1319 34.9286H102.011C102.011 34.9286 105.351 25.1191 105.381 24.5274C105.412 24.3405 105.594 23.329 105.594 23.329C105.594 23.329 105.782 24.3405 105.814 24.5588C105.874 25.1191 109.216 34.9286 109.216 34.9286H115.057L121.209 17.8549H116.35V17.8549Z" fill="white"/>
<path d="M132.948 24.5588C132.362 24.4661 129.981 24.1218 128.992 23.9709C126.582 23.5967 126.053 23.3187 126.053 22.5738C126.053 21.7687 126.859 21.3306 129.581 21.3306C131.928 21.3306 132.824 21.7373 133.165 22.2011C133.317 22.4179 133.382 22.9445 133.382 23.1303H138.173C138.173 22.789 138.08 21.7373 137.864 21.082C136.999 18.6317 134.059 17.421 129.394 17.421C123.92 17.421 121.203 19.408 121.203 22.4462C121.203 25.7097 122.995 27.3539 126.736 27.8805C127.755 28.036 129.796 28.3474 130.443 28.44C132.947 28.8127 133.969 29.0279 133.969 29.9931C133.969 30.985 133.104 31.4817 130.291 31.4817C127.6 31.4817 126.302 31.265 125.992 30.4584C125.869 30.1156 125.839 29.8062 125.839 29.5879H120.925C120.925 30.1474 120.955 30.6143 121.108 31.2964C121.82 34.0911 124.539 35.237 130.291 35.237C136.164 35.237 138.822 33.4373 138.822 29.8989C138.822 26.702 137.027 25.1804 132.948 24.5588Z" fill="white"/>
<path d="M74.3728 16.4697C74.8137 16.4697 75.2904 16.395 75.6482 16.2452C75.7138 16.3035 75.7882 16.3678 75.8656 16.4233H77.628C77.2928 16.1556 76.9426 15.8849 76.6345 15.6558C77.0056 15.3012 77.2409 14.7972 77.263 14.2135H75.964C75.9506 14.4797 75.8656 14.7267 75.7138 14.9197C75.4472 14.6999 75.1806 14.4605 74.972 14.2897C75.4338 14.0025 75.8839 13.5927 75.8988 13.0032C75.8988 12.9718 75.9049 12.8431 75.8988 12.8014C75.866 12.2373 75.3518 11.7244 74.4701 11.7244C73.5047 11.7244 72.946 12.266 72.9208 12.8374C72.9208 12.9121 72.9208 13.0201 72.9208 13.0737C72.9285 13.3548 73.031 13.6735 73.3007 14.0565C72.7523 14.3154 72.2519 14.6443 72.24 15.174C72.24 15.2338 72.2355 15.3418 72.24 15.4149C72.2797 16.2678 73.2717 16.4697 74.3728 16.4697ZM74.1447 13.0243C74.1642 12.8596 74.2504 12.7191 74.4559 12.7191C74.6691 12.7191 74.742 12.8539 74.7496 13.0078C74.7496 13.0243 74.7496 13.0737 74.7496 13.102C74.7347 13.2832 74.5692 13.4372 74.3324 13.5777C74.2176 13.4264 74.152 13.2786 74.1447 13.1499C74.139 13.1109 74.139 13.0618 74.1447 13.0243ZM73.9765 14.8358C74.1718 15.0335 74.4472 15.2487 74.7126 15.4777C74.5978 15.5076 74.4384 15.5241 74.3076 15.5241C73.8247 15.5241 73.6176 15.4387 73.6176 15.2142C73.6173 15.0829 73.7649 14.9557 73.9765 14.8358Z" fill="white"/>
<path d="M81.6286 16.4234C81.6286 16.4234 82.3377 13.7486 82.3453 13.5927C82.3632 13.7424 83.0558 16.4234 83.0558 16.4234H84.6051L85.9041 11.7719H84.5292C84.5292 11.7719 83.8335 14.6444 83.8335 14.7911C83.8335 14.6444 83.1302 11.7719 83.1302 11.7719H81.6733C81.6733 11.7719 80.9879 14.6444 80.9879 14.7911C80.9879 14.6444 80.2804 11.7719 80.2804 11.7719H78.7651L80.0912 16.4234H81.6286Z" fill="white"/>
<path d="M88.4264 16.4934C90.1217 16.4934 90.8951 15.6899 90.8951 14.0564C90.8951 12.5019 90.1739 11.688 88.4264 11.688C86.7131 11.688 85.9549 12.59 85.9549 14.074C85.9545 15.6635 86.7265 16.4934 88.4264 16.4934ZM88.4264 12.788C89.2116 12.788 89.4634 13.1679 89.4634 14.0894C89.4634 15.1261 89.085 15.403 88.434 15.403C87.7562 15.403 87.4015 15.0756 87.4015 14.0894C87.4012 13.1545 87.6708 12.788 88.4264 12.788Z" fill="white"/>
<path d="M92.9207 14.8496H93.8787L94.6923 16.4233H96.2834L95.2003 14.5608C95.4146 14.5129 95.6232 14.3678 95.7693 14.1196C95.8929 13.9132 95.9734 13.6171 95.9734 13.2429C95.9734 12.8075 95.8868 12.495 95.7068 12.2602C95.473 11.9504 95.0721 11.7726 94.4554 11.7726H91.5233V16.4241H92.9207V14.8496V14.8496ZM92.934 12.8672H94.1289C94.3345 12.8672 94.4703 12.912 94.5386 13.0618C94.5786 13.1307 94.5893 13.2563 94.5893 13.3609C94.5893 13.4536 94.5714 13.5777 94.5355 13.66C94.4833 13.7753 94.3345 13.8155 94.1602 13.8155H92.934V12.8672Z" fill="white"/>
<path d="M100.612 15.2728H98.3881V11.7719H96.9548V16.4233H100.612V15.2728Z" fill="white"/>
<path d="M105.52 15.7485C105.776 15.3624 105.846 14.999 105.846 14.007C105.846 13.1603 105.79 12.7727 105.506 12.3778C105.22 11.9783 104.699 11.7719 103.861 11.7719H101.32V16.4233H103.93C104.763 16.4233 105.241 16.1778 105.52 15.7485ZM102.729 15.3253V12.8596H103.623C103.974 12.8596 104.143 12.9121 104.324 13.1108C104.437 13.2426 104.47 13.6735 104.47 14.007C104.47 14.3854 104.456 14.912 104.335 15.0603C104.176 15.2487 103.985 15.3249 103.623 15.3249H102.729V15.3253Z" fill="white"/>
<path d="M109.6 14.8496H110.556L111.374 16.4233H112.963L111.878 14.5608C112.091 14.5129 112.304 14.3678 112.449 14.1196C112.571 13.9132 112.653 13.6171 112.653 13.2429C112.653 12.8075 112.566 12.495 112.386 12.2602C112.152 11.9504 111.751 11.7726 111.135 11.7726H108.204V16.4241H109.6V14.8496V14.8496ZM109.613 12.8672H110.805C111.009 12.8672 111.149 12.912 111.221 13.0618C111.257 13.1307 111.265 13.2563 111.265 13.3609C111.265 13.4536 111.251 13.5777 111.215 13.66C111.162 13.7753 111.009 13.8155 110.836 13.8155H109.613V12.8672Z" fill="white"/>
<path d="M117.654 15.3387H115.086V14.6474H117.536V13.5417H115.086V12.8673H117.629V11.7719H113.692V16.4234H117.654V15.3387Z" fill="white"/>
<path d="M119.99 14.9676C119.99 14.9676 121.243 14.978 121.417 14.9753C121.986 14.9634 122.43 14.8152 122.697 14.5027C122.928 14.2556 123.039 13.8907 123.039 13.3748C123.039 12.7972 122.893 12.3962 122.622 12.1615C122.369 11.8968 121.971 11.7723 121.412 11.7723H118.562V16.4238H119.989V14.9676H119.99ZM119.973 12.8539H121.104C121.337 12.8539 121.472 12.9259 121.55 13.0737C121.594 13.1366 121.613 13.2564 121.613 13.4012C121.613 13.5372 121.601 13.6241 121.555 13.708C121.488 13.8367 121.356 13.9263 121.086 13.9263C121.078 13.9263 119.973 13.9263 119.973 13.9263V12.8539H119.973Z" fill="white"/>
<path d="M126.01 16.4934C127.703 16.4934 128.477 15.6899 128.477 14.0564C128.477 12.5019 127.755 11.688 126.01 11.688C124.294 11.688 123.536 12.59 123.536 14.074C123.535 15.6635 124.307 16.4934 126.01 16.4934ZM126.01 12.788C126.795 12.788 127.044 13.1679 127.044 14.0894C127.044 15.1261 126.666 15.403 126.012 15.403C125.335 15.403 124.984 15.0756 124.984 14.0894C124.983 13.1545 125.25 12.788 126.01 12.788Z" fill="white"/>
<path d="M130.519 14.8496H131.477L132.293 16.4233H133.88L132.798 14.5608C133.016 14.513 133.223 14.3678 133.372 14.1196C133.491 13.9132 133.574 13.6172 133.574 13.243C133.574 12.8075 133.483 12.495 133.306 12.2602C133.071 11.9504 132.665 11.7727 132.052 11.7727H129.121V16.4241H130.519V14.8496V14.8496ZM130.53 12.8673H131.725C131.928 12.8673 132.068 12.9121 132.138 13.0618C132.174 13.1308 132.184 13.2564 132.184 13.3609C132.184 13.4536 132.168 13.5777 132.133 13.6601C132.083 13.7753 131.928 13.8155 131.753 13.8155H130.53V12.8673Z" fill="white"/>
<path d="M135.461 16.4233H136.904V12.891H138.385V11.7719H133.992V12.891H135.461V16.4233Z" fill="white"/>
</svg>
