<svg width="50" height="51" viewBox="0 0 50 51" fill="none" xmlns="http://www.w3.org/2000/svg">
<g clip-path="url(#clip0)">
<path d="M16.865 2.74609H32.625V46.8361H17.075V38.6061C7.585 30.3861 5.575 21.4361 17.075 11.1861L16.865 2.74609Z" fill="white"/>
<path d="M27.5451 39.9157C34.6144 39.9157 40.3451 33.1283 40.3451 24.7557C40.3451 16.3831 34.6144 9.5957 27.5451 9.5957C20.4759 9.5957 14.7451 16.3831 14.7451 24.7557C14.7451 33.1283 20.4759 39.9157 27.5451 39.9157Z" fill="#F15F48"/>
<path d="M25.095 26.8361C26.0284 26.8361 26.785 26.0794 26.785 25.1461C26.785 24.2127 26.0284 23.4561 25.095 23.4561C24.1617 23.4561 23.405 24.2127 23.405 25.1461C23.405 26.0794 24.1617 26.8361 25.095 26.8361Z" fill="black"/>
<path d="M41.215 22.8456C41.1064 22.0247 40.9257 21.2149 40.675 20.4256C40.4602 19.5306 40.1237 18.6693 39.675 17.8656C39.385 17.6056 39.455 17.1556 39.125 16.8656C38.975 16.7256 38.775 16.6256 38.675 16.4456C38.535 16.011 38.2873 15.6188 37.955 15.3056C37.8356 14.9035 37.6153 14.5386 37.315 14.2456C36.915 13.8556 36.715 13.3056 36.145 13.0856C35.3602 12.2703 34.4806 11.5518 33.525 10.9456C33.435 10.8856 33.335 10.8456 33.245 10.7956C33.2499 10.3871 33.2833 9.97946 33.345 9.57562C33.428 9.2069 33.428 8.82434 33.345 8.45562C33.2091 8.19418 33.1701 7.89305 33.235 7.60562C33.2338 7.37379 33.2572 7.14248 33.305 6.91562C33.22 6.66942 33.22 6.40182 33.305 6.15562C33.375 5.77548 33.375 5.38576 33.305 5.00562C33.4 4.64511 33.4 4.26613 33.305 3.90562C33.305 2.48562 33.165 1.98562 31.615 2.17562C29.315 2.03562 26.985 2.11562 24.715 2.17562C24.355 2.31562 23.995 2.07562 23.595 2.17562C23.1852 2.33967 22.7351 2.37456 22.305 2.27562C22.0959 2.21561 21.8741 2.21561 21.665 2.27562C21.2693 2.14278 20.8515 2.08843 20.435 2.11562C20.2388 2.1706 20.0312 2.1706 19.835 2.11562C19.255 2.02562 18.685 2.27562 18.095 2.17562C16.095 1.89562 15.995 2.54562 16.095 4.38562C15.995 5.21562 16.225 6.00562 16.145 6.82562C16.08 7.73446 16.08 8.64678 16.145 9.55562C16.2554 9.96789 16.3257 10.3898 16.355 10.8156C16.3656 10.8707 16.3823 10.9243 16.405 10.9756C15.8429 11.3448 15.302 11.7455 14.785 12.1756C14.575 12.4956 14.165 12.5856 13.955 12.9456C13.876 13.1315 13.768 13.3036 13.635 13.4556C13.2546 13.722 12.9316 14.0621 12.685 14.4556C12.3243 14.6685 12.022 14.9674 11.805 15.3256C11.565 15.7356 11.105 15.9856 11.015 16.4956C10.675 17.1956 10.245 17.8256 9.915 18.4956C9.01491 20.4984 8.58723 22.6813 8.665 24.8756C8.815 25.2356 8.595 25.6056 8.755 25.9956C8.84207 26.1769 8.90591 26.3684 8.94499 26.5656C8.9219 27.0181 8.976 27.4713 9.10499 27.9056C9.05095 28.3242 9.09898 28.7496 9.24499 29.1456C9.29845 29.698 9.48363 30.2296 9.78499 30.6956C10.1466 31.7687 10.6262 32.7983 11.215 33.7656C12.1742 35.2309 13.3824 36.517 14.785 37.5656C15.155 37.6756 15.315 38.0856 15.705 38.2156C15.885 38.2956 16.125 38.2756 16.285 38.3956L16.515 38.5756C16.435 38.7756 16.395 39.0056 16.325 39.2156C16.34 39.4587 16.34 39.7025 16.325 39.9456C16.3408 40.2385 16.3104 40.5321 16.235 40.8156C16.2801 41.0852 16.2269 41.362 16.085 41.5956V42.7856C16.2168 43.052 16.2722 43.3497 16.245 43.6456C16.21 44.1951 16.21 44.7462 16.245 45.2956C16.195 45.5156 16.415 45.6456 16.435 45.8356C16.3161 46.0962 16.2546 46.3792 16.2546 46.6656C16.2546 46.952 16.3161 47.2351 16.435 47.4956C16.705 47.9356 17.305 47.7456 17.735 47.8656C17.955 47.9556 18.065 47.8656 18.275 47.8656C18.8357 47.8456 19.3971 47.8656 19.955 47.9256C20.4677 47.8356 20.9922 47.8356 21.505 47.9256C21.8294 47.8142 22.1645 47.7371 22.505 47.6956C22.675 47.7756 22.795 47.9256 23.015 47.8656C23.495 47.8656 24.015 47.6256 24.455 47.6356C24.7446 47.6193 25.035 47.6497 25.315 47.7256C25.5878 47.6795 25.8681 47.7327 26.105 47.8756H27.3C27.5675 47.7472 27.8642 47.692 28.16 47.7156C28.7094 47.7506 29.2606 47.7506 29.81 47.7156C30.03 47.7656 30.16 47.5456 30.34 47.5256C30.9475 47.6993 31.5785 47.7769 32.21 47.7556C33.31 47.8656 33.42 47.1656 33.38 46.2556C33.3 45.826 33.3 45.3853 33.38 44.9556C33.285 44.4433 33.285 43.9179 33.38 43.4056C33.2679 43.082 33.1941 42.7464 33.16 42.4056C33.23 42.2456 33.38 42.1156 33.33 41.8956C33.2289 41.4198 33.1521 40.9392 33.1 40.4556C33.077 40.2128 33.077 39.9684 33.1 39.7256C33.02 39.5056 32.98 39.2556 32.88 39.0456C34.2384 38.2537 35.503 37.3111 36.65 36.2356C37.859 34.9682 38.8431 33.5038 39.56 31.9056C39.56 31.5156 39.98 31.2956 39.98 30.9056C39.9648 30.7003 39.9851 30.494 40.04 30.2956C40.3092 29.9395 40.4907 29.525 40.57 29.0856C40.8103 28.7207 40.9547 28.3011 40.99 27.8656C40.99 27.3056 41.35 26.8056 41.17 26.2356C41.305 25.1104 41.32 23.974 41.215 22.8456ZM17.565 3.75562C17.735 3.75562 17.565 3.53562 17.755 3.61562C17.945 3.69562 18.045 3.61562 18.405 3.77562C18.775 3.70562 19.165 3.84562 19.535 3.77562C19.8141 3.76164 20.0937 3.78859 20.365 3.85562C20.8672 3.76062 21.3828 3.76062 21.885 3.85562C22.2086 3.74356 22.5442 3.66972 22.885 3.63562C23.055 3.70562 23.175 3.85562 23.395 3.80562C23.8607 3.70451 24.3313 3.62774 24.805 3.57562C25.196 3.62909 25.5918 3.63915 25.985 3.60562C26.297 3.75058 26.6442 3.80265 26.985 3.75562C27.3235 3.82496 27.6755 3.77921 27.985 3.62562C28.6908 3.57562 29.3992 3.57562 30.105 3.62562C30.395 3.68562 30.565 3.28562 30.815 3.51562C31.065 3.74562 31.615 3.51562 31.875 3.67562C31.9411 4.16296 31.9139 4.65842 31.795 5.13562C31.885 5.63829 31.885 6.15295 31.795 6.65562C31.9071 6.97924 31.9809 7.31485 32.015 7.65562C31.945 7.82562 31.795 7.94562 31.845 8.16562C31.9461 8.63131 32.0229 9.10194 32.075 9.57562C32.1194 9.78934 32.1395 10.0074 32.135 10.2256C31.0271 9.68451 29.8491 9.3008 28.635 9.08562C28.255 9.08562 27.925 8.84562 27.515 8.91562C27.3195 8.96834 27.1173 8.99193 26.915 8.98562C26.4842 8.84051 26.0265 8.79269 25.575 8.84562C25.1871 8.68159 24.761 8.62962 24.345 8.69562C23.785 8.74562 23.235 8.56562 22.715 8.87562C22.1628 8.90667 21.6159 9.00061 21.085 9.15562C19.8449 9.38248 18.6495 9.80795 17.545 10.4156V10.3156C17.529 10.0759 17.529 9.83536 17.545 9.59562C17.564 9.44288 17.564 9.28837 17.545 9.13562C17.6 8.91229 17.6 8.67895 17.545 8.45562C17.6889 8.14323 17.7442 7.79732 17.705 7.45562C17.7632 7.1168 17.7179 6.76831 17.575 6.45562C17.525 5.74984 17.525 5.0414 17.575 4.33562C17.775 4.08562 17.335 3.84562 17.565 3.75562ZM32.055 42.5056C32.0572 42.7408 32.0338 42.9755 31.985 43.2056C32.075 43.4578 32.075 43.7334 31.985 43.9856C31.92 44.3729 31.92 44.7683 31.985 45.1556C31.891 45.5163 31.891 45.895 31.985 46.2556C31.985 46.2556 31.895 46.3156 31.875 46.3356C29.475 46.3356 27.035 46.2756 24.665 46.3356C24.295 46.4656 23.925 46.2356 23.525 46.3356C23.1058 46.4889 22.6525 46.5235 22.215 46.4356C22.0025 46.3758 21.7775 46.3758 21.565 46.4356C21.1608 46.3105 20.7373 46.2597 20.315 46.2856C20.1147 46.3356 19.9053 46.3356 19.705 46.2856C19.125 46.1956 18.555 46.4556 17.975 46.3456C17.975 46.3456 17.905 46.2456 17.915 46.1956C17.915 44.1156 17.915 42.0056 17.845 39.9456C17.7694 39.6833 17.7126 39.416 17.675 39.1456C17.9601 39.4287 18.3005 39.65 18.675 39.7956C20.4936 40.5695 22.425 41.0456 24.395 41.2056C25.8531 41.2126 27.3068 41.0447 28.725 40.7056C29.045 40.4756 29.455 40.6156 29.805 40.3856C29.975 40.2956 30.115 40.0956 30.305 40.0456C30.7579 39.9906 31.194 39.8407 31.585 39.6056L32.145 39.4756C32.1432 39.8101 32.1198 40.1441 32.075 40.4756C31.9618 40.8547 31.9312 41.2537 31.985 41.6456C32.1111 41.9145 32.1359 42.2199 32.055 42.5056ZM39.655 25.6356C39.6821 26.2353 39.6008 26.8349 39.415 27.4056C39.385 27.6581 39.385 27.9132 39.415 28.1656C39.415 28.4056 39.175 28.5456 39.165 28.7556C39.265 29.2656 39.165 29.2656 39.105 29.7556C38.995 29.8756 38.805 29.9256 38.785 30.1356C38.7419 30.5737 38.641 31.0041 38.485 31.4156C38.3949 31.5301 38.324 31.6584 38.275 31.7956C38.1355 31.9484 38.0238 32.1244 37.945 32.3156C37.6561 32.4897 37.4315 32.7529 37.305 33.0656C37.0992 33.2776 36.9601 33.5453 36.905 33.8356C36.575 34.5756 35.615 35.0356 35.415 35.8356C34.785 35.9956 34.695 36.4256 33.785 36.8356C33.2527 37.2188 32.6871 37.5535 32.095 37.8356C31.7277 38.1238 31.3059 38.3347 30.855 38.4556C30.605 38.7656 30.345 38.7656 30.055 38.9856C29.895 38.9856 29.745 38.8656 29.575 38.9856C29.1918 39.2064 28.7903 39.3938 28.375 39.5456C28.1162 39.6055 27.8498 39.6257 27.585 39.6056C27.345 39.7356 27.105 39.6056 26.865 39.6056C26.51 39.6235 26.1561 39.6603 25.805 39.7156C25.5729 39.855 25.3056 39.9244 25.035 39.9156C24.5372 39.8535 24.0365 39.8168 23.535 39.8056C23.335 39.7256 23.205 39.9156 23.025 39.9156C22.515 39.5256 22.145 39.7256 21.245 39.2656C20.618 39.0753 20.0063 38.838 19.415 38.5556C18.9641 38.4417 18.5395 38.2413 18.165 37.9656C17.755 37.9656 17.605 37.7656 17.255 37.6756C17.155 37.5356 17.145 37.3556 16.945 37.2956C16.4872 37.0898 16.0459 36.8491 15.625 36.5756C15.4448 36.3504 15.2402 36.1458 15.015 35.9656C14.8942 35.6588 14.694 35.3896 14.435 35.1856C14.2732 34.9318 14.0352 34.7357 13.755 34.6256C13.2798 34.0757 12.8421 33.4944 12.445 32.8856C12.285 32.8256 12.105 32.7656 12.155 32.5556C12.075 32.1456 11.785 31.7456 11.685 31.3256C11.543 30.8042 11.366 30.2931 11.155 29.7956C11.042 29.5657 10.987 29.3117 10.995 29.0556C10.7858 28.6398 10.6763 28.1811 10.675 27.7156C10.395 27.3156 10.505 27.2056 10.315 26.8156C10.315 26.6656 10.495 26.5356 10.435 26.3456C10.385 25.9156 10.145 25.4956 10.135 25.0556C10.158 24.9132 10.158 24.768 10.135 24.6256C10.216 24.4297 10.2436 24.2157 10.215 24.0056C10.5162 23.4134 10.6078 22.7366 10.475 22.0856C10.6171 21.3712 10.8041 20.6665 11.035 19.9756C10.975 19.8056 10.905 19.6356 11.105 19.5356C11.375 19.2256 11.505 18.7456 11.785 18.4056C12.1009 17.9735 12.385 17.5189 12.635 17.0456C12.735 16.7656 12.935 16.6656 13.125 16.4556C13.3073 16.0099 13.6039 15.6201 13.985 15.3256C14.115 14.8656 14.265 14.8756 14.455 14.4856C14.595 14.4156 14.795 14.4856 14.905 14.2856C15.215 13.9856 15.365 13.5056 15.735 13.2856C16.005 13.1356 16.135 13.0256 16.415 12.8956C16.6233 12.7697 16.8491 12.6753 17.085 12.6156C17.4137 12.4753 17.7176 12.2828 17.985 12.0456C18.1374 11.8193 18.3581 11.6476 18.615 11.5556C19.025 11.4056 19.615 11.1356 20.005 11.0156C20.215 11.0156 20.255 10.7356 20.405 10.6556C20.9029 10.6749 21.4011 10.6244 21.885 10.5056C22.215 10.3956 22.345 10.5056 22.755 10.4456C23.2471 10.3363 23.7534 10.3059 24.255 10.3556C24.505 10.3556 24.755 10.2156 25.005 10.2156C25.255 10.2156 25.425 10.3756 25.635 10.3356C26.115 10.1356 26.135 10.2656 26.585 10.1656C26.725 10.2556 26.815 10.4356 27.025 10.4056C27.338 10.4256 27.652 10.4256 27.965 10.4056C28.3448 10.4963 28.7188 10.6098 29.085 10.7456C29.375 10.7456 29.525 10.9256 29.715 11.0956C30.455 11.4656 31.135 11.3856 31.495 11.6256C31.855 11.8656 32.415 12.1156 32.785 12.3756C32.945 12.5256 33.155 12.3756 33.305 12.4756C33.5071 12.7905 33.7727 13.0596 34.085 13.2656C34.245 13.4956 34.515 13.5856 34.625 13.8456C34.6414 13.8956 34.6688 13.9413 34.7051 13.9794C34.7414 14.0175 34.7858 14.0469 34.835 14.0656C35.215 14.4956 35.705 14.7756 35.955 15.2956C36.105 15.4956 36.385 15.5756 36.525 15.8056C36.665 16.0356 36.665 16.2256 36.825 16.3656C37.265 16.5856 37.215 16.7056 37.545 17.0056C37.545 17.1756 37.485 17.3456 37.635 17.4856C37.9494 17.858 38.2368 18.2523 38.495 18.6656C38.539 18.7506 38.579 18.8366 38.615 18.9256C38.647 19.1338 38.7182 19.334 38.825 19.5156C38.7631 19.8598 38.8269 20.2147 39.005 20.5156C39.049 20.8104 39.1736 21.0872 39.365 21.3156C39.5427 21.8924 39.6632 22.4853 39.725 23.0856C39.725 23.2856 39.935 23.3856 39.965 23.5456C39.675 24.2156 39.985 24.9856 39.655 25.6356Z" fill="black"/>
<path d="M18.3151 20.9255C18.3151 20.9255 18.2551 20.9255 18.3151 20.8655C18.3751 20.8055 18.1851 20.8655 18.1551 20.7255C18.1386 20.7285 18.1216 20.7285 18.1051 20.7255C18.1051 20.6455 18.0451 20.5755 17.9551 20.6155C17.9076 20.6353 17.8566 20.6455 17.8051 20.6455C17.7536 20.6455 17.7026 20.6353 17.6551 20.6155C17.6551 20.5055 17.4751 20.2955 17.3451 20.3155C17.2151 20.3355 17.2551 20.3155 17.2451 20.2155C17.2351 20.1155 17.0851 20.2155 17.0051 20.2155C16.9251 20.2155 16.8151 19.9855 16.6951 20.0155C16.6086 19.9226 16.5072 19.8449 16.3951 19.7855C16.2451 19.7055 16.2151 19.6055 16.0351 19.6855C15.7751 19.5455 15.8651 19.5155 15.5051 19.4355C15.4351 19.3455 15.2151 19.4355 15.2151 19.4355C15.1667 19.4535 15.1135 19.4535 15.0651 19.4355C15.0651 19.4855 15.0651 19.4355 14.9851 19.4355C14.9051 19.4355 14.6851 19.7755 14.6151 19.9555C14.5811 20.056 14.5811 20.165 14.6151 20.2655C14.6151 20.3555 14.6151 20.5255 14.7051 20.4855L14.8251 20.6255C14.8251 20.6255 14.8251 20.7255 14.8751 20.7255C14.9251 20.7255 14.9351 20.8455 14.9651 20.9255C14.9951 21.0055 15.0451 20.9255 15.0851 20.9255C15.1251 20.9255 15.2351 20.9755 15.3251 20.9255C15.4151 20.8755 15.4751 21.0355 15.5951 21.0455C15.7151 21.0555 15.7351 21.1555 15.8151 21.1155C15.8951 21.0755 15.9451 21.0555 15.9351 21.1155C15.9251 21.1755 16.0551 21.2255 16.0951 21.3155C16.1351 21.4055 16.0951 21.3955 16.1551 21.3955C16.2151 21.3955 16.2051 21.5155 16.2351 21.5555C16.2651 21.5955 16.2851 21.5555 16.3051 21.5555C16.3716 21.5569 16.4361 21.5788 16.4898 21.6182C16.5435 21.6575 16.5837 21.7125 16.6051 21.7755C16.6051 21.7755 16.7551 21.7255 16.8051 21.7755C16.8551 21.8255 16.8051 21.9355 16.9051 21.9255C17.0051 21.9155 17.0251 21.8255 17.0651 21.8255H17.2051C17.2651 21.8255 17.1451 22.0355 17.2051 22.0355C17.2651 22.0355 17.4951 21.8955 17.5851 21.9555C17.6751 22.0155 17.6551 21.8555 17.7151 21.9555C17.7751 22.0555 17.8551 21.9555 17.9351 21.8955C18.0309 21.8487 18.1083 21.7713 18.1551 21.6755C18.234 21.5693 18.2892 21.4473 18.3168 21.3179C18.3444 21.1885 18.3438 21.0547 18.3151 20.9255Z" fill="black"/>
<path d="M18.245 28.646C18.175 28.466 18.055 28.186 17.875 28.116H17.8C17.72 28.116 17.68 28.186 17.59 28.116C17.5673 28.124 17.5426 28.124 17.52 28.116C17.44 28.116 17.37 28.066 17.34 28.166C17.31 28.266 17.34 28.366 17.29 28.376C17.2334 28.381 17.1765 28.381 17.12 28.376C17.06 28.376 17.04 28.376 17 28.456C16.96 28.536 16.75 28.316 16.69 28.456C16.63 28.596 16.6 28.456 16.54 28.456C16.48 28.456 16.41 28.556 16.37 28.636C16.33 28.716 16.08 28.636 16.02 28.756C15.8889 28.7692 15.7606 28.803 15.64 28.856C15.5799 28.8831 15.5157 28.9 15.45 28.906C15.34 28.956 15.37 29.156 15.17 29.126C14.97 29.096 14.92 29.276 14.81 29.336C14.7454 29.3705 14.6956 29.4274 14.67 29.496C14.6392 29.5696 14.5911 29.6348 14.53 29.686C14.45 29.736 14.53 29.746 14.47 29.746C14.4529 29.9677 14.5169 30.188 14.65 30.366C14.77 30.566 14.8 30.526 14.87 30.586C14.94 30.646 15.07 30.756 15.1 30.646C15.13 30.536 15.22 30.646 15.22 30.646H15.32C15.35 30.646 15.41 30.696 15.43 30.646C15.45 30.596 15.57 30.646 15.65 30.706C15.73 30.766 15.72 30.656 15.76 30.636C15.7974 30.6146 15.8289 30.5842 15.8516 30.5475C15.8743 30.5108 15.8875 30.4691 15.89 30.426C15.89 30.316 16.08 30.376 16.15 30.286C16.22 30.196 16.33 30.286 16.35 30.166C16.37 30.046 16.35 30.026 16.41 30.046C16.493 30.0561 16.577 30.0561 16.66 30.046H16.94C16.9515 30.0463 16.9627 30.0504 16.9717 30.0576C16.9807 30.0648 16.9872 30.0748 16.99 30.086C17.19 30.086 17.1 29.896 17.36 29.986C17.42 29.986 17.42 29.826 17.48 29.816C17.54 29.806 17.63 29.886 17.66 29.816C17.6752 29.7536 17.6752 29.6884 17.66 29.626C17.66 29.596 17.66 29.566 17.74 29.516C17.82 29.466 17.86 29.696 17.92 29.616C17.98 29.536 18 29.306 18.1 29.276C18.2 29.246 18.1 29.146 18.17 29.156C18.24 29.166 18.25 29.036 18.26 28.936C18.2872 28.8403 18.2819 28.7384 18.245 28.646Z" fill="black"/>
<path d="M17.225 25.0857C17.2207 24.9782 17.1861 24.8742 17.125 24.7857C17.075 24.7057 17.025 24.5457 16.945 24.6357C16.865 24.7257 16.835 24.5857 16.835 24.5857H16.735C16.705 24.5857 16.675 24.4957 16.645 24.5157C16.615 24.5357 16.535 24.4357 16.475 24.3757C16.415 24.3157 16.395 24.3757 16.345 24.3757C16.3005 24.3707 16.2557 24.3808 16.2176 24.4044C16.1795 24.428 16.1504 24.4636 16.135 24.5057C16.085 24.6357 15.945 24.5057 15.845 24.5057H15.605C15.545 24.5057 15.605 24.6657 15.545 24.6657C15.485 24.6657 15.545 24.6157 15.545 24.5857C15.545 24.5557 15.395 24.5357 15.325 24.4757C15.255 24.4157 15.265 24.4157 15.225 24.4257C15.185 24.4357 15.125 24.3457 15.085 24.3157C15.045 24.2857 15.085 24.3657 15.015 24.3157C14.945 24.2657 14.835 24.4457 14.645 24.2557C14.585 24.2557 14.525 24.3657 14.465 24.3557C14.405 24.3457 14.365 24.2157 14.305 24.2557C14.245 24.2957 14.245 24.4057 14.205 24.4157C14.1807 24.416 14.1569 24.4226 14.1358 24.4349C14.1148 24.4471 14.0973 24.4646 14.085 24.4857C14.035 24.5557 14.085 24.2757 13.975 24.3157C13.865 24.3557 13.755 24.5557 13.655 24.5457C13.555 24.5357 13.655 24.6757 13.545 24.6157C13.435 24.5557 13.415 24.6957 13.365 24.7757C13.3011 24.8589 13.266 24.9607 13.265 25.0657C13.2295 25.2853 13.2682 25.5105 13.375 25.7057H13.655C13.6746 25.6995 13.6955 25.6995 13.715 25.7057C13.785 25.7657 13.835 25.8157 13.905 25.7057C13.975 25.5957 13.985 25.5357 14.035 25.5457C14.0813 25.5827 14.1365 25.6069 14.195 25.6157C14.245 25.7057 14.285 25.6157 14.335 25.6157C14.385 25.6157 14.495 25.8457 14.605 25.7657C14.715 25.6857 14.705 25.7657 14.745 25.8157C14.785 25.8657 14.905 25.8157 14.975 25.7357C15.045 25.6557 15.245 25.8557 15.335 25.7357C15.4603 25.7817 15.5918 25.8086 15.725 25.8157C15.7875 25.8007 15.8526 25.8007 15.915 25.8157C16.035 25.8157 16.105 25.6257 16.265 25.7357C16.425 25.8457 16.555 25.7357 16.685 25.7357C16.7207 25.7372 16.7562 25.7308 16.789 25.717C16.8219 25.7032 16.8513 25.6822 16.875 25.6557C16.8989 25.6221 16.9303 25.5946 16.9668 25.5755C17.0033 25.5563 17.0438 25.5461 17.085 25.5457C17.085 25.4857 17.085 25.5457 17.155 25.5457C17.2142 25.4 17.2382 25.2424 17.225 25.0857Z" fill="black"/>
<path d="M35.7001 23.4858C35.4801 23.2558 35.3201 22.9958 35.0101 22.8958C34.709 22.5317 34.3741 22.1969 34.0101 21.8958C33.9201 21.7458 33.8501 21.5958 33.6601 21.5758C33.4875 21.524 33.3251 21.4428 33.1801 21.3358C33.1001 21.3358 33.0801 21.3358 33.0301 21.2258C32.9104 21.188 32.7809 21.1956 32.6666 21.2473C32.5522 21.299 32.4608 21.391 32.4101 21.5058C32.2601 21.7858 32.4101 21.9758 32.4601 22.2258C32.5201 22.2958 32.6301 22.3158 32.6701 22.4158C32.7101 22.5158 32.7201 22.5158 32.7201 22.5158C32.7807 22.5755 32.8374 22.639 32.8901 22.7058C32.9038 22.7684 32.9317 22.8271 32.9716 22.8773C33.0114 22.9276 33.0622 22.9681 33.1201 22.9958C33.1901 23.2458 33.1201 23.3658 33.4101 23.5158C33.4583 23.5954 33.5256 23.6618 33.6059 23.7089C33.6862 23.7561 33.777 23.7825 33.8701 23.7858C34.1101 23.8658 34.1701 24.1458 34.3801 24.2858C34.2801 24.2258 34.1701 24.2858 34.0901 24.2858C33.9553 24.2318 33.8049 24.2318 33.6701 24.2858C33.5601 24.2858 33.4701 24.1458 33.3701 24.1058C33.1272 24.0854 32.883 24.0854 32.6401 24.1058C32.1401 24.4658 31.4901 24.1058 30.9401 24.2658C30.8401 24.3758 30.7601 24.5058 30.6501 24.3458C30.5401 24.1858 30.0801 24.2858 29.7601 24.1958C29.4401 24.1058 29.5901 24.0658 29.1701 24.1058C28.8381 24.1847 28.4902 24.1638 28.1701 24.0458C28.0001 24.0458 27.8301 24.1558 27.6501 24.1358C27.5575 24.1186 27.467 24.0918 27.3801 24.0558C27.2391 23.7355 27.0258 23.4523 26.7568 23.2284C26.4879 23.0046 26.1706 22.8462 25.8301 22.7658C25.7848 22.7051 25.7603 22.6315 25.7601 22.5558C25.795 22.4115 25.8151 22.2641 25.8201 22.1158C25.9201 21.9658 25.8201 21.8458 25.8201 21.7058C25.9516 21.4718 26.0075 21.2028 25.9801 20.9358C25.9301 20.5358 26.1801 20.3958 25.9801 19.9358C25.9801 19.2258 26.0801 18.5458 26.1001 17.8358C26.2001 17.3058 25.9801 16.8358 26.1001 16.3058C26.1381 15.9735 26.1381 15.638 26.1001 15.3058H26.1801C26.2701 15.4058 26.2701 15.5758 26.3901 15.6358C26.5101 15.6958 26.6101 15.6358 26.6801 15.7058C26.7562 15.7771 26.8442 15.8346 26.9401 15.8758C27.0601 15.9358 26.8801 16.1258 27.0101 16.1858C27.2676 16.2689 27.5081 16.3976 27.7201 16.5658C27.7678 16.5705 27.8139 16.5854 27.8554 16.6096C27.8968 16.6337 27.9325 16.6665 27.9601 16.7058C28.0698 16.8217 28.2206 16.8899 28.3801 16.8958C28.5401 16.9258 28.5501 16.9758 28.7501 16.8958C28.8649 16.845 28.9569 16.7537 29.0085 16.6393C29.0602 16.5249 29.0679 16.3955 29.0301 16.2758C28.9701 16.2258 28.9001 16.2058 28.9201 16.1258C28.7914 16.0117 28.6831 15.8764 28.6001 15.7258C28.6001 15.7258 28.4501 15.3258 28.2001 15.2658C27.9501 15.2058 27.9301 15.2658 27.8601 15.1558C27.8043 15.038 27.7301 14.93 27.6401 14.8358C27.6401 14.6758 27.4801 14.6658 27.3801 14.5958C27.2401 14.0358 26.9801 14.1358 26.8201 13.7558C26.7301 13.5258 26.4601 13.4958 26.2901 13.3458C26.0628 13.0427 25.7542 12.8103 25.4001 12.6758C25.1603 12.7052 24.9288 12.7823 24.7193 12.9025C24.5098 13.0227 24.3265 13.1836 24.1801 13.3758C23.8801 13.6958 23.4901 13.8958 23.3301 14.3058C22.9679 14.609 22.6332 14.9436 22.3301 15.3058C22.1801 15.4058 22.0401 15.4758 22.0101 15.6558C21.9567 15.8291 21.8792 15.994 21.7801 16.1458C21.7801 16.2258 21.7201 16.2458 21.6701 16.2858C21.631 16.4057 21.6369 16.5357 21.6866 16.6516C21.7362 16.7675 21.8263 16.8614 21.9401 16.9158C22.2201 17.0558 22.4101 16.9158 22.6601 16.8658L23.1401 16.4358C23.2034 16.4236 23.2628 16.3964 23.3133 16.3563C23.3638 16.3163 23.4038 16.2646 23.4301 16.2058C23.6801 16.1358 23.8001 16.2058 23.9501 15.9158C24.031 15.869 24.0985 15.8021 24.1458 15.7214C24.1932 15.6408 24.2187 15.5493 24.2201 15.4558C24.2901 15.2258 24.5301 15.1558 24.6801 14.9858C24.6651 15.0718 24.6651 15.1598 24.6801 15.2458C24.6801 15.3558 24.5401 15.4458 24.5001 15.5558C24.4796 15.7987 24.4796 16.0429 24.5001 16.2858C24.8601 16.7758 24.5001 17.4258 24.6701 17.9758C24.7701 18.0758 24.9001 18.1558 24.7401 18.2758C24.5801 18.3958 24.6901 18.8358 24.5901 19.1558C24.4901 19.4758 24.4601 19.3258 24.5001 19.7458C24.5789 20.0778 24.5581 20.4256 24.4401 20.7458C24.4401 20.9258 24.5501 21.0958 24.5301 21.2658C24.5101 21.4358 24.4001 21.5558 24.4401 21.7058C24.7101 22.1058 24.5001 21.9858 24.6601 22.3358C24.602 22.4591 24.5519 22.586 24.5101 22.7158C23.9983 22.858 23.5501 23.1701 23.2394 23.6008C22.9286 24.0316 22.7736 24.5553 22.8001 25.0858C22.9401 25.4558 22.8001 25.8858 23.1101 26.2158C23.2601 26.3658 23.4601 26.4458 23.5801 26.6058C23.697 26.8015 23.8585 26.9669 24.0513 27.0885C24.2442 27.2102 24.463 27.2846 24.6901 27.3058C25.3001 27.7158 25.9301 27.4358 26.5501 27.2058C26.8344 27.0121 27.076 26.7623 27.2601 26.4716C27.4441 26.1809 27.5666 25.8556 27.6201 25.5158C27.7887 25.5936 27.9771 25.618 28.1601 25.5858C28.5601 25.5858 28.7001 25.7858 29.1601 25.5858C29.8601 25.5858 30.5401 25.6858 31.2601 25.7058C31.7901 25.8058 32.2601 25.5858 32.7801 25.7058C33.1661 25.7358 33.554 25.7358 33.9401 25.7058H34.1201C34.1201 25.7058 33.8101 25.8558 33.7601 25.9758C33.7101 26.0958 33.7601 26.1958 33.6801 26.2658C33.6055 26.3374 33.5504 26.4269 33.5201 26.5258C33.4701 26.6458 33.2701 26.4658 33.2101 26.5958C33.0651 26.8348 32.9572 27.0944 32.8901 27.3658C32.829 27.4317 32.762 27.492 32.6901 27.5458C32.5201 27.5458 32.5301 27.8058 32.5001 27.9658C32.4701 28.1258 32.4101 28.1358 32.5001 28.3358C32.5508 28.4506 32.6422 28.5426 32.7566 28.5943C32.8709 28.6459 33.0004 28.6536 33.1201 28.6158C33.1208 28.5979 33.1255 28.5805 33.1339 28.5647C33.1423 28.5489 33.1542 28.5352 33.1686 28.5247C33.183 28.5141 33.1996 28.5069 33.2172 28.5037C33.2347 28.5004 33.2528 28.5011 33.2701 28.5058C33.3822 28.3751 33.5179 28.2665 33.6701 28.1858C33.6701 28.1858 34.0701 28.0358 34.1301 27.7858C34.1901 27.5358 34.1301 27.5158 34.2401 27.4458C34.3564 27.3877 34.4641 27.3136 34.5601 27.2258C34.7101 27.2258 34.7301 27.0658 34.7901 26.9658C34.8501 26.8658 35.2601 26.8158 35.3801 26.5958C35.4057 26.5451 35.4424 26.5009 35.4874 26.4663C35.5324 26.4317 35.5845 26.4076 35.6401 26.3958C35.8601 26.3158 35.9001 26.0458 36.0501 25.8758C36.3541 25.6518 36.584 25.3418 36.7101 24.9858C36.6351 24.3558 36.0851 23.9158 35.7001 23.4858Z" fill="black"/>
</g>
<defs>
<clipPath id="clip0">
<rect width="50" height="50" fill="white" transform="translate(0 0.0859375)"/>
</clipPath>
</defs>
</svg>
